<?xml version="1.0" encoding="utf-8"?>
<!-- Generator: Adobe Illustrator 25.4.1, SVG Export Plug-In . SVG Version: 6.00 Build 0)  -->
<svg version="1.1" id="Layer_1" xmlns="http://www.w3.org/2000/svg" xmlns:xlink="http://www.w3.org/1999/xlink" x="0px" y="0px"
	 viewBox="0 0 40 44" style="enable-background:new 0 0 40 44;" xml:space="preserve">
<g>
	<path d="M19.9592285,13.928772c0.0557861,0.0377197,0.1504517-0.0102539,0.2188721-0.0551758
		c-0.0656738-0.1480713-0.1088867-0.3372192-0.1831055-0.3571777c-0.276123-0.0645142-0.5568237-0.1079102-0.8394775-0.1298218
		c-0.067627-0.0076904-0.1868286,0.0046997-0.1973877,0.0427856c-0.0214233,0.0914917-0.0111084,0.1875,0.0292969,0.2723999
		c0.0293579,0.0533447,0.1433716,0.0992432,0.1842041,0.0712891c0.3031006-0.2076416,0.5378418-0.0130005,0.7876587,0.1556396
		L19.9592285,13.928772z"/>
	<path d="M17.2260742,8.4399414c-0.0950928,0.0200195-0.1902466,0.039978-0.2854614,0.0599976
		c0.0545654,0.1018066,0.117981,0.1986084,0.1895142,0.2893677C17.182373,8.6793823,17.2149048,8.5611572,17.2260742,8.4399414z"/>
	<path d="M21.9846802,10.0244751l-0.000061,0.0001221c-0.0422974-0.0299683-0.1409912,0.0692139-0.1509399,0.1994019
		c0.0927124,0.0006714,0.1851196-0.012207,0.2740479-0.038208C22.0753174,10.1259766,22.0338135,10.0715942,21.9846802,10.0244751z"
		/>
	<path d="M22.21521,11.9138184c0.0390625,0.0614014,0.0650024,0.1417847,0.1201172,0.1800537
		c0.1018677,0.0614014,0.208252,0.1151123,0.3182983,0.1605225c0.0406494-0.0744019,0.0616455-0.1577759,0.0612793-0.2426147
		c-0.0765991-0.057373-0.1613159-0.1032104-0.2514038-0.1358032C22.3792725,11.8756104,22.2954712,11.8884277,22.21521,11.9138184z"
		/>
	<path d="M22.7963257,13.4542236c-0.02771-0.0015259-0.0554199,0.0036621-0.0807495,0.0151978
		c-0.078064,0.1188965-0.2642822,0.2392578-0.0036011,0.4143677c0.0928955,0.2192383,0.1425171,0.418396,0.2087402,0.6119995
		c0.0083008,0.0244141,0.1051636,0.0300293,0.1582031,0.0228882c0.0285034-0.0039062,0.0769653-0.0733643,0.0723877-0.0792847
		c-0.2208252-0.2858887-0.0883179-0.6715088-0.2761841-0.9616699
		C22.8510742,13.4636841,22.8240967,13.4556274,22.7963257,13.4542236z"/>
	<path d="M23.1873169,8.62146c-0.0455322-0.0088501-0.0908203-0.0177612-0.1196899,0.0332031
		c0.0509033,0.0288696,0.0852661-0.0021362,0.1196899-0.0331421V8.62146z"/>
	<path d="M23.0294189,30.8283081c0.3139648-0.1166992,0.6222534-0.2485352,0.9284668-0.3843994
		c0.0172119-0.0076294,0.0131226-0.0946045-0.0020142-0.137085c-0.0379639-0.0668945-0.0712891-0.1363525-0.0995483-0.2079468
		c-0.007019-0.083252-0.0043335-0.1672974,0.0083008-0.25c-0.0834351,0.0714111-0.2402344,0.1454468-0.237793,0.2137451
		c0.0125732,0.3568726-0.2194214,0.4321899-0.5485229,0.5018921c-0.0778198,0.0437012-0.1495972,0.0974121-0.213623,0.159668
		C22.9204712,30.7611694,22.9926147,30.8419189,23.0294189,30.8283081z"/>
	<path d="M23.1099854,28.876709c0.0401001-0.0715942,0.0568237-0.1539307,0.0477905-0.2355347
		c-0.0666504,0.0597534-0.1175537,0.1349487-0.1479492,0.2191162c0.03479,0.0062256,0.095459,0.0256958,0.1001587,0.0164795
		V28.876709z"/>
	<path d="M23.536377,29.3096924c0.0067139,0.0476074,0.0350342,0.0568848,0.0634155,0.0662231
		C23.5858154,29.3411255,23.5718994,29.3062744,23.536377,29.3096924z"/>
	<path d="M20.8693237,13.7954102c0.0019531-0.0001831,0-0.052124-0.0001221-0.079895
		c-0.0637207,0.0006104-0.1262817,0.0172729-0.1818237,0.0484619
		C20.7421265,13.7965698,20.8068848,13.8078003,20.8693237,13.7954102z"/>
	<path d="M20.2849731,15.8374023c0.0414429-0.1027832,0.0827026-0.2056274,0.1240234-0.3084106
		c-0.0684814-0.0158081-0.1400757-0.0125732-0.2069702,0.0090332
		C20.2144775,15.6414185,20.2424927,15.7423096,20.2849731,15.8374023z"/>
	<path d="M20.4727783,8.7946167c0.0006104,0.0637207,0.0172119,0.1262207,0.0485229,0.1817627
		c0.0325928-0.0546875,0.0438232-0.1194458,0.0313721-0.1818848L20.4727783,8.7946167z"/>
	<path d="M20.2675171,6.0093994c-0.0957031,0.0067139-0.1918335,0.0100098-0.2871094,0.020752
		c-0.1956787,0.0219727-0.3800049,0.1184692-0.371582,0.3148193c0.005249,0.1209106,0.1688843,0.2389526,0.2705688,0.3497925
		c0.0612793,0.0499878,0.1381836,0.0768433,0.2172241,0.0758667c0.1126099-0.0006714,0.2249756,0.0099487,0.3353882,0.0316772
		c-0.0125122-0.083313-0.0410767-0.1633911-0.0842285-0.2357788c-0.0958862-0.1025391-0.3450928-0.1056519-0.1923828-0.347229
		v0.000061C20.1976929,6.1525269,20.2304077,6.0795898,20.2675171,6.0093994z"/>
	<path d="M16.5772705,5.1675415v0.000061c-0.0598755,0.1298828-0.1118774,0.2632446-0.1559448,0.399353
		c0.0704956,0.0421143,0.1512451,0.0637817,0.2333984,0.062561c0.041687-0.1011353,0.0636597-0.2093506,0.0646973-0.3187256
		C16.7125854,5.2577515,16.6273193,5.2149658,16.5772705,5.1675415z"/>
	<path d="M19.0541992,15.5563965c0.1265869-0.1832886,0.3648071-0.3616943,0.2113037-0.640686
		c-0.4537964-0.1080322-0.453125-0.1077881-0.5834961,0.270813c-0.0131836,0.038269-0.0502319,0.0697632-0.0576782,0.1080933
		c-0.0177002,0.0897827-0.024231,0.1817017-0.0352173,0.2727661C18.7501221,15.5678711,19.0023804,15.6314087,19.0541992,15.5563965
		z M18.9844971,15.3673096l-0.085083-0.0280151C18.9567261,15.2977295,18.97052,15.3325195,18.9844971,15.3673096z"/>
	<path d="M20.3748169,13.3610229c0.2786865-0.0762329,0.5633545-0.1062012,0.5039673-0.4847412
		c0.0025024-0.0498047,0.0143433-0.0985718,0.034729-0.144104c-0.0557251,0.0057373-0.1409302-0.0095825-0.1622925,0.0205078
		c-0.1390991,0.1940308-0.2648926,0.3972168-0.3764038,0.6082153V13.3610229z"/>
	<path d="M18.9425049,6.8269653c-0.0722046-0.0877686-0.1729126-0.1474609-0.2844849-0.1688843
		c-0.1785889-0.0489502-0.3626099-0.0751953-0.5477295-0.0783081c0.2853394,0.2877197,0.5584106,0.5499878,0.8432007,0.7988892
		c0.0317383,0.0211182,0.0679321,0.0346069,0.1057129,0.0395508c0.0377197,0.0048828,0.0761108,0.0010986,0.1121826-0.0111694
		c0.1384888-0.0626221,0.269043-0.1415405,0.3887939-0.2351074c0.0462036-0.0352173,0.0559082-0.1183472,0.0822144-0.1796265
		c-0.0847168-0.0379639-0.1727905-0.067688-0.2631226-0.0888672C19.1437988,7.3339844,19.0667114,7.0570679,18.9425049,6.8269653z"
		/>
	<path d="M18.2229004,22.9890747c0.0908813-0.1011963,0.1807861-0.152771,0.2238159-0.2304688
		c0.0313721-0.0866089,0.0487671-0.1777344,0.0515747-0.2698364c-0.1098633,0.0110474-0.2185669,0.0319214-0.324707,0.0625
		c-0.043457,0.0163574-0.0509644,0.1127319-0.0944824,0.149353c-0.0648804,0.057251-0.1409302,0.100647-0.2232056,0.1275024
		c-0.0845947,0.0146484-0.1707153,0.0193481-0.2564087,0.0140991c0.0697021,0.0548706,0.1322021,0.1382446,0.2106934,0.157959
		C17.9468994,23.02771,18.0878906,23.0238037,18.2229004,22.9890747z"/>
	<path d="M19.5217285,11.725708c0.1280518-0.276001-0.0737305-0.2866821-0.2067261-0.3480225
		C19.3544312,11.5170288,19.1973267,11.7506714,19.5217285,11.725708z"/>
	<path d="M17.8718262,6.3496704C17.8171997,6.5393066,17.9780273,6.53479,18.093689,6.5198975
		c-0.0098877-0.131897-0.0115967-0.2337646-0.0133057-0.3356934v0.000061
		C18.0079956,6.2386475,17.8917847,6.2802734,17.8718262,6.3496704z"/>
	<path d="M18.7136841,9.0278931c0.0213013-0.0976562,0.0038452-0.1997681-0.0487671-0.284729
		c-0.0437012-0.0516357-0.2254028-0.0712891-0.251709-0.0357056c-0.0665894,0.0932617-0.0986938,0.2068481-0.0908203,0.321228
		c0.008606,0.0766602,0.114502,0.142395,0.21521,0.2346191C18.6234741,9.2094116,18.6862183,9.1254883,18.7136841,9.0278931z"/>
	<path d="M17.8621826,5.2151489c-0.2034912,0.1114502-0.0669556,0.2451782,0.0942383,0.343811
		c0.0777588-0.0424194,0.1499634-0.0944214,0.2149658-0.1547241h-0.000061
		C18.0656128,5.3363037,17.914917,5.1862793,17.8621826,5.2151489z"/>
	<path d="M19.5654907,10.2929077c-0.0515747,0.0186768-0.1015625,0.0413818-0.1497803,0.067688
		c-0.0740356,0.0502319-0.1417847,0.1090088-0.2017822,0.175415c-0.0203247,0.0408936-0.031311,0.0858154-0.0320435,0.1314697
		c0.0009155,0.0096436,0.0414429,0.0283203,0.0502319,0.0223999c0.112854-0.0689697,0.2203979-0.1463013,0.3215942-0.2313843
		v0.0001221C19.583313,10.4315186,19.5629883,10.3496704,19.5654907,10.2929077z"/>
	<path d="M19.4779053,23.8601074c-0.0379028-0.3129883-0.2128906-0.1713257-0.3265991-0.1096802
		c-0.0297852,0.0162964,0.031189,0.1998901,0.050415,0.3065796C19.2990112,23.9990845,19.3914185,23.9332275,19.4779053,23.8601074z
		"/>
	<path d="M18.1660767,3.5056152c0.0429077,0.0616455,0.131897,0.0911865,0.1999512,0.1353149
		c0.0178833-0.0689697,0.0276489-0.1397705,0.0291748-0.2109375c-0.0216064-0.2332764-0.3118896-0.387085-0.2000122-0.6768799
		c0.0108032-0.0280151-0.2120972-0.1548462-0.3360596-0.2167969c-0.0181274-0.0090332-0.1362305,0.1010742-0.1273193,0.1343994
		c0.0466919,0.1124878,0.1002197,0.2220459,0.1599731,0.328186C17.9697876,3.1747437,18.0615234,3.3441772,18.1660767,3.5056152z"/>
	<path d="M18.809021,3.3554688c0.1607666,0.0525513,0.2171021-0.0465698,0.1182861-0.2245483
		c-0.114624-0.0145874-0.2302246-0.019104-0.3455811-0.0135498v0.000061
		C18.6563721,3.1999512,18.7171021,3.3255005,18.809021,3.3554688z"/>
	<path d="M18.5645142,4.2175293c0.0031128-0.2949829,0.5415649-0.0374146,0.4088745-0.454834
		c-0.1511841,0.0011597-0.3018799,0.0178223-0.449707,0.0497437c-0.0462036,0.0151367-0.0903931,0.0356445-0.131897,0.0610962
		C18.4494019,3.9881592,18.506897,4.1028442,18.5645142,4.2175293z"/>
	<path d="M18.7832031,2.4940796c0.0819702-0.0059204,0.1643677-0.001709,0.2453003,0.0125732
		c0.0045166-0.1682739-0.0875854-0.2233887-0.218689-0.1409302c-0.0706177,0.0444946-0.3103027-0.0704956-0.1984253,0.1751709
		C18.6696167,2.5292969,18.7271118,2.5136719,18.7832031,2.4940796z"/>
	<path d="M19.8339233,2.4586182c0.0313721-0.013855,0.0509644-0.0544434,0.0759888-0.0826416
		c-0.052002-0.0298462-0.1080322-0.0900269-0.1556396-0.0840454c-0.1891479,0.0239868-0.3756714,0.0686646-0.5631714,0.1057129
		c0.0540161,0.0617676,0.1000977,0.1300659,0.137207,0.2033081C19.5043945,2.5861816,19.6760254,2.5378418,19.8339233,2.4586182z"/>
	<path d="M18.831604,4.7493286c-0.0177002,0.036499-0.0258789,0.0769043-0.0236816,0.1174316
		c0.0172729,0.0368652,0.043457,0.0689087,0.0762939,0.0931396c0.0327759,0.0241699,0.071106,0.039856,0.1115112,0.0455933
		c0.1552734,0.0029907,0.3114014-0.0355225,0.5054932-0.0355225c0.0689697,0.0859985,0.1417847,0.1895752,0.1239624,0.2086792
		c-0.1425781,0.152771-0.3191528,0.2755127-0.4523926,0.4350586c-0.1499023,0.1812134-0.2788696,0.3787842-0.3847046,0.5888672
		c-0.0252075,0.0498657,0.0795288,0.1655884,0.1245117,0.2510376c0.0601196-0.0462036,0.1486816-0.079895,0.1757202-0.1408081
		c0.0715942-0.1734619,0.1774902-0.3306274,0.3112793-0.4621582c0.1337891-0.1314697,0.2927856-0.2346191,0.4674072-0.3032227
		c0.1668701-0.0664673,0.0933228-0.0881958,0.0072021-0.1761475c-0.0762939-0.0778198-0.0830078-0.2211304-0.1293335-0.3318481
		c-0.0706787-0.1529541-0.1938477-0.2754517-0.347168-0.3453979C19.2443848,4.6240234,19.071106,4.6112671,18.9093018,4.65802
		C18.8760986,4.6813965,18.8493042,4.7128296,18.831604,4.7493286z"/>
	<path d="M17.5715942,3.2929688c-0.0214844-0.0599365-0.0643921-0.1097412-0.1204834-0.1398315
		c0.001709,0.0636597,0.0195923,0.1258545,0.052002,0.1807861C17.5269775,3.3197632,17.5725098,3.2947998,17.5715942,3.2929688z"/>
	<path d="M16.6795044,3.6247559c0.0930786-0.1323242,0.1646729-0.2264404,0.2362061-0.3204956
		c-0.1500854-0.0130615-0.300293-0.0344849-0.4504395-0.0342407c-0.046875,0.000061-0.09375,0.0584106-0.140686,0.0900879
		C16.5460815,3.3395386,16.4003296,3.7232056,16.6795044,3.6247559z"/>
	<path d="M16.322998,4.7776489c0.0803833,0.0008545,0.159729-0.0194092,0.2299194-0.0585938
		c-0.0510254-0.3099976,0.1754761-0.3380737,0.3795776-0.4364624c0.15802-0.1057129,0.2932129-0.2420654,0.3977051-0.4009399
		c-0.0324097-0.0636597-0.078186-0.1195679-0.1342773-0.1638184c-0.0994263,0.0498047-0.1853027,0.1265869-0.3355103,0.2111816
		c-0.1304932,0.0791016-0.1940308,0.1829834-0.2731323,0.1966553c-0.2713013,0.0469971-0.3192749,0.2157593-0.3659668,0.4552002
		C16.1931763,4.7250366,16.2374878,4.763916,16.322998,4.7776489z"/>
	<path d="M15.7885742,5.6438599c0.1188354-0.0996704,0.222229-0.2163696,0.3067017-0.3463135
		c0.0205078-0.0320435,0.0106201-0.1243286-0.0135498-0.1376343c-0.0960083-0.0527954-0.2089233-0.0657349-0.3143311-0.0360718
		c-0.1054688,0.0296631-0.1950684,0.0995483-0.2495117,0.1946411C15.3739014,5.5667114,15.6218262,5.5692139,15.7885742,5.6438599z"
		/>
	<path d="M17.0369873,5.8458862c-0.000061,0.1161499,0.0653076,0.2267456,0.0357056,0.2666016
		c-0.1480713,0.1987915,0.026123,0.2515259,0.1358032,0.2758179c0.1646118,0.0363159,0.1784058-0.0750122,0.1575928-0.2191162
		c-0.0089722-0.0633545,0.1046143-0.1402588,0.1033325-0.2098999c0.0003662-0.0995483-0.0355225-0.1958008-0.1008911-0.270874
		C17.2103882,5.5412598,17.1245728,5.6677246,17.0369873,5.8458862z"/>
	<path d="M18.088623,4.6727905c0.0726929,0.0046387,0.1456909,0.0044556,0.2183838-0.0004883
		c-0.0358276-0.0535889-0.0786133-0.1021729-0.1273193-0.1442871c-0.1204834-0.0790405-0.2496948-0.1448364-0.4135742-0.2376099
		c-0.1185913,0.0805664-0.2247925,0.1781006-0.3151855,0.2894287c0.1187744,0.0122681,0.2381592,0.020874,0.3563843,0.0379639
		C17.9017944,4.6314697,17.9940186,4.6612549,18.088623,4.6727905z"/>
	<path d="M19.864502,3.3547363c0.1005249-0.1740112,0.2009277-0.3480835,0.3013916-0.5220337
		c-0.0697021-0.0015869-0.1591797-0.0305786-0.2041626,0.0020142c-0.0598145,0.043396-0.085022,0.1347656-0.1466064,0.2437134
		C19.8175049,3.1724854,19.8342285,3.265625,19.864502,3.3547363z"/>
	<path d="M20.6104736,10.6942139l0.1878052,0.1063843c0.0129395-0.0706787,0.0073242-0.1434937-0.0163574-0.2113037
		C20.7247314,10.6242065,20.6676025,10.6591797,20.6104736,10.6942139z"/>
	<path d="M23.3043213,8.3259277c0.0297852,0.013855,0.0968018-0.0518799,0.1466064-0.0808716
		c-0.0421143-0.0337524-0.0838013-0.0959473-0.1264038-0.0964355c-0.2809448-0.0038452-0.343811-0.1939087-0.3856201-0.4163818
		c-0.0194092-0.1029053-0.0292969-0.1010742-0.1696777-0.1550903c-0.0978394,0.2145386-0.0967407,0.3694458,0.0600586,0.4833374
		C22.9788818,8.1638794,23.1378784,8.2527466,23.3043213,8.3259277z"/>
	<path d="M22.1729126,6.9367676c0.0032959-0.0133667,0.0020142-0.0274048-0.0037231-0.039917
		c-0.0057983-0.0125122-0.015564-0.022644-0.0278931-0.0288086c-0.1536865-0.1116943-0.2969971-0.1497803-0.3731689,0.0776978
		c-0.0115967,0.0714111-0.0118408,0.1442871-0.0006104,0.2157593c0.1081543-0.0567017,0.2160645-0.1139526,0.3248901-0.1696167
		C22.1234741,6.9807129,22.1511841,6.961731,22.1729126,6.9367676z"/>
	<path d="M21.8626709,8.3258057c0.0527344-0.0169678,0.131958-0.0177612,0.1538086-0.0535889
		c0.1469116-0.2397461,0.2814941-0.4869995,0.4418335-0.7700195c0.071106-0.1112061,0.1203613-0.1842041,0.1697998-0.2572021
		c-0.1044922-0.0079346-0.2816162-0.0553589-0.302002-0.0177002c-0.1694336,0.3119507-0.3115234,0.6389771-0.4570312,0.963623
		C21.8590088,8.2351685,21.8568115,8.2808228,21.8626709,8.3258057z"/>
	<path d="M23.2335815,7.0921631c0.1329346,0.0690308,0.1416016-0.0353394,0.2141113-0.0697021
		c0.1752319-0.083252,0.2684937-0.3932495,0.5505981-0.2177124c0.0756836,0.0307617,0.1558838,0.0490112,0.2374878,0.0539551
		c-0.0346069-0.1077881-0.0882568-0.2084961-0.1586914-0.2971802c-0.112793-0.0739746-0.2398071-0.1235352-0.3728638-0.1456299
		c-0.3141479,0.0171509-0.3695068,0.2633667-0.4771118,0.4491577C23.1903076,6.9285278,23.0582275,7.0010376,23.2335815,7.0921631z"
		/>
	<path d="M24.3641968,8.3001709c0.0952148,0.0169678,0.1879883,0.0452881,0.2764893,0.0842896
		c-0.0346069,0.083313-0.0646973,0.1688843-0.1051025,0.2492065c-0.036499,0.0722656-0.0844116,0.138916-0.1271973,0.2080688
		c0.0898438-0.0297852,0.1809082-0.0560913,0.269104-0.0899658c0.4171143-0.1604004-0.0894775-0.500061,0.1328125-0.7349243
		c0.0206909-0.0986938,0.0064087-0.2015991-0.0405273-0.2908936c-0.046875-0.0892944-0.1234741-0.1594849-0.2164917-0.1984863
		c-0.0482788,0.1509399-0.0961914,0.3019409-0.1455078,0.4525146c-0.0150757,0.0317993-0.0322876,0.062561-0.0514526,0.0921021
		c-0.1083374,0.093811-0.2221069,0.1810303-0.3409424,0.2611694C24.1304932,8.3123169,24.2471924,8.3012695,24.3641968,8.3001709z"
		/>
	<path d="M23.9472046,7.6561279c0.0725098-0.255127-0.0576782-0.4119873-0.3082886-0.5454102
		c-0.1500244,0.2562256,0.0780029,0.4047241,0.2011719,0.5914307C23.8444214,7.7088013,23.9401245,7.6810303,23.9472046,7.6561279z"
		/>
	<path d="M21.1539307,6.864563c-0.0455322-0.0089111-0.0909424-0.0178223-0.119812,0.0331421v0.000061
		C21.085083,6.9265747,21.1195068,6.8955688,21.1539307,6.864563z"/>
	<path d="M20.7839966,9.9343872c0.0292969-0.0829468,0.0245972-0.1741943-0.0130005-0.2537231
		c-0.036377,0.0064697-0.0720215,0.0163574-0.1065063,0.02948c0.008728,0.0875854,0.0516357,0.1682129,0.1193848,0.2242432
		H20.7839966z"/>
	<path d="M19.8662109,3.6120605c-0.1127319,0.0008545-0.2252197-0.0095215-0.3358154-0.0308838
		c0.0344238,0.0504761,0.0579224,0.1174316,0.1052246,0.1483154c0.1364746,0.0894165,0.2860718,0.1588135,0.4241943,0.2461548
		c0.2390137,0.1511841,0.3582153-0.0407104,0.4939575-0.1706543c0.0395508-0.0535889,0.0700073-0.1132202,0.090332-0.1766357
		c-0.1248169-0.0134277-0.2493896-0.0325928-0.3745728-0.0385742c-0.1349487-0.0033569-0.2697144,0.0040894-0.4033203,0.0222168
		V3.6120605z"/>
	<path d="M20.0623169,5.2506104c0.1240845,0.0123901,0.2492065,0.0130005,0.3734131,0.0018311
		c0.0809937-0.0307617,0.1557007-0.0758667,0.2206421-0.1331177C20.5455933,5.09021,20.4348145,5.0611572,20.2858276,5.010376
		C20.1962891,5.0751343,20.1204224,5.1567383,20.0623169,5.2506104z"/>
	<path d="M23.423584,28.1472778c-0.0083008,0.0666504-0.0125122,0.133728-0.0125122,0.2008057
		c0.1190186-0.0437622,0.2390137-0.0848999,0.3565063-0.1322632c0.0761108-0.0287476,0.1450195-0.0737915,0.2019043-0.132019
		C23.711792,27.6367188,23.6071167,28.1383057,23.423584,28.1472778z"/>
	<path d="M21.5922241,7.5165405c-0.2062378-0.0594482-0.4207153-0.0854492-0.6351929-0.0769653
		c-0.0274048,0.0046387-0.0532227,0.0161743-0.0750122,0.0335083c-0.0217285,0.017334-0.0386963,0.039856-0.0494385,0.0655518
		c-0.0072632,0.0431519,0.0692139,0.1417236,0.0733032,0.1398315C21.1306763,7.5727539,21.4107056,7.8397217,21.5922241,7.5165405z"
		/>
	<path d="M27.0093994,8.1104736c-0.0474854,0.0067749-0.0568848,0.0351562-0.0662231,0.0634766v0.000061
		C26.9780273,8.1600342,27.0128174,8.1461792,27.0093994,8.1104736z"/>
	<path d="M8.0457153,28.0584106c0.0835571,0.0463867,0.1789551,0.0671997,0.274231,0.0595703
		c-0.0585327-0.0778809-0.1298218-0.1452637-0.2108154-0.1994629L8.0457153,28.0584106z"/>
	<path d="M6.4945068,27.6898193c-0.0647583,0.1210938-0.0802612,0.2411499,0.1193237,0.2276611
		c0.2405396-0.0133057,0.4796143-0.0467529,0.7145386-0.1000977C6.949585,27.3835449,6.6743774,27.3532715,6.4945068,27.6898193z"/>
	<path d="M6.3609009,26.8413086c0.0139771,0.0349121,0.0278931,0.0695801,0.0634155,0.0662842
		C6.4176025,26.8599854,6.3892212,26.8505859,6.3609009,26.8413086z"/>
	<polygon points="7.3284912,27.8175049 7.3284912,27.8173828 7.3283691,27.8173828 	"/>
	<path d="M5.9504395,27.177124c-0.3144531-0.0713501-0.4863281,0.0991821-0.6181641,0.4042969
		c0.0265503,0.1782837,0.0004272,0.324707,0.2723999,0.2973022c0.3916626-0.0396118,0.0379639-0.6327515,0.4832764-0.5639038
		c0.005127,0.0007935,0.024231-0.0460205,0.0220947-0.0474243c-0.0479126-0.0385742-0.1018066-0.0692139-0.1596069-0.0903931
		V27.177124z"/>
	<path d="M5.4125977,26.5720215c-0.1591797,0.1078491-0.3136597,0.2226562-0.4685059,0.336792
		c0.0770874-0.0013428,0.1539307-0.0084229,0.2299805-0.0211182c0.1151733-0.055603,0.2270508-0.1177979,0.335083-0.1864014
		C5.475647,26.656311,5.4145508,26.5706787,5.4125977,26.5720215z"/>
	<path d="M2.9230957,15.6203003c-0.0917358,0.2171021-0.0601807,0.2993164,0.1558838,0.25
		c0.1508179-0.0343018,0.1868286-0.0980225,0.1387329-0.2449951C3.1488647,15.4146729,3.0620728,15.4298706,2.9230957,15.6203003z"
		/>
	<path d="M9.3898926,28.998291c-0.0797729-0.0162964-0.161438-0.0219727-0.2427368-0.0169067
		c-0.0732422,0.0625-0.1335449,0.1387939-0.1775513,0.2244873h-0.000061
		c0.0812988,0.0050049,0.1795654,0.0406494,0.2397461,0.0072021C9.2857056,29.1707153,9.3311157,29.0725098,9.3898926,28.998291z"/>
	<path d="M34.0477905,16.2854004c-0.0020752,0.1937256,0.0187988,0.3870239,0.062439,0.5758057
		c0.0032959,0.0214233,0.0701904,0.0554199,0.0946655,0.0466919c0.0513306-0.0180054,0.1218262-0.0515137,0.1358032-0.0944824
		c0.079895-0.2351074,0.1347046-0.4780884,0.1635132-0.7247925c-0.2149048-0.0170288-0.4335938-0.0493164-0.4564209,0.1966553
		V16.2854004z"/>
	<path d="M33.0593262,14.3303833c0.1278687,0.041626,0.2605591,0.0665283,0.3948975,0.0740967
		c0.2136841,0.0737915,0.4204712,0.1289062,0.2496948,0.3890991c-0.0255127,0.0388184,0.1021118,0.1783447,0.1588745,0.2712402
		c0.0717163-0.0898438,0.1964111-0.1741943,0.2062988-0.2703247c-0.0095825-0.1196899-0.0437012-0.236084-0.1004028-0.34198
		s-0.1347046-0.1989136-0.2290039-0.2731323c-0.0943604-0.0742798-0.203064-0.1282959-0.3192749-0.1585693
		c-0.1162109-0.0303345-0.2374268-0.0361938-0.3560181-0.017334c-0.100769,0.0342407-0.1763916,0.1432495-0.2636108,0.2178955
		c0.0861206,0.0369263,0.1700439,0.079895,0.2585449,0.1091309V14.3303833z"/>
	<path d="M5.4129028,25.9630737c-0.1691284-0.0108032-0.3381348-0.0264893-0.5073242-0.02948
		c-0.072998,0.0075073-0.1419678,0.0369263-0.197998,0.0842896c-0.0202026,0.1400146-0.0585327,0.2842407-0.007019,0.3323975
		c0.0430298,0.0292969,0.0928345,0.0472412,0.1446533,0.0519409c0.0518799,0.0047607,0.1040649-0.0037231,0.1517334-0.0247192
		C5.1473999,26.251709,5.2865601,26.1130981,5.4129028,25.9630737z"/>
	<path d="M3.746582,13.640625c-0.0097046,0.0239868,0.0327148,0.0852661,0.0657349,0.1082764
		c0.2357788,0.164917,0.215271-0.1959229,0.3607788-0.2471924C3.9456177,13.3544922,3.8219604,13.456604,3.746582,13.640625z"/>
	<path d="M3.9041748,26.0767822c-0.0419312,0.0870972-0.0697632,0.1802979-0.0823975,0.276123
		c0.0009155,0.0540161,0.0894165,0.1063843,0.1385498,0.1594849c0.0091553-0.0894775,0.0255737-0.1780396,0.0490112-0.2647705
		C3.9914551,26.1817017,3.9549561,26.1223755,3.9041748,26.0767822z"/>
	<path d="M9.6223145,30.2901001c0.0603638-0.0736084,0.1159058-0.151001,0.1662598-0.2318115
		c-0.0827637-0.0286865-0.1730347-0.0271606-0.2547607,0.0043335c0.0023193,0.0570679-0.012146,0.1135864-0.0415649,0.1624756
		c0.0450439,0.0230713,0.121582,0.0745239,0.1300659,0.0648804V30.2901001z"/>
	<path d="M10.7471924,30.0540771c0.0377808,0.0162964,0.0739136,0.0363159,0.1077881,0.0596313
		c0.0106201-0.0720215,0.0123291-0.1450806,0.0049438-0.2175293c-0.0081177-0.0263672-0.0237427-0.0499878-0.0449219-0.067688
		s-0.0471802-0.0288086-0.074585-0.0319824C10.6757812,29.9144287,10.5795898,29.9996948,10.7471924,30.0540771z"/>
	<path d="M5.1592407,25.1519775l-0.0278931,0.0132446c0.0946045,0.0430908,0.1860352,0.0929565,0.2736206,0.1490479
		c0.0587769,0.0474243,0.1072998,0.1065063,0.142395,0.1734009c0.0947266,0.1657104,0.173645,0.3409424,0.2753296,0.5019531
		c0.0300293,0.0474854,0.1148071,0.0604858,0.1744995,0.0892944c0.015625-0.0671387,0.0629883-0.1486206,0.0404663-0.1987305
		c-0.0639648-0.1151123-0.1347656-0.2263794-0.2119751-0.3331909c-0.0957031-0.1519165-0.1738281-0.31427-0.2327881-0.4838867
		c0.0196533-0.0289307,0.036499-0.0596313,0.0502319-0.0917358c0.0026245-0.0114746-0.0095825-0.0264893-0.0151367-0.039856
		c-0.1309204,0.0615845-0.2617798,0.1231689-0.3926392,0.1846924c0.0244751-0.0203857,0.0479736-0.0438843,0.046814-0.0579834
		c-0.0134277-0.1011353-0.0388184-0.2002563-0.0755615-0.2953491c-0.0341797-0.1037598-0.02771-0.2874756-0.2080688-0.1859741
		c-0.0479126,0.0269165-0.0114746,0.2037964,0.0028076,0.3717041C5.036438,25.0283813,5.0906982,25.0983276,5.1592407,25.1519775z"
		/>
	<path d="M12.6051025,31.3270264c-0.0848999,0.0630493-0.1500244,0.1491699-0.1876221,0.2479858
		c-0.0188599,0.05896-0.0299683,0.1201782-0.0332642,0.1820679v0.0001221
		c0.060791-0.0465088,0.1159058-0.0999756,0.1641846-0.1593018C12.59021,31.513916,12.6096802,31.4207153,12.6051025,31.3270264z"/>
	<path d="M10.7689209,30.685791c0.0636597-0.0004883,0.1261597-0.0172119,0.1817627-0.0484619
		c-0.0546875-0.0325317-0.1195068-0.0437012-0.1818848-0.031311C10.7667847,30.6062012,10.7687988,30.6580811,10.7689209,30.685791z
		"/>
	<path d="M2.5855103,26.5183716c-0.0100708-0.0085449-0.0500488,0.0177002-0.0761108,0.02771
		c0.0379028,0.1088257,0.1031494,0.2059326,0.1894531,0.2821045l0.1729126-0.0479126
		c-0.0946655-0.0881958-0.1879272-0.1779785-0.2861938-0.2619019H2.5855103z"/>
	<path d="M3.8491821,25.47052c-0.1670532,0.1641846-0.5964966,0.0895996-0.4546509,0.5039062
		c0.2034302-0.0906372,0.4019165-0.1919556,0.5946045-0.3036499c0.0612793-0.0379639,0.0842285-0.1376953,0.1246948-0.2091675
		C4.0234375,25.4622803,3.8955688,25.4249878,3.8491821,25.47052z"/>
	<path d="M4.3375244,25.4232178c-0.0198975,0.0289917-0.0368042,0.0599976-0.0504761,0.0924072
		c0.0010376,0.0140991,0.0066528,0.0274658,0.0161133,0.0380859c0.1091309-0.0228271,0.2151489-0.0585938,0.3157349-0.1066284
		c0.0405273-0.0239868,0.0365601-0.1231079,0.0527954-0.1879883c-0.0588989,0.0018311-0.1173706,0.0106812-0.1741333,0.0264282
		C4.4351196,25.3195801,4.3805542,25.3665771,4.3375244,25.4232178z"/>
	<path d="M32.5195923,19.7091064c-0.0493164,0.0457153-0.0921631,0.0977783-0.1276855,0.1547852v0.0001221
		c0.0776978-0.0333252,0.1254883-0.0582275,0.1732788-0.0831909L32.5195923,19.7091064z"/>
	<polygon points="3.9603882,26.5123901 3.9603271,26.5123901 3.9603271,26.5125122 	"/>
	<path d="M3.8077393,24.4647827c0.0271606-0.0373535,0.0061035-0.1098022,0.0071411-0.1661987
		c-0.0513916,0.0217285-0.1014404,0.0466309-0.1497803,0.0745239c-0.0733032,0.0498047-0.140625,0.1079712-0.2005615,0.1732788
		c-0.0615234,0.1087036-0.1013794,0.1791382-0.1412354,0.2495117c0.0736084-0.0111084,0.1661987,0.0018311,0.2167969-0.038269
		C3.6420898,24.6724854,3.7321167,24.5739746,3.8077393,24.4647827z"/>
	<path d="M3.7167969,27.1295166c-0.0415039,0.0695801-0.0629272,0.1494751-0.0617065,0.2304688
		c0.1090088,0.0096436,0.21875,0.0040283,0.3261719-0.0166016c0.0457153-0.0145874,0.0894165-0.034668,0.1303101-0.0598755
		c-0.128418-0.059082-0.2601929-0.1105957-0.3947144-0.1541138L3.7167969,27.1295166z"/>
	<path d="M24.9002075,28.7191772v0.0001221c0.0349121-0.0139771,0.0697021-0.0280151,0.0662842-0.0634766
		C24.9188843,28.6624756,24.9096069,28.6907959,24.9002075,28.7191772z"/>
	<path d="M25.0305176,9.1098633c-0.0289917-0.0198975-0.0599365-0.0368042-0.0923462-0.050415
		c-0.0140991,0.0009766-0.0274658,0.0065308-0.0380859,0.0158691c0.0316162,0.1069336,0.0654297,0.2132568,0.098999,0.3195801
		C25.02948,9.3031616,25.0402222,9.2060547,25.0305176,9.1098633z"/>
	<path d="M21.5455933,27.5490112c-0.0164185,0.0570068-0.015686,0.0889893-0.0053101,0.0924683h-0.000061
		c0.0723877,0.024231,0.1466064,0.0425415,0.2203979,0.0627441l-0.1069336-0.3462524L21.5455933,27.5490112z"/>
	<path d="M22.6072998,26.5756836l0.6928711-0.9928589c-0.2889404-0.1871338-0.532959-0.4360352-0.7143555-0.7286987
		c-0.1622314-0.3417969-0.2371216-0.7186279-0.2178345-1.0964355c-0.0022583-0.4785156-0.0033569-0.9891968-0.0033569-1.5321655
		v-2.6500244h1.4498901v-1.2142944h-1.2786865l0.5428467-1.8856201l-1.1714478-0.31427l-0.6357422,2.1998901
		c-0.5097046,0.0300903-0.9970703,0.2199707-1.3927002,0.5429077l-0.4000854,0.2855835l0.628479,0.9713745l0.1715088-0.1427612
		c0.2407227-0.2340088,0.5473022-0.3884888,0.8786011-0.4428101v4.5073242
		c-0.0014648,0.2469482,0.0223999,0.4933472,0.0712891,0.7354736v0.0001221
		c0.0969238,0.3717651,0.2693481,0.7196655,0.5065308,1.0220947C21.97229,26.1428223,22.2692261,26.3931274,22.6072998,26.5756836z"
		/>
	<path d="M25.4990234,8.1661987c0.0004883-0.0056152-0.0963135-0.0343018-0.1027222-0.0240479
		c-0.0675049,0.1080322-0.1259766,0.2218018-0.1868896,0.3339844v0.000061
		c0.0739746,0.0213013,0.1521606,0.0231934,0.2271729,0.0055542C25.4675903,8.3788452,25.4885254,8.2731323,25.4990234,8.1661987z"
		/>
	<path d="M25.4595947,8.7976685c-0.0477905,0.0906982-0.0739136,0.1432495-0.1000977,0.1956787l0.3289795-0.0650635
		C25.6242065,8.866333,25.5455933,8.8214111,25.4595947,8.7976685z"/>
	<path d="M25.9125977,7.6409912c0.0198975-0.0289917,0.0368042-0.0599365,0.0504761-0.0922852
		c0.0026245-0.0115356-0.0105591-0.038208-0.0166016-0.038147c-0.0574951-0.0079346-0.1160889-0.0040283-0.1719971,0.0116577
		c-0.0831909,0.0466919-0.1627808,0.0995483-0.2381592,0.15802C25.6546021,7.730896,25.7733765,7.8861694,25.9125977,7.6409912z"/>
	<path d="M20.0751953,25.7391968c-0.1412964-0.0438843-0.2857666-0.0772095-0.4320068-0.0999756
		c-0.0093994-0.0013428-0.0582886,0.1123047-0.043457,0.1271973c0.177063,0.1774902,0.3584595,0.3515015,0.5489502,0.5144653
		c0.0585327,0.0502319,0.1317139,0.1470337,0.1702271-0.0612793C20.3624268,25.9841919,20.34552,25.8424072,20.0751953,25.7391968z"
		/>
	<path d="M17.8602905,20.3154907c-0.0473022-0.022522-0.1245117-0.0755615-0.1375122-0.0629883
		c-0.3599854,0.3516846-0.8620605,0.315979-1.2911987,0.4754028c-0.1499023,0.0556641-0.2368774,0.0750732-0.1940918,0.2824097
		c0.0563354,0.2720947,0.1875,0.2669067,0.4061279,0.1477661c0.3887939-0.2472534,0.7578735-0.4530029,1.1204834-0.6696777
		C17.8131714,20.4592285,17.8289795,20.3745117,17.8602905,20.3154907z"/>
	<path d="M17.0980225,18.6740112c-0.0043945-0.0170288-0.0123291-0.03302-0.0230103-0.0469971
		c-0.0108032-0.013916-0.024231-0.0256348-0.0394897-0.0343018c-0.0154419-0.008606-0.0323486-0.0142212-0.0498047-0.0162354
		c-0.0175171-0.0019531-0.0352173-0.0004883-0.052124,0.0043945c-0.0169067,0.0050049-0.0327148,0.0132446-0.0463867,0.0244141
		c-0.0136108,0.0111084-0.0249023,0.0248413-0.0332031,0.0404053l0.2293701,0.1298828
		c0.0091553-0.0150757,0.0151367-0.0318604,0.0176392-0.0492554C17.1035156,18.7088013,17.102478,18.6911011,17.0980225,18.6740112z
		"/>
	<path d="M16.6646118,24.4096069c0.0175781-0.0776367-0.0640869-0.1777954-0.1011963-0.2678223
		c-0.0241089,0.0203857-0.0661011,0.0391235-0.0682373,0.0615234c0.006897,0.0518188,0.0093384,0.1040649,0.0071411,0.156311
		c-0.0184326,0.1412964-0.0273438,0.2836914-0.0266113,0.4262085C16.5545044,24.6690063,16.617981,24.5426025,16.6646118,24.4096069
		z"/>
	<path d="M20.5343018,29.1746216c0.1715088,0.1138916,0.2955933,0.1598511,0.376709-0.0400391
		c0.0177612-0.0371704,0.0377808-0.0731812,0.0601807-0.1077881c-0.112915,0.0025024-0.2254028,0.0117798-0.3370972,0.027832
		c-0.0266113,0.0079956-0.0501709,0.0236816-0.0679932,0.0449829
		C20.5484009,29.1209106,20.5372925,29.1469727,20.5343018,29.1746216z"/>
	<path d="M32.1998901,12.4033203c-0.0791626-0.0668945-0.1715698-0.116333-0.2711792-0.1448975
		c-0.0281372,0.083374-0.0258179,0.1740723,0.0064087,0.2559814C32.0233765,12.477417,32.1116943,12.4403076,32.1998901,12.4033203z
		"/>
	<path d="M25.4246826,14.3984985c-0.0778809-0.0588989-0.1629639-0.175415-0.2324829-0.1668091
		c-0.3182983,0.0115967-0.6192017,0.1481934-0.8374023,0.380188c-0.0372925,0.0621948-0.0651855,0.1296387-0.0827026,0.2000122
		c0.1085205-0.0172119,0.2185059-0.022583,0.328125-0.0161133c0.2248535-0.050354,0.4440918-0.1235962,0.6539917-0.218689v0.0001221
		C25.3237305,14.5452881,25.3685913,14.4595947,25.4246826,14.3984985z"/>
	<path d="M32.3320923,19.8806152l-0.000061-0.0001221c0.012146,0.0402222,0.0093994,0.0834351-0.0079346,0.1217041
		C32.3120117,19.9619751,32.3148193,19.9188232,32.3320923,19.8806152z"/>
	<path d="M28.756897,11.1170044c0.0811768-0.1463013,0.1517944-0.2982178,0.2114258-0.4545288
		c0.0153809-0.0482788-0.0710449-0.1290894-0.1705322-0.1784668c-0.3862915,0.1156006-0.0744019,0.3883667-0.2028809,0.5413208
		L28.756897,11.1170044z"/>
	<path d="M14.9338989,6.2590332c0.0714111,0.1501465,0.1624146,0.2902832,0.2705078,0.416626
		c0.0462646,0.0261841,0.0877686,0.0599976,0.1226807,0.1000366c0.0499878,0.0778809,0.0928345,0.1602783,0.1384888,0.2409058
		c0.034729-0.1184692,0.0476074-0.2421875,0.038208-0.3651733c-0.0570068-0.119873-0.1289673-0.2319336-0.2143555-0.3335571
		C15.25,6.2419434,15.2156982,6.1634521,15.1867065,6.0829468c0.0908203,0.0100708,0.1826172,0.015686,0.2720947,0.0325928
		c0.038269,0.0072632,0.0731812,0.0570068,0.1074829,0.0546875c0.069519-0.0099487,0.1379395-0.0263672,0.2044067-0.0490112
		c-0.0335693-0.0622559-0.052063-0.1535645-0.1040039-0.180542c-0.1015015-0.0557861-0.2144165-0.0874634-0.3299561-0.0925903
		c-0.1536255-0.0025635-0.3064575,0.0238647-0.4502563,0.0779419c-0.0134888,0.1132202,0.0029297,0.2279663,0.0474243,0.3329468
		V6.2590332z"/>
	<path d="M32.3532104,17.1668091c-0.0125122-0.0411377-0.0125122-0.0955811-0.0397339-0.1212158
		c-0.1972046-0.1638184-0.3269653-0.3947754-0.3643799-0.6484985c-0.03479-0.322876-0.1693115-0.1981812-0.2957764-0.0653687
		c-0.0762939,0.0848999-0.1300049,0.1876831-0.156189,0.2987671c0.0077515,0.1223145-0.0142212,0.2377319-0.0077515,0.2393188
		c0.2744141,0.0394897,0.5331421,0.1522827,0.7489014,0.326416C32.2532959,17.2106934,32.3137817,17.1776733,32.3532104,17.1668091z
		"/>
	<path d="M32.2171021,13.7991943v-0.0001221c-0.0402222,0.012146-0.083374,0.0093384-0.1217041-0.0079956
		C32.1356201,13.7791138,32.178772,13.7819214,32.2171021,13.7991943z"/>
	<path d="M27.0856934,9.2011719c0.0346069,0.0440063,0.0720215,0.0856934,0.1119995,0.1248779
		c0.213501,0.1764526,0.1853027-0.0872803,0.2299194-0.1712036c-0.0665894-0.0467529-0.1063843-0.0662842-0.1217041-0.0977783
		c-0.1124268-0.2317505-0.2910156-0.2313232-0.4957275-0.1488647c0.0919189,0.0975952,0.1842041,0.1948242,0.2755127,0.2929077
		V9.2011719z"/>
	<path d="M26.989502,10.1439819c0.083313-0.0553589,0.1782227-0.0910034,0.2774048-0.1040649
		c0.085022,0.0075684,0.1679688,0.0300903,0.2451172,0.0664062c-0.0461426-0.0765991-0.0971069-0.1502075-0.152832-0.2202759
		c-0.2630615-0.293396-0.2647095-0.2918701-0.6334839,0.093689C26.7702026,10.2037964,26.8449097,10.2352905,26.989502,10.1439819z"
		/>
	<path d="M25.3137207,22.5916138c0.0310059,0.057373,0.1757812,0.0534058,0.2680054,0.0777588
		c0.0270996-0.1446533,0.0464478-0.2907715,0.0582886-0.437561c0.0023804-0.0640869-0.0455322-0.1851196-0.0761108-0.1868896
		c-0.3032837-0.0179443-0.6077881-0.0164185-0.9716797-0.0037231c-0.0750122,0.1044922-0.1299438,0.2221069-0.1618042,0.3466797
		c0.0518799,0.013916,0.135498,0.0554199,0.1508789,0.0377197C24.9359741,22.0161743,25.1265259,22.2442017,25.3137207,22.5916138z"
		/>
	<path d="M23.9797974,21.3391724c-0.0006714,0.1663208,0.008606,0.3323975,0.027832,0.4976196
		c0.1005859-0.1010742,0.2005615-0.2028198,0.302002-0.3031006c0.0600586-0.0592651,0.1224976-0.116272,0.1838989-0.1743774
		c-0.0969238-0.0394897-0.1938477-0.0790405-0.3289185-0.1401978
		C24.0750122,21.2446289,23.9821777,21.2896729,23.9797974,21.3391724z"/>
	<path d="M17.9946899,7.7275391c0.1264038-0.0332031,0.2415161-0.0997925,0.3331909-0.1928711
		c0.0114136-0.0205078-0.0622559-0.0882568-0.15625-0.1175537c-0.3876343-0.1016846-0.7116089-0.2327271-1.0450439-0.3322754
		c-0.1503906-0.0288696-0.3041992-0.0363159-0.456665-0.0221558c-0.0324097,0.000061-0.0648193,0.0380249-0.0971069,0.0584717
		c0.0305786,0.039856,0.0665894,0.0752563,0.1068726,0.1051636c0.3091431,0.1674194,0.6240234,0.3242798,0.9301147,0.4967651
		C17.7354126,7.7591553,17.8684082,7.7606812,17.9946899,7.7275391z"/>
	<path d="M25.8029175,12.769104c-0.0527954,0.0471191-0.1101074,0.0888672-0.1708984,0.1248779
		c-0.1503906,0.1036987-0.4417114,0.2568359-0.4249878,0.3078003c0.1032715,0.3150024,0.3775635-0.0998535,0.562561,0.0876465
		c0.0322266,0.0324707,0.1995239-0.0683594,0.3043213-0.1075439C25.9910278,13.0313721,26.083313,12.7841187,25.8029175,12.769104z"
		/>
	<path d="M26.3480225,10.9830933c-0.0130005-0.0957642-0.0262451-0.1914673-0.0558472-0.3471069
		c-0.0792847-0.1867676-0.1419678-0.3135986-0.2047729-0.4406128c-0.0172119,0.1486206-0.0443726,0.296936-0.0474854,0.4457397
		c-0.0056152,0.081604,0.0178833,0.1625977,0.0664673,0.2283936C26.1795044,10.9215088,26.2612915,10.960022,26.3480225,10.9830933z
		"/>
	<path d="M24.7075806,10.2885132c-0.0810547-0.2965088-0.3516846-0.3148804-0.6777954-0.1773071
		c-0.0800781,0.0523682-0.0943604,0.1138916-0.12146,0.1201172c-0.3929443,0.0901489-0.2877197,0.3441772-0.194519,0.5892944
		c0.0180054,0.0473633,0.0701904,0.1116943,0.109314,0.1134644c0.0283813-0.0025024,0.0557861-0.0117798,0.079895-0.0271606
		c0.0239868-0.0153198,0.0440063-0.0363159,0.0581665-0.0610352c0.0444336-0.1048584,0.0541382-0.223999,0.0949097-0.3308105
		c0.0665283-0.1741943,0.1712036-0.2902832,0.359314-0.1325684c0.1021118,0.0856934,0.1843262,0.1947632,0.2852173,0.2822876
		c0.1175537,0.1036987,0.2427979,0.1986084,0.3743896,0.2838745c0.0343018,0.0218506,0.1066895-0.0164795,0.1615601-0.0270996
		c-0.0233765-0.0387573-0.0373535-0.0956421-0.0716553-0.1134644c-0.1110229-0.0455933-0.210022-0.1162109-0.2893066-0.2062988
		c-0.0794067-0.0900879-0.1367798-0.1973267-0.1680298-0.3132324V10.2885132z"/>
	<path d="M26.5825806,28.2080688c0.0067139,0.0476074,0.0350952,0.0569458,0.0635376,0.0662231
		C26.6320801,28.239502,26.6182251,28.2047729,26.5825806,28.2080688z"/>
	<path d="M26.1433716,17.4055176c-0.0115967-0.1140137,0.140625-0.3527222-0.1724854-0.2073364
		c-0.1936035,0.0899048-0.3839722,0.1871948-0.5716553,0.2888184c-0.0437012,0.0236816-0.1077271,0.0888062-0.0996094,0.1173096
		c0.0894775,0.3200684,0.1865845,0.6383667,0.295105,0.9525146c0.0150757,0.0437622,0.1020508,0.0628052,0.1559448,0.0932007
		c0.0196533-0.0780029,0.02771-0.1584473,0.0241089-0.2387085c-0.0966797-0.2438354,0.1824951-0.5018921-0.1417847-0.6415405
		c-0.0637207-0.0274658-0.0999756-0.1184692-0.1488037-0.1801758c0.0942383-0.0267944,0.1923828-0.0363159,0.2900391-0.0283203
		c0.112854,0.0489502,0.222168,0.1057129,0.3270874,0.170105v-0.000061
		c0.0186768,0.0081787,0.1010742-0.0582275,0.0993652-0.0869141C26.196106,17.5639038,26.1516724,17.4863281,26.1433716,17.4055176z
		"/>
	<path d="M25.5634155,29.1824951c-0.0493164,0.2111816-0.0350952,0.4321899,0.0408936,0.6353149
		c0.0142822,0.0244751,0.1098022,0.0014648,0.189209-0.0375977c-0.0737915-0.3425293-0.0162964-0.7001953,0.1610718-1.0023193
		c0.0209961-0.0460815,0.0344849-0.0952759,0.0400391-0.1455688c-0.0383301-0.0013428-0.0865479-0.0184326-0.1133423-0.0014038
		C25.7233276,28.7794189,25.6126709,28.9713135,25.5634155,29.1824951z"/>
	<path d="M26.1939087,27.7357788c0.0637207-0.001709,0.1259155-0.0195923,0.1807861-0.052002
		c-0.0140991-0.0238037-0.0391235-0.069397-0.0408936-0.0684814C26.2739258,27.6367798,26.2241211,27.6798096,26.1939087,27.7357788
		z"/>
	<path d="M24.7767944,24.2429199c-0.0285034-0.0484009-0.2105103-0.0220337-0.3179932-0.0046997
		c-0.3173218,0.0506592-0.4144897,0.2738037-0.3984985,0.6231079c0.0718994,0.2831421,0.1759033,0.282959,0.2836914,0.1030884
		c0.0776367-0.1716309,0.1638184-0.3392334,0.2583008-0.5021973v0.000061
		C24.6583862,24.3875122,24.8834229,24.4227905,24.7767944,24.2429199z"/>
	<path d="M25.6390991,26.3637695c-0.3275146-0.1259766-0.2620239,0.2132568-0.3944092,0.3156128
		c0.0806885,0.0356445,0.161499,0.0712891,0.2805176,0.12854c0.0671997-0.0485229,0.1212158-0.1130981,0.1572876-0.1877441
		C25.7426147,26.5214844,25.8239746,26.4349976,25.6390991,26.3637695z"/>
	<path d="M24.9526978,29.3040771c-0.0759888,0.1157227-0.1430664,0.2369385-0.2006226,0.362793
		c-0.0419922,0.1398315-0.0753784,0.2821045-0.0997925,0.4261475c0.1470337-0.0710449,0.2825928-0.1636353,0.4022217-0.2747192
		C25.2039795,29.6312256,25.2941284,29.4063721,24.9526978,29.3040771z"/>
	<path d="M25.8363037,24.9141846c0.013916,0.0349121,0.0278931,0.0697021,0.0634155,0.0662231
		C25.8930054,24.9328003,25.864624,24.9235229,25.8363037,24.9141846z"/>
	<path d="M28.3394775,24.6738281c-0.1156616,0.0777588-0.2478027,0.1279907-0.3859863,0.1464844
		s-0.2788086,0.0047607-0.4108887-0.039917c-0.0549927-0.0180664-0.1328735,0.0336914-0.2003174,0.0532837
		c0.0267334,0.0671387,0.0628052,0.1300049,0.1071167,0.1870117c0.2774048,0.2675171,0.5708008,0.0917358,0.8546753,0.0133057
		c0.1148071-0.0274048,0.2189941-0.0883179,0.2991943-0.1749268v-0.000061l0,0l0.0274048-0.2681885
		c0.0237427,0.0033569,0.0462646,0.008606,0.0696411,0.0125732c0-0.000061,0.000061-0.000061,0.000061-0.0001221l0,0
		c0.0032959-0.0153198,0.0057983-0.0308228,0.0074463-0.0464478c-0.0032349-0.2463989-0.2164307-0.2488403-0.3751221-0.269104
		v-0.0001221C28.260376,24.4226074,28.7202759,24.4686279,28.3394775,24.6738281z"/>
	<path d="M27.4755859,21.2941284c0.0072021,0.0315552,0.1217041,0.0738525,0.1293335,0.0646973
		c0.0407715-0.0499268,0.1043091-0.1454468,0.0863037-0.1692505c-0.1047974-0.1791992-0.2452393-0.335083-0.4125366-0.4578857
		c-0.2312622-0.1218872-0.4486694-0.491394-0.7641602-0.0960083C26.8677979,20.8585205,27.3587036,20.7772217,27.4755859,21.2941284
		z"/>
	<path d="M27.6950073,23.9321289c-0.0422363,0.1052856-0.0549316,0.2200928-0.0369873,0.3320923
		c0.0595703,0.1842041,0.1643677,0.112854,0.2706909-0.038147c0.0275879-0.0942993,0.0213623-0.1551514,0.0415039-0.2055054
		c0.0516968-0.093689,0.0697021-0.2021484,0.0510864-0.3074951c-0.0184937-0.1052856-0.0725708-0.2010498-0.1531982-0.2713623
		C27.8093262,23.6049194,27.7421265,23.765625,27.6950073,23.9321289z"/>
	<path d="M28.7003174,24.6033936c-0.0036011,0.0935669-0.0377197,0.1833496-0.0970459,0.2556152v0.000061l0,0l-0.0001831,0.0012207
		c0.100708-0.0554199,0.1964111-0.1193848,0.2861328-0.1912842c-0.0571899-0.0358887-0.1217041-0.0582886-0.1888428-0.0657349
		c0,0.000061,0,0.000061,0,0.0001221H28.7003174z"/>
	<path d="M23.7376099,30.928894c-0.0324097,0.1055298-0.0552979,0.2138062-0.0684814,0.3234253
		c0.1015015-0.0548096,0.197876-0.1185303,0.288147-0.1901245c0.1086426-0.093689,0.2228394-0.1807861,0.3419189-0.2606812
		c-0.1358032,0.0177612-0.272522,0.0307617-0.4069824,0.055481C23.8361816,30.8673096,23.7526855,30.8900757,23.7376099,30.928894z"
		/>
	<path d="M20.0628052,30.4974976v-0.0001221c0.012085,0.0402222,0.0092773,0.0834351-0.0079346,0.1217041
		C20.0427246,30.5789185,20.0455933,30.5357056,20.0628052,30.4974976z"/>
	<path d="M18.435791,25.4376831H18.43573c0.0686646,0.022522,0.1411743,0.0309448,0.2130737,0.0248413l-0.0042114-0.0831299
		C18.5715942,25.383728,18.5004272,25.4035034,18.435791,25.4376831z"/>
	<path d="M19.4365845,29.8652954c0.0780029,0.0106201,0.1384888-0.0227051,0.1542358-0.0079956
		c0.1997681,0.1859741,0.2317505-0.1342773,0.3721924-0.121521c0.0084839,0.0007324,0.0200806-0.0335083,0.0302734-0.0513916
		c-0.1129761-0.0003662-0.225769,0.0090332-0.3371582,0.0283203C19.567688,29.7371216,19.4901733,29.7908936,19.4365845,29.8652954z
		"/>
	<path d="M19.8865967,27.1702881c-0.0540161-0.0305786-0.1079712-0.0874023-0.1619873-0.0874023
		c-0.1486206-0.0211792-0.3001099-0.0053711-0.440979,0.0462036c-0.1410522,0.0515137-0.2670288,0.137085-0.3668213,0.2490845
		c-0.0750122,0.0653076-0.1367798,0.1443481-0.1821899,0.2327271c0.0496826,0.0114136,0.1083984,0.0460205,0.147583,0.0307007
		c0.3140259-0.1226807,0.6248169-0.253479,0.9345703-0.3862305C19.8466797,27.2426147,19.8635864,27.1994019,19.8865967,27.1702881z
		"/>
	<path d="M17.9498901,26.1995239c-0.0598755,0.0214844-0.1096802,0.0644531-0.1397705,0.1204834
		c0.0636597-0.001709,0.1258545-0.0195923,0.1807861-0.0518799C17.9766846,26.2442017,17.9517212,26.1986084,17.9498901,26.1995239z
		"/>
	<path d="M18.2723999,25.2017212c-0.338623,0.1789551-0.6713867,0.3692627-1.00177,0.5632935
		c-0.0168457,0.0097656-0.0129395,0.0769043,0.0004883,0.1096802c0.0133057,0.0327148,0.062561,0.0839233,0.0751953,0.0784912
		c0.1101074-0.0304565,0.2121582-0.0845947,0.2991943-0.1585083c0.2139893-0.208252,0.4819946-0.3526611,0.7736816-0.4168091
		C18.3634033,25.2966919,18.2883911,25.1934204,18.2723999,25.2017212z"/>
	<path d="M22.6906128,29.9085083c-0.0697021-0.0332031-0.1915894,0.0430908-0.2817993,0.1002808
		c0.0617065,0.0657349,0.1380005,0.1157837,0.2227783,0.1464233c0.1032104,0.0166626,0.2075195,0.0244751,0.3120117,0.0231934
		C22.861084,30.0845947,22.7943115,29.9578857,22.6906128,29.9085083z"/>
	<path d="M21.8837891,29.5097046c0.0549927,0.0819702,0.1196289,0.1571045,0.192627,0.2235718
		c0.0971069,0.0831299,0.2030029,0.1553955,0.3157959,0.2156372C22.2819214,29.694519,22.2537842,29.3845215,21.8837891,29.5097046z
		"/>
	<path d="M22.0625,30.6201782v0.0001221c0.0383301,0.0172119,0.0814819,0.0200195,0.1217041,0.0078735
		C22.145874,30.6110229,22.1027222,30.6082153,22.0625,30.6201782z"/>
	<path d="M23.2570801,31.6751099c-0.0158081-0.1002808-0.0447998-0.197998-0.0861816-0.2905884
		c-0.0477905-0.0657349-0.114502-0.1154175-0.1912231-0.142395c-0.043396-0.0149536-0.1087036,0.0337524-0.1640625,0.053894
		c0.062561,0.0521851,0.1188965,0.1115723,0.1676636,0.177002c0.0768433,0.1316528,0.1343384,0.2747803,0.2073975,0.4088745
		c0.0046387,0.0084229,0.0753174-0.0192261,0.1153564-0.0299683l-0.0490112-0.1768188H23.2570801z"/>
	<path d="M21.6317749,31.0814209c-0.0906982-0.0007935-0.1801758-0.1289062-0.2702637-0.1998291
		c0.0651855-0.0609741,0.1381836-0.1130981,0.2171021-0.1549683c0.1538696-0.0579224,0.3165894-0.0922241,0.4672852-0.1661377
		c-0.3195801-0.0628052-0.4248047-0.2002563-0.2550049-0.4940796c0.0256958-0.0444946,0.0025024-0.1173096,0.0018311-0.1768799
		c-0.0494995,0.0293579-0.1188965,0.0467529-0.1453247,0.090271c-0.1392822,0.229126-0.2145996,0.5438232-0.4136963,0.6774292
		c-0.2283325,0.1531982-0.1275024,0.286499-0.0690308,0.3960571c0.0361328,0.0532227,0.0825195,0.0985107,0.1364136,0.1335449
		c0.053833,0.0349731,0.1141357,0.0588989,0.1774292,0.0702515c0.208374,0.0327148,0.4202881,0.036499,0.6297607,0.0115356
		c0.076416-0.0081177,0.1416016-0.1193237,0.2119141-0.1835327c-0.0704956-0.0410767-0.145874-0.1229858-0.2103882-0.1151123
		C21.9528809,31.0167236,21.7932129,31.0540161,21.6317749,31.0814209z"/>
	<path d="M21.9401855,32.0397949c0.0288086-0.0510254-0.0021973-0.0852661-0.0332031-0.1196899
		C21.8980713,31.9655151,21.8892212,32.0109863,21.9401855,32.0397949z"/>
	<path d="M21.3348999,29.6326294c0.1184082-0.2688599,0.3890991,0,0.5322876-0.1827393
		c-0.192688-0.1165161-0.3665771-0.2125854-0.3886719-0.4472046c-0.0748291,0.1411133-0.1643066,0.2739258-0.2670288,0.3963013
		c-0.1046143,0.1030884-0.3031006,0.2573242-0.3751831,0.2208252c-0.2476807-0.1251831-0.3215942,0.0067749-0.4039307,0.180481
		c-0.0855713,0.1708984-0.1601562,0.347229-0.2231445,0.527832c0.1886597-0.1383057,0.3375854-0.2834473,0.5088501-0.394043
		C20.90979,29.8104248,21.2133179,29.9088135,21.3348999,29.6326294z"/>
	<path d="M36.0493164,15.4470825c0.0001831,0.0021362,0.052063,0,0.079895-0.000061
		c-0.0006104-0.0636597-0.0174561-0.1262207-0.0485229-0.1816406
		C36.0480957,15.3199463,36.0369263,15.3847046,36.0493164,15.4470825z"/>
	<path d="M34.1152954,18.5009155c-0.109314,0.0275879-0.2111816,0.0791016-0.2982178,0.1506958
		c-0.1021729,0.0975952-0.1132812,0.3353882-0.348877,0.1870728c-0.0078125-0.0048828-0.0704956,0.0473022-0.0770264,0.0790405
		c-0.0057983,0.0291748,0.0310059,0.0961914,0.0472412,0.0955811c0.1168823-0.0081177,0.2329712-0.0252075,0.34729-0.0509033
		c0.0601807-0.010498,0.1190796-0.0275269,0.1757202-0.0505981c0.0970459-0.0629883,0.3294678,0.0228882,0.2608643-0.2236328
		C34.2026978,18.6177979,34.1306763,18.4959717,34.1152954,18.5009155z"/>
	<path d="M33.1538086,19.421814c0.0255737,0.0474854,0.2039795,0.0126953,0.3504639,0.0374146
		c0.1490479,0.0053711,0.2981567-0.005249,0.4447021-0.0317383c0.0108032-0.0018921,0.0157471-0.1068115,0.0126343-0.1077881
		c-0.203186-0.0479126-0.4096069-0.0808105-0.6176147-0.0985107C33.2453003,19.2171021,33.0549316,19.2384033,33.1538086,19.421814z
		"/>
	<path d="M33.4191895,19.9661255c0.0499268,0.0839844,0.1229858,0.1517944,0.2106323,0.1950684
		c0.0755615,0.0142212,0.1529541,0.0170288,0.2293701,0.0083008c-0.0422974-0.059082-0.0722046-0.1436768-0.1296997-0.171814
		C33.6337891,19.9481812,33.5228882,19.9368896,33.4191895,19.9661255z"/>
	<polygon points="33.9616089,19.3197021 33.9616089,19.3195801 33.9616089,19.3197021 	"/>
	<path d="M32.3096313,21.0791016c0.0685425,0.022522,0.1410522,0.0308838,0.2130737,0.0247192l-0.0042114-0.0830078
		C32.4454956,21.0250854,32.3742065,21.0449219,32.3096313,21.0791016z"/>
	<path d="M32.432373,20.550293c0.046936,0.0325317,0.1166382,0.1030273,0.1365356,0.0910034
		c0.0847168-0.0496216,0.1585693-0.1154785,0.2174683-0.1939087c0.012146-0.0288696,0.0134277-0.0612183,0.0038452-0.0910034
		c-0.0096436-0.0297852-0.029541-0.0551758-0.0560913-0.0715942C32.6246948,20.362793,32.5236206,20.4517212,32.432373,20.550293z"
		/>
	<path d="M18.0593262,28.7322998c-0.4077148,0.0430908,0.0775757,0.2827759-0.1431274,0.3419189
		c0.0415039,0.0166016,0.109375,0.0578613,0.1201782,0.0462036C18.1436157,29.0048218,18.3497314,28.9013062,18.0593262,28.7322998z
		"/>
	<path d="M32.3453979,21.3265991c-0.072998,0.0042114-0.1442261,0.0241089-0.2089233,0.0582275
		c0.0686035,0.0224609,0.1411133,0.0308838,0.2130127,0.0247803l-0.0040894-0.0831299V21.3265991z"/>
	<polygon points="36.0806274,15.2651978 36.0806885,15.2653809 36.0806885,15.2653198 	"/>
	<path d="M39.5123901,14.5601196c-0.1643066-0.5779419-0.5274658-1.0791016-1.0255127-1.4151001l-10.6737061-7.175293
		c-0.3860474-0.2595215-0.7642822-0.5301514-1.1424561-0.8007812l-0.6123047-0.4353027
		c-0.7470093-0.5175781-1.6362915-0.7903442-2.5449219-0.7804565c0.0067139-0.7149048-0.1923828-1.4165649-0.5734863-2.0214233
		s-0.9282227-1.0872803-1.5759277-1.3898315c-2.6882935-1.4624023-5.303772,0.4308472-6.041687,1.045166l-0.0717773,0.0599976
		c-0.2296143,0.190918-0.4588013,0.3821411-0.6918335,0.5670166L3.6810913,10.8380127
		c-0.7012329,0.5487061-1.3337402,1.1799927-1.883606,1.8803101c-0.6483765,0.772583-1.0957642,1.6934814-1.3023682,2.6807861
		c-0.0009766,0.0056152-0.0048828,0.0097656-0.0057983,0.0155029l0.0029907,0.0004883
		c-0.0026855,0.0169067-0.0065308,0.0339966-0.0089722,0.0509033H0.4824829l0.0009155,0.0001221
		c-0.0122681,0.0849609-0.0205688,0.1691895-0.0264282,0.2528687c-0.0004272,0.0032349-0.0025024,0.0056763-0.0028687,0.0090332
		l-0.3398438,3.1095581c-0.1881714,0.6290283-0.1629028,1.3027344,0.0718384,1.9158936
		c0.2347412,0.6132202,0.6658325,1.1315918,1.2259521,1.4742432c0.121582,0.081665,0.2365723,0.1519775,0.3551025,0.2280884
		c-0.3824463,0.5263062-0.7142944,1.0875854-0.9910889,1.6762695c-0.4362793,0.871521-0.6494751,1.8376465-0.6205444,2.8118286
		c0.0003052,0.0053711-0.0022583,0.0101929-0.0018311,0.015564l0.0027466-0.0001831
		c0.0011597,0.0151978,0.0014648,0.0307007,0.0028076,0.0458374l-0.0009766,0.000061l0.0012207,0.0037231
		c0.0073853,0.079895,0.0181885,0.1582031,0.0309448,0.2354736c0.0004272,0.0036011-0.0011597,0.0068359-0.0007324,0.010437
		l0.3734131,2.9666748c-0.0354004,0.6356201,0.1404419,1.2650757,0.500061,1.7905273
		c0.3596191,0.5252686,0.8828735,0.9169922,1.4882812,1.1139526c1.4747925,0.5814209,3.0308228,0.9309082,4.6126099,1.0359497
		c0.7097778,0.8740845,1.5924072,1.5921021,2.5925903,2.1091919c1.8463745,1.0643921,10.350769,5.5510864,13.9217529,7.4306641
		c0.503418,0.2637329,1.0789795,0.3565063,1.6398926,0.2644043h0.0001831l0.0046387-0.0009155
		c0.3685913-0.0432739,0.722168-0.1710815,1.0332642-0.373291c0.3112183-0.2022705,0.5715332-0.4735718,0.7607422-0.7929077
		c1.8208618-2.8237915,6.3400879-10.144104,8.9699707-17.1104736c0.2390137-0.6456909,0.4193115-1.3117065,0.5386963-1.9899292
		c0.2097168-0.2970581,0.4197388-0.5943604,0.6213989-0.892395c1.0997925-1.6421509,1.7915039-3.5233765,2.017334-5.4868774
		l0.1200562-1.0164795C39.6314087,15.755188,39.6766968,15.1378784,39.5123901,14.5601196z M2.0652466,19.2830811
		c0.0137939-0.0507812,0.0235596-0.1026001,0.0292969-0.1549072l0.0519409-0.4752808
		c0.0742798,0.0452271,0.1491089,0.0794067,0.2235718,0.1212769c0.1021729,0.0575562,0.2038574,0.114624,0.3062744,0.1661987
		c0.124939,0.0630493,0.2493286,0.1193237,0.3740845,0.1739502c0.1015625,0.0444946,0.2026978,0.0895996,0.303894,0.1289062
		c0.1254272,0.0484619,0.2495728,0.0901489,0.3740845,0.1311646c0.0993652,0.0327148,0.1984253,0.0671387,0.2969971,0.0953369
		c0.1251831,0.0357666,0.2480469,0.0646973,0.3713989,0.093689c0.0949707,0.0221558,0.1900635,0.046875,0.2836914,0.0653687
		c0.1254272,0.0248413,0.2472534,0.0427856,0.369812,0.0613403c0.0875854,0.0132446,0.1762085,0.0293579,0.262146,0.0395508
		c0.1275635,0.0153198,0.250061,0.024231,0.3733521,0.0336304c0.0756836,0.0056763,0.1533203,0.0144043,0.2271729,0.0181885
		c0.1352539,0.0067749,0.2636108,0.0078125,0.3921509,0.008606c0.0562134,0.0004272,0.1155396,0.0036011,0.1703491,0.0028687
		c0.1444702-0.0015869,0.2805176-0.0080566,0.4143066-0.015686l-0.8754272,2.5732422
		c-0.0610962-0.0205078-0.1298828-0.0457153-0.1973267-0.0700073c-0.0863647-0.0311279-0.1713867-0.0613403-0.2677002-0.098938
		c-0.0914307-0.0355835-0.1954346-0.0806885-0.2954102-0.1226807c-0.1536255-0.0645752-0.3156738-0.1373291-0.4883423-0.2180786
		c-0.1346436-0.0630493-0.269043-0.1257935-0.4146729-0.199707c-0.1121216-0.0570068-0.2336426-0.1246948-0.3518066-0.1885986
		c-0.4525757-0.2440186-0.9389038-0.5274048-1.4705811-0.8848877c-0.2234497-0.1177979-0.3948975-0.3148193-0.4805908-0.5525513
		C1.9622192,19.7775269,1.9683838,19.5164185,2.0652466,19.2830811z M3.2520142,31.2528076
		c-0.2260132-0.0562134-0.4224854-0.1956787-0.5499878-0.390625c-0.1275024-0.1948853-0.1766357-0.4307861-0.1375732-0.6604004
		c0.001709-0.0524902-0.0007935-0.1051025-0.0074463-0.1571655L2.5093994,29.664917
		c0.0754395,0.0264893,0.1451416,0.0473022,0.2191162,0.0722656c0.1130981,0.0383301,0.2247925,0.0756226,0.3344116,0.1104126
		c0.1335449,0.0424194,0.2630005,0.081604,0.3912964,0.1193237c0.1037598,0.0304565,0.2067261,0.060791,0.3070068,0.0882568
		c0.1255493,0.0345459,0.2460327,0.0654297,0.3658447,0.09552c0.0938721,0.0234985,0.1879272,0.0476074,0.2783203,0.0687256
		c0.1179199,0.0274658,0.2297363,0.0511475,0.3414917,0.074585c0.083313,0.0175171,0.1677856,0.0358887,0.2475586,0.0512695
		c0.1102295,0.0212402,0.2131958,0.0386963,0.3165894,0.0562134c0.0715942,0.012085,0.1453857,0.0256348,0.213623,0.0361328
		c0.1039429,0.0159912,0.1989746,0.0282593,0.2949829,0.0407715c0.0582275,0.0075073,0.119873,0.0167236,0.1751709,0.0231323
		c0.1004639,0.0115967,0.1907959,0.0198975,0.28125,0.0281982c0.0410767,0.0036621,0.0866089,0.0089722,0.1255493,0.012085
		l0.0305786,0.0023193l0.1829834,1.5633545C5.4639282,31.9581909,4.3348389,31.6712036,3.2520142,31.2528076z M8.2950439,29.2907104
		h0.000061c-0.0129395-0.1110229-0.0485229-0.2181396-0.1044312-0.3148193s-0.1311035-0.1809082-0.2208252-0.2473755
		C7.8668213,28.6535034,7.7494507,28.6005249,7.625,28.572876c-0.1243896-0.0275879-0.2531738-0.0292969-0.3782349-0.0048828
		c-0.2285156,0.0084229-0.4572754,0.0018921-0.6849365-0.0195923c-1.2786255-0.1254883-2.5339355-0.4263916-3.7304688-0.8942871
		c-0.1013794-0.0372925-0.1984253-0.0855103-0.2894287-0.1437378c-0.0238647-0.0153809-0.0408325-0.0310059-0.0613403-0.0465698
		c-0.0474243-0.0344849-0.0913086-0.0737915-0.1307983-0.1173096c-0.0133057-0.0153198-0.0265503-0.0303955-0.0374756-0.0454102
		c-0.0369873-0.0484619-0.067688-0.1015015-0.0915527-0.1575928c-0.0405273-0.1038208-0.0653687-0.2130737-0.0736694-0.3242798
		c-0.0100098-0.1152954-0.0418701-0.2319336-0.0437622-0.3475952c0.0083618-0.1298218,0.0409546-0.256897,0.0961304-0.3746948
		c0.0418701-0.1126099,0.0599976-0.2294312,0.1000366-0.3410034c0.0968628-0.2695923,0.1817017-0.5386963,0.2999268-0.8008423
		c0.2440796-0.53125,0.5435181-1.0354004,0.8933716-1.5039673c0.1480713,0.0797119,0.3000488,0.1519165,0.4553833,0.2163086
		c0.1220093,0.0467529,0.2288818,0.1190796,0.3521118,0.1656494c0.175415,0.0661011,0.3458862,0.1428223,0.5189209,0.2102051
		c0.0299683,0.0117188,0.0588379,0.0230103,0.0880737,0.0341187c0.175415,0.0670166,0.3389893,0.1262207,0.4882202,0.1760864
		l0.022583,0.0078125c0.161377,0.0537109,0.3120728,0.1011353,0.4398804,0.1373901
		c0.0244751,0.007019,0.081665,0.1854248,0.0952759,0.2138062c0.039856,0.0831299,0.0821533,0.1650391,0.1268921,0.2457275
		c0.1071777,0.1928101,0.2242432,0.3798828,0.350769,0.5604858c0.2876587,0.4304199,0.6151123,0.8328247,0.9779663,1.2020264
		c0.1040039,0.1015015,0.2296753,0.1879883,0.328064,0.2937012C7.8182983,27.001709,7.892395,27.09198,7.980835,27.1754761
		c0.0905151,0.0856323,0.2052002,0.1918335,0.3309937,0.3074951c0.026001,0.0239258,0.0507812,0.046814,0.0782471,0.0720215
		c0.1246948,0.1143188,0.2630615,0.2402954,0.4151001,0.3779907c0.0410156,0.0372314,0.0848999,0.0768433,0.1278076,0.1155396
		c0.151062,0.1364746,0.3103638,0.2800903,0.4827881,0.4347534l0.0517578,0.0466309
		c0.1820068,0.163269,0.3781738,0.338501,0.5803833,0.5189819c0.0610962,0.0545044,0.1212769,0.1083374,0.18396,0.1641846
		c0.2006226,0.178833,0.4089355,0.3641357,0.6248169,0.5560303c0.0614014,0.0545654,0.1242065,0.1101685,0.1867065,0.1657715
		c0.144104,0.1279297,0.288208,0.2557373,0.4324341,0.383606c0.1204834,0.1066895,0.2494507,0.1851196,0.3643799,0.298645
		c0.0148926,0.0134888,0.0280151,0.0288696,0.0390015,0.0456543c0.0087891,0.0147095,0.0144043,0.031189,0.0219727,0.0466309
		c0.0306396,0.0504761,0.0726929,0.0930786,0.1230469,0.1239624c0.2069702,0.151123,0.3950806,0.3199463,0.5873413,0.4899292
		l0.067627,0.0596924c0.7921753,0.699707,1.6204834,1.4291992,2.442627,2.1520996
		c-0.0701294-0.0374146-0.1403198-0.0747681-0.2097168-0.1118774c-0.1652832-0.0881348-0.329895-0.1760254-0.4907837-0.2620239
		c-0.1769409-0.0944824-0.3485107-0.1864014-0.5192261-0.277771c-0.1040039-0.0557251-0.2113037-0.1130371-0.3126831-0.1674194
		c-0.2659912-0.1425781-0.5217896-0.2800293-0.7672119-0.4122314c-0.100708-0.0541992-0.1928101-0.1040039-0.2896118-0.15625
		c-0.1473999-0.0796509-0.293396-0.1585083-0.4309082-0.2329102c-0.0999756-0.0541992-0.1931763-0.1049194-0.2875977-0.156189
		c-0.1286621-0.0699463-0.2526855-0.1375122-0.369873-0.2015991c-0.0787964-0.0431519-0.1558228-0.0852051-0.229126-0.1255493
		c-0.1411743-0.0673828-0.2786865-0.1422729-0.4119873-0.2243652c-0.1452026-0.1035156-0.2971191-0.1973267-0.4547119-0.2807007
		c-0.1260986-0.0523071-0.2493896-0.1112061-0.3693848-0.1765137c-0.0882568-0.059021-0.1686401-0.1314697-0.2590332-0.190979
		c-0.2039795-0.1343384-0.4036255-0.2753906-0.5956421-0.4263306c-0.2436523-0.1849976-0.4679565-0.394165-0.6693726-0.6243896
		C8.4153442,29.4611816,8.3018188,29.3560791,8.2950439,29.2907104z M7.697876,23.6143188l0.2468872-0.7258301
		c0.147522,0.1864014,0.3079834,0.3623047,0.4801025,0.5263062c1.6181641,1.5286255,9.175354,8.1499023,12.3490601,10.9254761
		c0.157959,0.1352539,0.3308716,0.2520142,0.5153809,0.3480225c0.0418091,0.0223999,0.083374,0.0429077,0.1260986,0.0629883
		l-0.1884766,1.4768066c-2.8606567-2.5028076-10.3149414-9.03479-11.8724976-10.5065918
		C8.6600952,25.1434937,8.0955811,24.4254761,7.697876,23.6143188z M10.7556152,34.538208
		c-1.4824219-0.8547363-1.928894-1.4669189-2.0337524-1.6395874l-0.0764771-0.6528931
		c0.2121582,0.1392822,0.4367065,0.2807007,0.6897583,0.4265747c1.8404541,1.0610962,10.347229,5.5487671,13.9191284,7.4293213
		c0.1507568,0.0792847,0.3086548,0.144104,0.4716187,0.1934814c0.0523071,0.0158691,0.1055908,0.0202026,0.1583252,0.0327148
		c0.0127563,0.0029907,0.0255737,0.0050049,0.0383911,0.0078735l0.1405029,1.3076782
		C20.7893066,39.9193115,12.5150757,35.5526123,10.7556152,34.538208z M25.4716187,37.4002686
		c-0.1621094,0.2557373-0.3178101,0.499939-0.4537354,0.7108154c-0.0855103,0.1347046-0.2185669,0.2322388-0.3728027,0.2730103
		c-0.1540527,0.0408325-0.3179932,0.0220337-0.4588623-0.0527954c-0.1101074-0.0579224-0.2254028-0.1182861-0.3446045-0.1813965
		c0.0494995-0.0408936,0.0977783-0.0842896,0.1449585-0.1293945c0.0894165-0.0856934,0.1956177-0.1887207,0.2936401-0.2833252
		c0.0805054-0.0776978,0.15448-0.1486816,0.2407837-0.232605c0.1119995-0.1085815,0.2357788-0.2301636,0.3565063-0.3483887
		c0.0877075-0.0858154,0.1704102-0.1663818,0.2626953-0.2572021c0.1442871-0.1420898,0.2977905-0.2949829,0.4523315-0.4484863
		c0.0809937-0.0806274,0.1587524-0.1577148,0.2424927-0.241394c0.1657715-0.1658325,0.3380737-0.3397827,0.5134888-0.5170898
		c0.0827637-0.0838013,0.1640015-0.1657104,0.2487793-0.2520142c0.0789185-0.0800781,0.1520386-0.1531982,0.2324219-0.2354126
		c-0.2147827,0.3557129-0.4199219,0.690979-0.616394,1.0093384c-0.0576172,0.0933838-0.1122437,0.1811523-0.1680908,0.2709961
		c-0.1419067,0.2286987-0.2785034,0.4471436-0.4078369,0.6524658C25.5817261,37.225708,25.5247192,37.3165283,25.4716187,37.4002686
		z M25.989502,40.8475952l-0.0925293-0.8610229c0.0423584-0.0271606,0.0876465-0.0480957,0.128418-0.0777588
		c0.0718384-0.0565186,0.140625-0.1166992,0.2062988-0.1802368c0.0524902-0.0473022,0.1094971-0.0879517,0.1586914-0.1399536
		c0.1149902-0.1213989,0.2184448-0.2532349,0.3088379-0.3937988c0.1481934-0.2297363,0.31427-0.4900513,0.4926758-0.7719116
		c0.0681763-0.107605,0.1439209-0.2294312,0.2160034-0.3442383c0.117981-0.1878662,0.2354736-0.375061,0.3632812-0.5811768
		c0.0913086-0.1472168,0.1871338-0.303772,0.2828979-0.4597778c0.1233521-0.2008057,0.2468262-0.4026489,0.3769531-0.6172485
		c0.1036987-0.1709595,0.2091675-0.3462524,0.3164673-0.5258789c0.1331177-0.2219849,0.2672729-0.4478149,0.4055786-0.6817017
		c0.1115112-0.1887817,0.2228394-0.3781128,0.3372192-0.5742188c0.1453857-0.2490845,0.2927246-0.5038452,0.4418335-0.7644653
		c0.112793-0.1967163,0.2242432-0.390686,0.3389893-0.5932007c0.1629028-0.2875977,0.3273926-0.5838013,0.492981-0.8822021
		c0.1043091-0.1879883,0.2072144-0.3712769,0.3123779-0.5632935c0.2154541-0.3936157,0.4317017-0.7972412,0.6484375-1.2053833
		c0.0559082-0.1054077,0.1115112-0.2064209,0.1674805-0.3126221c0.0093994-0.0178833,0.0187988-0.03479,0.0281982-0.0527954
		C30.1350708,33.8963013,28.1552124,37.4290161,25.989502,40.8475952z M33.2039185,24.9561768
		c-0.0657959,0.0845337-0.1315918,0.1690063-0.1976318,0.253418c-0.2583008,0.3297119-0.5231934,0.6624146-0.7947998,0.9979858
		c-0.0415039,0.0512085-0.0824585,0.1030273-0.1239624,0.1541138c-0.3189087,0.3920288-0.6462402,0.7874146-0.9821167,1.1864014
		c-0.2224121,0.2637939-0.4448242,0.5250854-0.6674194,0.7841187c-0.0623779,0.0725098-0.1245117,0.1430054-0.1867676,0.2149658
		c-0.1813354,0.2092896-0.3623047,0.4169312-0.5430298,0.6227417c-0.078186,0.0888672-0.1560059,0.1764526-0.2340698,0.2645874
		c-0.1689453,0.1907959-0.3373413,0.3795776-0.5050049,0.5664062c-0.0715942,0.0797729-0.1433105,0.1596069-0.2147217,0.2385864
		c-0.1981812,0.2194214-0.3950806,0.435791-0.5905762,0.6489868c-0.0334473,0.036499-0.0671997,0.0737305-0.1005249,0.1099243
		c-0.4909058,0.5338745-0.9710083,1.0462036-1.4337158,1.5322876l-0.0333862,0.0349731
		c-0.225769,0.2369995-0.4472046,0.4678345-0.6643066,0.6923218l-0.0194092,0.0200806
		c-0.9024048,0.9328003-1.7189941,1.7488403-2.3966675,2.4128418l-0.0098267,0.0095825
		c-0.0783691,0.0767212-0.1481934,0.1444092-0.2226562,0.21698l0.1344604-1.0545654
		c0.1237183-0.0422974,0.2441406-0.0936279,0.3602905-0.1534424c0.0550537-0.0279541,0.1096191-0.0535889,0.1630249-0.0855713
		c0.1781006-0.1038818,0.3438721-0.2276001,0.4943848-0.3685913c0.1697998-0.1628418,0.3580933-0.3449097,0.5544434-0.5355835
		c0.0394897-0.0383301,0.0773926-0.0751343,0.1177979-0.114502c0.2016602-0.1964111,0.4137573-0.4042358,0.6386719-0.6265259
		c0.0319214-0.0314941,0.0648804-0.0643921,0.097229-0.0963135c0.2108765-0.2089844,0.4306641-0.4281616,0.6593018-0.6577759
		c0.0369873-0.0372314,0.0719604-0.0720825,0.1094971-0.1098022c0.2471924-0.2487793,0.5041504-0.5101318,0.7682495-0.7805786
		c0.0518188-0.0530396,0.1039429-0.1065063,0.1561279-0.1603394c0.2755737-0.2832031,0.5565186-0.5734863,0.8466797-0.8773804
		l0.0119019-0.0125122c0.2811279-0.2943726,0.5698242-0.600708,0.8618164-0.9127197
		c0.0609741-0.0651855,0.1213989-0.1294556,0.1828003-0.1953735c0.2921143-0.3135986,0.5881958-0.6347046,0.8881226-0.9633179
		c0.0516968-0.0567017,0.1036987-0.1143799,0.1557007-0.1715698c0.2805786-0.3092041,0.5634766-0.6242065,0.8484497-0.9450073
		c0.0425415-0.0477905,0.0844116-0.0944214,0.1270142-0.1425171c0.3077393-0.3477783,0.6166382-0.7019043,0.9266357-1.0623779
		c0.0641479-0.074585,0.1283569-0.149292,0.1923828-0.2243042c0.2863159-0.3344116,0.5722046-0.6727295,0.8577881-1.0148315
		C33.3579102,24.7537842,33.2835083,24.8536987,33.2039185,24.9561768z M37.545105,15.5375977
		c-0.2476196,0.4229126-0.5286865,0.8283081-0.7706909,1.2537842c-0.2111816,0.3911133-0.4508057,0.7662354-0.7167969,1.1224365
		c-0.2958984,0.3812866-0.6203003,0.7528076-0.8930054,1.1508789c-0.171936,0.2504272-0.2609253,0.5527954-0.4255981,0.8034058
		c-0.2175293,0.3308105-0.5043335,0.6220093-0.7330322,0.9472046c-0.1431885,0.2034912-0.277771,0.413269-0.4309082,0.6094971
		c-0.2872925,0.3416138-0.593689,0.6665039-0.9176636,0.9733887c-0.3192139,0.3251953-0.5245361,0.692627-0.8131104,1.0388794
		c-0.3369751,0.4042969-0.6773071,0.8058472-1.020874,1.2045288c-0.3325195,0.3856812-0.6751099,0.7628784-1.0134277,1.1434937
		c-0.2149048,0.2418213-0.4298096,0.4835815-0.6447754,0.7254028c-0.262146,0.2947998-0.4785156,0.6296997-0.7437134,0.9291992
		c-0.6455078,0.729126-1.3787231,1.3687744-2.0524292,2.0651245c-0.6604614,0.6824951-1.3283081,1.3578491-2.0036011,2.0258789
		c-0.4348755,0.4301147-0.8729858,0.8568726-1.3143921,1.2803955c-0.1276855,0.1239014-0.2974854,0.1951294-0.4754028,0.1994019
		c-0.1778564,0.0043945-0.3508911-0.0584106-0.4845581-0.1759033c-1.649231-1.4420166-8.9801025-7.8795166-9.0028076-7.8897705
		c-0.3151245-0.2234497-0.6029053-0.4831543-0.8575439-0.7736206c-0.5057983-0.4572754-1.0293579-0.8994141-1.5181885-1.3718872
		c-0.1809082-0.1749268-0.3617554-0.3500977-0.5516968-0.5151978c-0.1959229-0.1361084-0.37854-0.2904053-0.5455322-0.4606934
		c-0.2606812-0.31073-0.4710693-0.6603394-0.6234741-1.0362549c-0.2258911-0.685791,0.1062012-1.2888794,0.3225708-1.9249878
		c0.005249-0.0155029,0.0015869-0.0310669,0.0060425-0.0465698c0.0309448-0.1032104,0.0447998-0.2108154,0.0411377-0.3184204
		c-0.0004883-0.0114746,0.0031128-0.0230103,0.0022583-0.0344238c-0.0106201-0.1148682-0.0410767-0.2270508-0.0900879-0.331543
		c-0.0425415-0.072937-0.085083-0.1459351-0.1275635-0.2189331c-0.024353-0.0249634-0.0499268-0.0487671-0.0767212-0.071167
		c-0.0982056-0.1016235-0.2171631-0.1808472-0.348877-0.2322388c-0.1316528-0.0512695-0.2728882-0.0734863-0.4139404-0.0650635
		c-0.0152588,0.0008545-0.0290527,0.0059814-0.0442505,0.0075684c-0.031189,0.0037842-0.0621948,0.0090942-0.0928955,0.0161133
		c-0.0230103,0.0046997-0.0463257,0.0021973-0.0692139,0.008606c-0.0093994,0.0025635-0.0187988,0.005188-0.0284424,0.0083008
		c-0.2160034,0.0626831-0.4367065,0.1079712-0.6599731,0.135376c-0.3966064,0.0770874-0.802002,0.0985107-1.2044678,0.0637207
		c-1.1394653-0.0714111-2.2468872-0.4057007-3.2353516-0.9769287c-0.098938-0.0656738-0.1901245-0.142395-0.2717285-0.2285767
		c-0.0182495-0.0192261-0.0302734-0.0372314-0.0457764-0.0560303c-0.0459595-0.0536499-0.0857544-0.1123657-0.1187744-0.1748657
		c-0.0071411-0.0142822-0.0148926-0.0286865-0.020752-0.0424194c-0.0281982-0.0639038-0.0480957-0.1311035-0.059082-0.2000122
		c-0.0185547-0.1420898-0.0133057-0.2862549,0.015625-0.4265747c0.1710205-0.638916,0.4813843-1.2321167,0.9087524-1.7368774
		c1.0493164-1.3585205,2.5541382-2.3366089,3.8859863-3.3926392c1.3900757-1.1021118,2.800354-2.1873169,4.1169434-3.3828735
		c0.3319702-0.3014526,0.6594238-0.6083984,1.0039062-0.8955078c0.7053833-0.5878296,1.4766846-1.0884399,2.2321167-1.6079102
		C15,4.4005737,15.3776855,4.1337891,15.7410278,3.8482666c0.1808472-0.1421509,0.3582764-0.2888794,0.5303955-0.4416504
		c0.1929932-0.1953125,0.399292-0.3770142,0.6173706-0.5438843c0.1564941-0.137146,0.322998-0.2625122,0.49823-0.374939
		c0.5109863-0.2495728,1.0716553-0.3811035,1.6405029-0.3847046c0.6798706-0.0045776,1.3432007,0.2097168,1.8918457,0.611145
		c0.1555176,0.1090088,0.2876587,0.2478638,0.388855,0.4084473c0.0780029,0.1506958,0.1251831,0.3154297,0.138855,0.4845581
		c0.0137329,0.1691284-0.0062866,0.3392944-0.05896,0.5006104c-0.1113281,0.2722168-0.1940308,0.5552979-0.2468262,0.8446045
		c-0.0083008,0.1536255,0.0142212,0.307312,0.0664062,0.4519653s0.1329956,0.2773438,0.2374878,0.3901978
		s0.2305908,0.2035522,0.3709106,0.2666626c0.1401978,0.0631104,0.291687,0.0974121,0.4454956,0.1008301
		c0.3679199-0.0162354,0.7164307-0.1582031,1.0897217-0.1711426c0.4140625-0.0148926,0.8270874,0.0516357,1.2154541,0.1958008
		c0.2944336,0.1144409,0.5751343,0.2612915,0.8371582,0.4378662c0.2128906,0.1489868,0.4104004,0.3187866,0.5896606,0.507019
		c0.2196045,0.1861572,0.4550171,0.3527832,0.7034912,0.4980469c0.3175049,0.1920166,0.6177979,0.4110107,0.8978271,0.65448
		c0.2265625,0.1842041,0.4710083,0.3453979,0.7296753,0.4810181c0.2675171,0.1665649,0.5366211,0.3305054,0.8057251,0.4945068
		c0.2813721,0.1714478,0.5628052,0.3429565,0.8441162,0.5144653c0.7026978,0.4046021,1.3741455,0.8610229,2.0090942,1.3653564
		c0.1825562,0.1525879,0.3585815,0.3131714,0.546875,0.4588013c0.9263306,0.7160645,2.036377,1.1939697,2.9401855,1.9354858
		c0.2057495,0.1507568,0.4199219,0.289856,0.6414185,0.4165649c0.4301147,0.2767944,0.8364868,0.571228,1.2589722,0.8549194
		c0.1165161,0.0772095,0.1994019,0.1958008,0.2318115,0.3317261C37.6351318,15.2730103,37.614502,15.4161987,37.545105,15.5375977z"
		/>
	<path d="M34.3519897,17.4224243c-0.0648804,0.0080566-0.1207886,0.0918579-0.1801147,0.1420898
		c-0.1513672,0.1281738-0.2833862,0.3114014-0.4579468,0.3718872c-0.2488403,0.0482788-0.5001221,0.0827026-0.7527466,0.1027832
		c-0.1295776,0.0372314-0.2439575,0.1146851-0.326355,0.2214355c-0.0284424,0.0354614,0.0664673,0.1779785,0.1164551,0.2651978
		c0.0391235,0.0567017,0.0831909,0.1096802,0.131897,0.1582642c-0.0040894-0.0772705-0.0055542-0.1549072-0.0127563-0.2319946
		c-0.0184937-0.1973877,0.0859985-0.1900635,0.2589722-0.1135864c0.0819092,0.0339966,0.1658936,0.0626221,0.2515259,0.0855713
		c0.1320801-0.3569946,0.4475708-0.2955933,0.7218628-0.3223877c0.0906982-0.010376,0.1768188-0.0457153,0.2485352-0.1021118
		c0.0717773-0.0563965,0.1264038-0.1316528,0.1578979-0.2172852c0.0714722-0.1203613,0.1524658-0.2348633,0.2421875-0.3424072
		C34.6190796,17.4219971,34.4854126,17.4160767,34.3519897,17.4224243z"/>
	<path d="M35.3737183,14.911377c-0.100708,0.0862427-0.2109375,0.1606445-0.3284912,0.2218018
		c-0.1170044,0.1074219-0.2062988,0.241394-0.2606201,0.3907471c-0.0203247,0.0764771,0.0562744,0.1786499,0.0892944,0.2693481
		c0.0750732-0.0437622,0.1834717-0.069458,0.2191162-0.1347656c0.0424805-0.1124268,0.1131592-0.2120361,0.2053833-0.2891235
		s0.2026978-0.1290894,0.3209229-0.1508789c0.0473022-0.0067139,0.2265015-0.1088867,0.0598755-0.3032837
		C35.5239258,14.7338257,35.4813232,14.8139038,35.3737183,14.911377z"/>
	<path d="M34.9567871,18.163208c-0.0307007-0.0270996-0.0673828-0.0466919-0.1070557-0.0571289
		c-0.0722046-0.0159912-0.1466064-0.0194702-0.2200317-0.0105591c0.0324097,0.0545654,0.0726318,0.1040039,0.1195068,0.1467896
		c0.1049805,0.0706787,0.1904907,0.0518799,0.0167236,0.2105713c-0.0708008,0.0560303-0.1274414,0.1279907-0.1650391,0.210144
		c-0.0375977,0.0820923-0.0552979,0.171875-0.0515137,0.262085c0.0037231,0.09021,0.0288086,0.1782837,0.0731201,0.256897
		c0.0444336,0.0786743,0.1066895,0.1456909,0.1820068,0.1956787c0.0216064,0.0198975,0.0601807,0.0214233,0.0908813,0.0314941
		c0.0098267-0.0369873,0.0137329-0.0752563,0.0117188-0.1134033c-0.0220947-0.1008911-0.0532837-0.1997681-0.0974731-0.3592529
		c0.0513916-0.1520386,0.1168823-0.2989502,0.1958008-0.4387207v0.0001221
		c0.0216675-0.0348511,0.0349731-0.0743408,0.0385742-0.1151123c0.0037231-0.0408936-0.0021973-0.0820923-0.017395-0.1202393
		C35.0114746,18.2244873,34.9874878,18.1903687,34.9567871,18.163208z"/>
	<path d="M31.0817261,22.5792847c0.0171509,0.0668335,0.0528564,0.1273193,0.1029663,0.1746216
		c0.1365356-0.1831055,0.1552124-0.4777222,0.4678955-0.4938354c-0.0202026-0.0496826-0.02771-0.1290894-0.0628052-0.1442871
		C31.3071289,21.9937744,31.2097168,22.0817871,31.0817261,22.5792847z"/>
	<path d="M28.5012817,25.3671265c0.0082397,0.0387573,0.0258179,0.0750732,0.0513306,0.1054688
		s0.0581055,0.0540771,0.0949097,0.0690308c0.1444702-0.0879517,0.2835083-0.1846313,0.4161987-0.2895508
		c-0.140625,0.0111084-0.2821045,0.0159302-0.4213257,0.036438C28.5899048,25.2963257,28.498291,25.3474731,28.5012817,25.3671265z"
		/>
	<path d="M28.2138062,25.6835938c0.0916748,0.1751099,0.1812134,0.3513184,0.2789917,0.5228882
		c0.0078125,0.0137329,0.0881958,0.0096436,0.1062012-0.0111084c0.0321045-0.0369873,0.0720215-0.109375,0.0562134-0.1380005
		c-0.0532837-0.0968628-0.1296997-0.1809692-0.2139282-0.3297729C28.373291,25.6859131,28.2924194,25.6702881,28.2138062,25.6835938
		z"/>
	<path d="M32.2930298,21.0192871c-0.1203003-0.088501-0.2466431-0.1685181-0.3781128-0.2392578
		c-0.008728,0.1245728-0.0093994,0.2502441-0.0284424,0.373291c-0.0171509,0.1112671-0.0582886,0.218689-0.0813599,0.3292847
		c-0.0155029,0.0742188-0.0180054,0.1511841-0.0264282,0.2268677c0.0925903-0.0261841,0.1802979-0.0673828,0.2597046-0.1218872
		c0.0509033-0.0783081,0.0791016-0.1691895,0.0814819-0.2625732C32.020813,21.0942993,32.1737061,21.0814819,32.2930298,21.0192871z
		"/>
	<path d="M27.2880249,27.4971924c0.0545654,0.0325928,0.1193848,0.0438232,0.1817627,0.031311
		c0.0021362-0.0001221,0-0.052002-0.000061-0.079834C27.4060059,27.4492188,27.3435059,27.4658813,27.2880249,27.4971924z"/>
	<path d="M30.2880859,22.2374268c-0.0327759-0.0244141-0.0686646-0.0442505-0.1068726-0.0588379
		c-0.2347412-0.0579834-0.4730225-0.100769-0.7131958-0.1279907c0.0567017,0.1801758,0.1279907,0.3344116-0.100647,0.4113159
		c-0.0093994,0.0256958-0.0134888,0.0531006-0.0118408,0.0803833c0.0015869,0.0272827,0.008667,0.0540161,0.0209961,0.0784302
		c0.0234985,0.0157471,0.050354,0.0256958,0.0783691,0.0289917c0.0280762,0.0031738,0.0565186-0.0003052,0.0828857-0.0103149
		c0.2120972-0.0924072,0.4197388-0.1956177,0.6263428-0.3001099C30.2091064,22.3101196,30.2506714,22.2758789,30.2880859,22.2374268
		z"/>
	<path d="M27.7415771,25.4508057c-0.0004883,0.013916,0.0043335,0.0274658,0.0134277,0.0379639
		c0.0953979-0.0106812,0.1912231-0.020874,0.2849121-0.0407715c0.0119629-0.0025024,0.0128784-0.0576782,0.0187988-0.0883179
		c-0.0767212,0.0016479-0.1533203,0.0089111-0.2290039,0.0217285
		C27.7600098,25.4155273,27.7462158,25.4320068,27.7415771,25.4508057z"/>
	<path d="M29.3422241,23.5628052c-0.0626221,0.0344238-0.1578369,0.053772-0.1815186,0.105896
		c-0.0740967,0.1331177-0.116394,0.2813721-0.1237793,0.4334106c0.0043945,0.0811157,0.1546631,0.1541138,0.2392578,0.2307739
		c0.0206299-0.104187,0.0469971-0.2072144,0.0789185-0.3085938c-0.0065918-0.0919189-0.0200195-0.1832886-0.0401001-0.2731934
		C29.3161011,23.6873779,29.3251953,23.6242065,29.3422241,23.5628052z"/>
	<path d="M26.7543945,24.2938843c0.0128174,0.0574341,0.0220337,0.1155396,0.0275879,0.1740112
		c0.0065918,0.0560303,0.0090942,0.1124878,0.0134888,0.1688232c0.0481567-0.0300903,0.1258545-0.050415,0.1395264-0.0919189
		c0.0820312-0.2384033,0.1387939-0.4846802,0.1694946-0.7349243h-0.000061
		C26.6577759,23.9039917,26.6585083,23.9038696,26.7543945,24.2938843z"/>
	<path d="M29.9005737,24.1818237c0.0114136,0.1410522,0.0228271,0.2821045,0.0508423,0.4829712
		c0.145813,0.1124268,0.2651978,0.1237183,0.2349854-0.0679932h0.0001221
		C30.1586914,24.4202271,30.1174927,24.2359009,29.9005737,24.1818237z"/>
	<path d="M31.6408081,19.0958862c0.038269,0.0172119,0.0814209,0.0200195,0.121582,0.0079346
		c-0.038208-0.0172119-0.0813599-0.0201416-0.121582-0.0079956V19.0958862z"/>
	<path d="M31.5491943,20.1063843c-0.1223755,0.0211182-0.3150024,0.0151367-0.1983032,0.303833
		c0.2590332,0.1762695,0.2637939-0.0522461,0.3327026-0.1715088C31.692627,20.2232056,31.5875854,20.0997925,31.5491943,20.1063843z
		"/>
	<path d="M30.1469116,23.5133057c-0.031311-0.0098267-0.0646362-0.0111084-0.0964966-0.0037842
		c-0.0107422,0.0778809-0.0123291,0.131958,0.0136108,0.1546021c0.0887451,0.0774536,0.1872559,0.1439819,0.2819824,0.2145996
		c-0.0305786-0.1075439-0.0700073-0.2123413-0.1176147-0.3134155
		C30.2062988,23.5410767,30.1782227,23.5230713,30.1469116,23.5133057z"/>
	<path d="M30.5952759,18.3527222l-1.4501953,1.128479c-0.1883545-0.1013794-0.3432007-0.255188-0.4458618-0.4429321
		c-0.1027222-0.187561-0.1487427-0.4009399-0.1326294-0.6142578V15.288269
		c-0.017395-0.2627563,0.0310059-0.5257568,0.140686-0.7651978c0.1097412-0.2393799,0.2774048-0.4476929,0.487854-0.6060791
		l0.4213867-0.3001709l0.8499756,1.557251l0.9929199-0.5927734l-1.43573-2.7286987l-1.5285645,1.0714722
		c-0.413208,0.2892456-0.7412109,0.6838379-0.9498901,1.1429443c-0.1530151,0.3880615-0.218811,0.8049927-0.1930542,1.2212524
		v3.1357422c0,1.2286987,0.6762085,2.038269,2.0287476,2.428772l1.9284668-1.500061L30.5952759,18.3527222z"/>
	<path d="M5.0193481,13.2993774v0.0001221c0.0537109,0.0388184,0.0991821,0.0477295,0.1363525,0.0266113
		C5.1019287,13.2872925,5.0564575,13.2783813,5.0193481,13.2993774z"/>
	<path d="M5.723999,15.3723145c-0.0519409,0.116394-0.1182251,0.2260132-0.1971436,0.3261719
		c-0.1287842,0.0947876-0.2230835,0.229126-0.2686157,0.3823853c-0.0455322,0.1533203-0.0397949,0.3173218,0.0164185,0.467041
		C5.4859009,16.3139038,5.677063,16.0625,5.8460083,15.7963257c0.0704346-0.1179199,0.1171265-0.2485352,0.1372681-0.3843384
		c0.0089722-0.0552979-0.0737305-0.1253662-0.1147461-0.1886597C5.8157349,15.2681885,5.767334,15.3181152,5.723999,15.3723145z"/>
	<path d="M5.309021,15.3178101c0.0441284-0.3967896-0.2055664-0.5709229-0.8093872-0.5209351
		c-0.0425415,0.1610107-0.0633545,0.2837524-0.0842285,0.4064941c0.0819702-0.0646973,0.1716309-0.1189575,0.2669067-0.1616821
		c0.1325684-0.0318604,0.267334-0.0534058,0.4031982-0.0645142c0.0101929,0.1119385,0.0163574,0.2243042,0.0328369,0.3352051
		c0.0130005,0.0374146,0.0324097,0.0722046,0.0574341,0.1028442c0.0463257-0.0322266,0.1291504-0.0604248,0.1333008-0.0974121
		H5.309021z"/>
	<path d="M5.840332,12.0723267l0.2947998,0.241394c0.0424805-0.0881348,0.0696411-0.1828003,0.0803833-0.2800293
		c-0.0720825-0.065979-0.1333618-0.0897217-0.1817627-0.0740967C5.96521,11.9896851,5.9003296,12.0275269,5.840332,12.0723267z"/>
	<path d="M5.5571899,14.3106079c0.1108398,0.1915894,0.0040894,0.4644775,0.2689819,0.5056152
		C5.9829712,14.4821167,5.8586426,14.3320923,5.5571899,14.3106079z"/>
	<path d="M4.7510986,16.4028931c-0.0559082-0.0316162-0.0795288-0.0545044-0.090332-0.0494995
		c-0.0636597,0.0292969-0.1242676,0.0653076-0.1860352,0.098877c0.15448,0.105957,0.3075562,0.2139282,0.4657593,0.3139038
		c0.0131836,0.0083008,0.0605469-0.0374756,0.0921021-0.0581665C5.0161133,16.682312,4.998291,16.6574097,4.979248,16.6334839
		C4.9080811,16.552002,4.8318481,16.4749756,4.7510986,16.4028931z"/>
	<path d="M6.7918091,16.1508179c-0.0615845-0.0311279-0.1273193-0.0533447-0.1952515-0.0657349
		c0.0187988,0.0681152,0.046875,0.1332397,0.0834961,0.1936035c0.0229492,0.0233154,0.0512695,0.0405884,0.0825195,0.050293
		c0.031189,0.0098267,0.0643311,0.0117188,0.0964355,0.0056152c0.0021973-0.0335693-0.0026245-0.0673218-0.0142212-0.098999
		C6.833252,16.2039795,6.8151855,16.1751099,6.7918091,16.1508179z"/>
	<polygon points="7.1129761,14.9946289 7.1130371,14.9946289 7.1129761,14.9945679 	"/>
	<path d="M7.0495605,14.9284058c0.0067139,0.0474243,0.0350342,0.0568237,0.0634155,0.0661621
		C7.0991211,14.9597168,7.085144,14.9249878,7.0495605,14.9284058z"/>
	<path d="M7.3019409,11.7061157c-0.0496216,0.0658569,0.0482178,0.2830811-0.1447144,0.3577881
		c0.1343994-0.0053101,0.2687378-0.0101318,0.4030151-0.0164185c0.0578003-0.0011597,0.1154785-0.0057983,0.1727295-0.0137939
		c0.0497437-0.0108032,0.0988159-0.024292,0.1469727-0.0405884c-0.0738525-0.0338135-0.147583-0.067627-0.2596436-0.1229858
		C7.5288086,11.7055054,7.4313354,11.5344238,7.3019409,11.7061157z"/>
	<path d="M5.5405884,14.2507935c0.0820312-0.1693726,0.1837769-0.3031006,0.2570801-0.4508667
		c0.0309448-0.0622559,0.0018921-0.1542358,0.000061-0.2327271c-0.0546265,0.0432129-0.1035156,0.0930786-0.1454468,0.1486816
		c-0.1229858,0.2153931-0.1394043,0.2081299-0.4143066,0.2709351c-0.211731,0.057312-0.416687,0.1369629-0.6115723,0.2376709
		c-0.0753174,0.0353394-0.1270142,0.1209106-0.1894531,0.1835938c0.0775757-0.000061,0.1550903-0.0047607,0.2321167-0.0139771
		C4.9607544,14.3430176,5.2341309,14.1536865,5.5405884,14.2507935z"/>
	<path d="M6.847168,11.9874878c-0.0283813-0.0718994-0.0621338-0.1416626-0.1009521-0.2086182
		c-0.0223389,0.022522-0.0668335,0.0493164-0.0634155,0.0667114c0.0164795,0.1004028,0.0436401,0.1987915,0.0810547,0.293396
		c0.0390625,0.0704346,0.0854492,0.1365356,0.1383057,0.1973267C6.8894043,12.2399902,6.8765869,12.1436768,6.847168,11.9874878z"/>
	<path d="M8.0748901,15.7915039c-0.036377,0.1453247-0.0497437,0.2952881-0.0397339,0.4447021
		c0.0525513,0.1414795,0.1296387,0.272583,0.2276611,0.3873901c0.0223389,0.0333252,0.0708618,0.0488892,0.1073608,0.0726929
		c0.0073242-0.0368042,0.0094604-0.0744629,0.0063477-0.1118774c-0.0222168-0.098938-0.0524902-0.1959229-0.0961304-0.3535156
		C8.2009277,16.0446167,8.1378784,15.9180908,8.0748901,15.7915039z"/>
	<path d="M6.3137207,14.088623c0.0006714,0.0778809,0.0073242,0.1555786,0.0198364,0.2324829
		c0.1113281,0.130188,0.2590942,0.2789917,0.2913208,0.2570801c0.118103-0.0994873,0.2227173-0.2139893,0.3110962-0.3406982
		c-0.118042-0.0379639-0.2345581-0.0819702-0.3545532-0.1120605C6.492981,14.1079712,6.4036255,14.0957031,6.3137207,14.088623z"/>
	<path d="M7.0443726,10.906311c-0.2145996,0.0886841-0.4203491,0.1975708-0.6144409,0.3250732
		c-0.0691528,0.0502319-0.0580444,0.2109375-0.0834961,0.321228c0.090332-0.0466309,0.18396-0.0878296,0.2702026-0.1411133
		c0.1134033-0.0700073,0.2208862-0.1495972,0.3907471-0.2416992c0.0747681-0.0650024,0.1364136-0.1436157,0.1816406-0.2316284
		C7.1401978,10.9262085,7.079834,10.8897095,7.0443726,10.906311z"/>
	<path d="M10.3098755,12.9216919c-0.0499878,0.0291138-0.1229858,0.0458374-0.1463623,0.0892334
		c-0.0654297,0.1685791-0.1698608,0.3192749-0.3048096,0.4396973c-0.1349487,0.1203003-0.2965088,0.2068481-0.4714355,0.2526855
		c-0.0564575,0.0111694-0.0866699,0.1552124-0.1289673,0.237793c0.0977783-0.0120239,0.1954346-0.0239258,0.3530273-0.0524902
		c0.4932861-0.0891113,0.4796753-0.5324097,0.6924438-0.7879028C10.3339233,13.0645142,10.3092041,12.9824829,10.3098755,12.9216919
		z"/>
	<path d="M10.1940918,18.0209961c0.0090332-0.0454102,0.0178223-0.0908813-0.0330811-0.1196899
		C10.1320801,17.9522095,10.1630859,17.9865723,10.1940918,18.0209961z"/>
	<path d="M10.9544067,12.6630249c-0.0205078-0.1313477-0.0578003-0.2593994-0.111084-0.3811035
		c-0.0267944-0.0671387-0.072937-0.1246338-0.1326294-0.1654053c-0.0595703-0.0407104-0.1300049-0.0627441-0.2022705-0.0632935
		c-0.0722046-0.0006104-0.1430054,0.0203857-0.2032471,0.0601807c-0.0603027,0.0397949-0.1073608,0.0966187-0.1351929,0.163208
		c-0.0560913,0.0913696-0.0019531,0.2542725,0.0150146,0.3825684c0.0031738,0.0244141,0.069397,0.0405273,0.1065063,0.0604248
		C10.4996948,12.3190918,10.7393188,12.7088013,10.9544067,12.6630249z"/>
	<path d="M5.0028076,13.239624c-0.1017456-0.1501465-0.1951294-0.2703247-0.2885132-0.3905029
		c-0.0179443,0.0283813-0.0549316,0.0598755-0.0508423,0.0845947l-0.000061,0.000061
		C4.6959229,13.1290283,4.7854004,13.2714844,5.0028076,13.239624z"/>
	<path d="M10.3334961,9.2172852c0.0289307-0.0509644-0.0020752-0.0853271-0.0332031-0.119812
		c-0.0087891,0.0454712-0.0177002,0.0908813,0.0332031,0.119751V9.2172852z"/>
	<path d="M11.4476929,15.2374268c0.0258789,0.0213623,0.0563965,0.0362549,0.0892334,0.0437622l0.2030029-0.3587036
		c-0.0232544-0.0241699-0.0517578-0.0426636-0.083313-0.053894c-0.0316162-0.0111694-0.0654907-0.0148926-0.0986938-0.0106812
		c-0.0333252,0.0040894-0.0652466,0.0159912-0.0930176,0.034668c-0.0278931,0.0186157-0.0510254,0.0436401-0.067627,0.0728149
		c-0.0164795,0.0292358-0.026001,0.0618286-0.0275879,0.0953369c-0.001709,0.0334473,0.0045166,0.0668945,0.0181274,0.0975952
		C11.4013062,15.1890259,11.421814,15.2161255,11.4476929,15.2374268z"/>
	<path d="M12.9962158,7.5452271c0.0219116-0.0169067,0.0383911-0.0397339,0.0474854-0.0658569
		s0.0103149-0.0542603,0.0036011-0.0811157c-0.0308838-0.065918-0.0698853-0.1277466-0.1162109-0.184021
		c-0.0169678,0.0374756-0.0375977,0.0731812-0.0615845,0.1065674C12.7537842,7.4536133,12.880188,7.4772949,12.9962158,7.5452271z"
		/>
	<path d="M5.1722412,13.3859863v0.0001221c0.038269,0.0172119,0.0814819,0.0200195,0.1216431,0.0078735
		C5.2556152,13.376709,5.2124023,13.3739014,5.1722412,13.3859863z"/>
	<path d="M14.7661133,7.3293457c0.02771,0.0027466,0.0556641-0.0016479,0.0811768-0.0127563
		c0.0256348-0.0111084,0.0477905-0.0285645,0.0648193-0.0506592c0.0092163-0.0263062,0.0117798-0.0544434,0.0073853-0.0819702
		c-0.0042725-0.0275269-0.0155029-0.0535278-0.0324097-0.0756226c-0.0767822-0.0626831-0.1708984-0.100647-0.2697144-0.1088257
		c-0.3218994-0.1500244-0.4743652-0.0200195-0.569458,0.2185669c-0.0123291,0.0308838,0.0698853,0.0993652,0.1082153,0.1503906
		C14.3399048,7.0214844,14.5518188,7.2280273,14.7661133,7.3293457z"/>
	<path d="M7.631897,11.109375c0.0054321-0.0087891-0.0426025-0.0509033-0.0657959-0.0774536
		c-0.0564575,0.069397-0.0947876,0.1517944-0.1116333,0.239563h0.000061
		C7.5291138,11.2373047,7.5911255,11.180603,7.631897,11.109375z"/>
	<path d="M9.2642822,10.2814941c0.0899658-0.0620728,0.1705322-0.1369019,0.2391357-0.2219849
		c-0.1170044,0.0003052-0.2325439,0.0255127-0.3390503,0.0739136c-0.0377808,0.0166626-0.0471802,0.0974731-0.069458,0.1489868
		h-0.000061C9.1522217,10.2836914,9.2219849,10.3062134,9.2642822,10.2814941z"/>
	<path d="M7.5930176,10.4920044c0.0089722-0.0455322,0.0178223-0.0908813-0.0330811-0.119812
		c-0.0289307,0.0510254,0.0020752,0.0853882,0.0330811,0.1196899V10.4920044z"/>
	<path d="M17.2937012,28.2481689c0.034668-0.013855,0.069397-0.0278931,0.0661621-0.0632935
		C17.3122559,28.1915894,17.3029785,28.2199097,17.2937012,28.2481689z"/>
	<path d="M10.2376099,9.7971191c0.225708-0.2025146-0.0186157-0.2893066-0.1918945-0.3390503
		C9.9397583,9.5411377,9.8411865,9.5716553,9.776123,9.6361084C9.7354736,9.6763916,9.7455444,9.7677002,9.7329102,9.8361206
		C9.9052124,9.8276978,10.1378784,9.8865356,10.2376099,9.7971191z"/>
	<path d="M12.479187,23.7113037c-0.0534668,0.0012817-0.1047974,0.0842896-0.1571655,0.1300049
		c0.0491943,0.0443115,0.102478,0.0838013,0.1590576,0.117981c0.0869141,0.0375977,0.1807251,0.0562134,0.2754517,0.0546875
		c0.2202759-0.0423584,0.286377-0.1601562,0.1584473-0.2471924C12.777771,23.7078247,12.62677,23.6885986,12.479187,23.7113037z"/>
	<polygon points="14.7437744,25.1392212 14.7437744,25.1390991 14.7437744,25.1392212 	"/>
	<path d="M13.9140015,24.4741211c-0.006897-0.0057373-0.1900024,0.1330566-0.1870728,0.1998901
		c0.0041504,0.0941162,0.1056519,0.1837769,0.1654663,0.2753906c0.2720337-0.3289795,0.4003296,0.0393677,0.571228,0.1325073
		c0.1078491,0.0585938,0.1734009,0.1953125,0.2577515,0.296875c0.0187988-0.0783081,0.0264282-0.1589966,0.0223999-0.239563
		C14.6334229,24.6456909,14.1748047,24.6901245,13.9140015,24.4741211z"/>
	<path d="M14.3875122,25.6245728c-0.0637817,0.0716553-0.1276855,0.1432495-0.1915283,0.2148438
		c0.069397,0.0557861,0.1387329,0.1115112,0.2463379,0.1889038c0.0288696,0.0197754,0.0596924,0.0365601,0.0918579,0.050293
		c0.0115356,0.0026855,0.0385132-0.0108032,0.038147-0.0155029c0.0032959-0.0775146-0.0061035-0.1550293-0.027832-0.2294922
		C14.5006104,25.7579956,14.447876,25.6878052,14.3875122,25.6245728z"/>
	<path d="M12.7280273,19.3040771c-0.0348511,0.0140381-0.0697021,0.0278931-0.0662231,0.0635376v0.000061
		C12.7092896,19.3609009,12.718689,19.3325195,12.7280273,19.3040771z"/>
	<path d="M13.4556274,23.4031982c-0.010437-0.078186,0.0040894-0.1749268-0.0371094-0.2302856
		c-0.0787354-0.0842896-0.1821899-0.1412964-0.2955933-0.1627197c-0.2577515,0.2758179-0.1401367,0.3533936,0.1295776,0.3529053
		C13.3214111,23.3696289,13.3894043,23.3829956,13.4556274,23.4031982z"/>
	<path d="M14.3195801,23.4608765c-0.4707031,0.1091309-0.8934937,0.3673096-1.2055664,0.7363281
		c0.0661621,0.0244751,0.1253052,0.0651855,0.171814,0.1182861c0.0244751,0.0291138,0.0458984,0.0606079,0.0672607,0.0917969
		c0.1155396-0.2196045,0.2775879-0.420166,0.3748169-0.3894653c0.3637695,0.1148682,0.5993652-0.1750488,0.9453735-0.1802979
		c0.1066284-0.0166016,0.210144-0.0491333,0.3070068-0.0964966c-0.0515137-0.0737305-0.0894775-0.1912231-0.1572876-0.2122192
		C14.663208,23.4658813,14.4904785,23.442627,14.3195801,23.4608765z"/>
	<path d="M16.234314,25.9829712c-0.1655884,0.2310181-0.2051392,0.4004517,0.0795898,0.4995117
		c0.0675049,0.0234985,0.1342163,0.0496216,0.2012939,0.0744019c-0.0270996-0.0646973-0.0484009-0.1317749-0.0634766-0.2002563
		c-0.0101929-0.0741577-0.0286255-0.1852417,0.0097656-0.2181396c0.0477295-0.0408936,0.151001-0.027771,0.2280884-0.019165
		c0.048645,0.0152588,0.0940552,0.0393677,0.1340332,0.0709839c-0.0756836-0.1522217-0.1151123-0.348938-0.2351074-0.4468384
		C16.369812,25.5651245,16.347229,25.838501,16.234314,25.9829712z"/>
	<path d="M17.0375977,27.9519043c0.0498047-0.0881348,0.0780029-0.1378784,0.1063232-0.1878052
		c-0.0670166-0.0006104-0.1340332-0.0012207-0.2009277-0.00177C16.9575195,27.8325806,16.9901123,27.8980103,17.0375977,27.9519043z
		"/>
	<polygon points="17.3599243,28.1848755 17.3599243,28.1848145 17.3598633,28.1848755 	"/>
	<path d="M16.2789307,19.161377c0.0412598-0.0241699,0.0771484-0.0567627,0.1052856-0.0955811
		c0.0454102-0.0656128,0.0272827-0.175293,0.0371094-0.265625c-0.1011353,0.0552368-0.1971436,0.1190186-0.2870483,0.1908569
		c-0.0039673,0.0985718-0.2345581,0.2145996,0.0097046,0.215271C16.1915894,19.2009277,16.2374878,19.1856079,16.2789307,19.161377z
		"/>
	<path d="M17.3773804,15.9276123c0.1589966-0.3677368,0.2279053-0.7681274,0.2012329-1.1679077V11.973999
		c-0.0095825-0.3261108-0.0736084-0.6483154-0.189209-0.9533081c-0.1998291-0.477417-0.4813843-0.9161987-0.8322754-1.2965698
		l-0.5999146-0.7000732l-1.8214111,1.5071411c-0.1138916-0.1953125-0.1754761-0.416687-0.1785889-0.6428223
		c0-0.1331787,0.1213989-0.3117676,0.3642578-0.5357666l0.3357544-0.2999268l-0.8286133-0.9144287
		c-0.3237915,0.2612915-0.6119995,0.5639038-0.8572388,0.9000854c-0.0806885,0.1181641-0.1421509,0.2483521-0.1819458,0.3858032
		c-0.0388184,0.1540527-0.0568237,0.3126221-0.0535278,0.4714355c0.0535889,0.3787231,0.1644287,0.7472534,0.3284912,1.0927124
		c0.1005859,0.2283936,0.1610107,0.4725342,0.1784058,0.7214966v4.1644287
		c-0.0897217-0.0145874-0.180481-0.0217896-0.2714233-0.0214844c-0.8811035,0-1.4143677,0.6524048-1.5998535,1.9570923h1.2140503
		c0.0952148-0.4902954,0.223938-0.7355957,0.3858032-0.7357178v-0.0001221
		c0.0912476,0.0007324,0.1821289,0.0102539,0.2714233,0.0287476v3.2214966h1.2214966v-2.6643066l0.7214966,0.3642578
		l1.4786377-1.1499634C16.973877,16.619873,17.2183838,16.2954102,17.3773804,15.9276123z M16.3572998,14.7597046
		c0.0197144,0.2174072-0.0112915,0.4362793-0.0906982,0.6395874c-0.0792847,0.2033081-0.204895,0.385437-0.3666992,0.5319214
		l-0.8425903,0.6715088c-0.0571899-0.0333252-0.1168213-0.0655518-0.1785889-0.0964966
		c-0.0621948-0.0308228-0.2003174-0.1034546-0.4144287-0.2178345v-4.4356689l1.3571777-1.1286011
		c0.3117065,0.3460083,0.5001221,0.7855835,0.5358276,1.2498779V14.7597046z"/>
	<path d="M15.3569946,23.1646729c0.0839233-0.074585,0.1436157-0.1725464,0.1713257-0.2813721
		c0.0050049-0.0269165-0.1376953-0.1124878-0.1451416-0.1049805C15.272583,22.8914185,15.0662231,22.9946289,15.3569946,23.1646729z
		"/>
	<path d="M10.6932983,9.3842163c0.0297241,0.0795898,0.0374756,0.1852417,0.0941162,0.2330322
		c0.1259155,0.0891724,0.2592163,0.1674805,0.3983765,0.2340088c0.1669312-0.2253418-0.0825195-0.3239746-0.1776123-0.4724121
		C10.9785156,9.3323975,10.8023071,9.3797607,10.6932983,9.3842163z"/>
	<path d="M9.4424438,20.7749023c0.0475464-0.0067139,0.0568848-0.0349731,0.0662231-0.0634155
		C9.473877,20.7255249,9.4390259,20.7393799,9.4424438,20.7749023z"/>
	<path d="M9.7692871,19.3953857c-0.0918579,0.100708-0.1536865,0.2006836-0.2338257,0.2185059
		c-0.2506104,0.0557861-0.1565552,0.2409058-0.0900879,0.3186035c0.1498413,0.175415,0.1337891-0.204895,0.2862549-0.1140137
		c0.0656738-0.1430054,0.1314087-0.2860107,0.1970825-0.4290771C9.8765259,19.3724976,9.8200684,19.3745728,9.7692871,19.3953857z"
		/>
	<path d="M10.1497803,21.5817261c0.0010986,0.0189819,0.0099487,0.0376587,0.0450439,0.0482788
		c-0.0041504-0.1223145-0.0237427-0.2437134-0.0583496-0.361084C10.140686,21.3731689,10.1444092,21.477417,10.1497803,21.5817261z"
		/>
	<path d="M10.0571899,20.2501831l0.0737915-0.1303711c-0.0741577-0.0366211-0.1564941-0.0535889-0.2391968-0.0493164
		C9.930603,20.1436157,9.9876099,20.2055054,10.0571899,20.2501831z"/>
	<path d="M9.4866333,19.0031738c0.013916,0.03479,0.0280151,0.069458,0.0633545,0.0661621
		C9.5431519,19.0219116,9.5149536,19.0125732,9.4866333,19.0031738z"/>
	<polygon points="9.5500488,19.069397 9.5499878,19.0693359 9.5500488,19.069519 	"/>
	<path d="M10.8687744,20.0111694c-0.0149536-0.1413574-0.053772-0.2791748-0.1146851-0.4076538
		c-0.0203857-0.0350342-0.0484619-0.0648193-0.0822144-0.0872192c-0.0336914-0.022522-0.0720825-0.0369263-0.1121826-0.0421143
		c-0.1340942-0.0012817-0.2368774,0.0626221-0.1408081,0.2891235c0.0491333,0.177063,0.045105,0.3403931,0.1221924,0.4011841
		c0.1307373,0.1030884,0.3816528,0.2424927,0.460022,0.1887817C11.2526245,20.1809692,10.8826294,20.1513062,10.8687744,20.0111694z
		"/>
	<path d="M9.7175293,17.3474121c-0.0244141-0.2540283-0.1043091-0.4689941-0.1098022-0.6859131
		c-0.0134277-0.5410156-0.1273193-0.6727905-0.6587524-0.6090698c-0.2041626,0.024353-0.267334,0.0063477-0.2042847-0.2096558
		c0.0197144-0.0675659-0.039856-0.1583862-0.0631714-0.2385864c-0.0794067,0.0831909-0.1633301,0.1628418-0.2346191,0.2525024
		c-0.0161133,0.0202026,0.003479,0.0797119,0.020813,0.1138916c0.0870361,0.171814,0.1754761,0.3431396,0.2711792,0.5101318
		c0.0250244,0.0435791,0.0796509,0.100769,0.1176758,0.0985718c0.0475464-0.0025635,0.1362915-0.072998,0.1307373-0.0918579
		c-0.0455322-0.1567383,0.0010986-0.258606,0.1624146-0.2081299c0.109314,0.0341797,0.281311,0.0665283,0.2069702,0.2924805
		C9.2409058,16.9235229,9.4709473,17.1600952,9.7175293,17.3474121z"/>
	<path d="M11.4086304,22.6013184c-0.0776367,0.1099854-0.1317139,0.3386841-0.0685425,0.4251709
		c0.1464233,0.2001953,0.2088013-0.0401001,0.2924194-0.1207886c0.0846558-0.0762939,0.1505127-0.1710205,0.1923218-0.2770996
		C11.6552124,22.6013184,11.4495239,22.5430908,11.4086304,22.6013184z"/>
	<polygon points="11.8248901,22.628479 11.8248291,22.6286011 11.8248901,22.6286011 	"/>
	<path d="M10.8518066,10.9489136c-0.1008301,0.0061035-0.201416,0.0145874-0.302002,0.0221558
		c0.0687256,0.0825195,0.142395,0.1607056,0.2207031,0.2342529c0.072998,0.006958,0.1466675-0.0028076,0.215271-0.0288086
		c0.0718994-0.0283203,0.1404419-0.0656128,0.2103271-0.098999c-0.0524902-0.0499268-0.1110229-0.0930176-0.1741333-0.1282959
		C10.9658813,10.9371948,10.9078979,10.9370728,10.8518066,10.9489136z"/>
	<path d="M12.564209,22.946228c-0.1091309-0.0216064-0.2346191-0.088501-0.3239136-0.0560303
		c-0.2230225,0.0811768-0.2279663,0.4611816-0.5534668,0.4279785c0.0341797,0.0769043,0.078186,0.1490479,0.1307983,0.2147217
		c0.223877-0.0889282,0.4362793-0.2042236,0.6327515-0.3435059C12.5137939,23.1434937,12.52771,23.0292969,12.564209,22.946228z"/>
	<path d="M10.1723022,20.7338867l0.0485229,0.1749878c0.0890503-0.0957642,0.1799927-0.1901855,0.2649536-0.2896729
		c0.008728-0.0101929-0.0178833-0.0505981-0.0280762-0.0770264C10.3477173,20.5806274,10.2493896,20.6466064,10.1723022,20.7338867z
		"/>
</g>
</svg>
