<?xml version="1.0" encoding="utf-8"?>
<!-- Generator: Adobe Illustrator 25.4.1, SVG Export Plug-In . SVG Version: 6.00 Build 0)  -->
<svg version="1.1" id="Layer_1" xmlns="http://www.w3.org/2000/svg" xmlns:xlink="http://www.w3.org/1999/xlink" x="0px" y="0px"
	 viewBox="0 0 74 82" style="enable-background:new 0 0 74 82;" xml:space="preserve">
<path d="M73.5789795,27.1132812c-0.3058472-1.0759888-0.9822998-2.0092773-1.909668-2.6350098L51.7929077,11.1166992
	c-0.7189331-0.4832764-1.4232178-0.9873047-2.1275024-1.491272l-1.1401978-0.8105469
	c-1.3909302-0.9638672-3.046936-1.4717407-4.7390137-1.4533691c0.0123901-1.3312378-0.3582764-2.6378784-1.0679932-3.7642212
	c-0.7095947-1.1263428-1.7282715-2.0247803-2.9345093-2.5881348c-5.0061035-2.7232056-9.8764648,0.8023682-11.2507935,1.9462891
	l-0.133606,0.1117554c-0.4276123,0.3555298-0.8544922,0.7115479-1.288269,1.0559082L6.8548584,20.182312
	c-1.3059082,1.0216675-2.4836426,2.1973877-3.5076294,3.5014038c-1.2074585,1.4387817-2.0405273,3.1535645-2.4252319,4.9920044
	c-0.0018311,0.010498-0.0090942,0.0183716-0.0107422,0.0289917l0.0054932,0.0009155
	c-0.0049438,0.0314941-0.012085,0.0632935-0.0166626,0.0947876L0.8984375,28.800293l0.001709,0.0001831
	c-0.0228271,0.1584473-0.038208,0.3152466-0.0491333,0.4709473c-0.0007935,0.0061035-0.0046997,0.0108032-0.0053711,0.0168457
	l-0.6328735,5.7905273c-0.3504028,1.1715088-0.3033447,2.4259033,0.1337891,3.5679321
	c0.4371948,1.1418457,1.2398682,2.1070557,2.282959,2.7450562c0.2263794,0.1522217,0.4404907,0.28302,0.6611938,0.4249268
	c-0.7121582,0.9799805-1.3300781,2.0250854-1.84552,3.1213989c-0.812439,1.6228638-1.2094727,3.4219971-1.1555786,5.2359619
	c0.0006104,0.0101318-0.0041504,0.019043-0.0033569,0.0291138l0.0050659-0.0003662
	c0.0021973,0.0282593,0.0026855,0.057251,0.005249,0.0852661l-0.0018311,0.0004272l0.0023193,0.0067139
	c0.0137329,0.1487427,0.0338135,0.2945557,0.0575562,0.4386597c0.0007935,0.0065308-0.0021362,0.0126343-0.0013428,0.0192261
	l0.6953125,5.5244751c-0.0658569,1.1837158,0.2615356,2.3560181,0.9312744,3.3342285
	c0.6696777,0.9782715,1.644043,1.7077026,2.7713623,2.0744629c2.7463989,1.0828247,5.6438599,1.7336426,8.5894775,1.9291992
	c1.3217773,1.6276245,2.9653931,2.9647217,4.8278809,3.9276123c3.4382324,1.9821167,19.2750244,10.3370972,25.9246216,13.8370972
	c0.9375,0.491333,2.0093994,0.6641235,3.053772,0.4924316l0.0004272,0.000061l0.008606-0.0015869
	c0.6864014-0.0806885,1.3449097-0.3186035,1.9243164-0.6953125s1.0640869-0.881897,1.4163818-1.4765015
	c3.3908691-5.2583008,11.8063965-18.8899536,16.7037964-31.8626709c0.4451294-1.2025146,0.7808228-2.442627,1.0029907-3.7053833
	c0.390625-0.5534058,0.7817383-1.1070557,1.1572876-1.6620483c2.0480347-3.0581055,3.3359985-6.5610962,3.7566528-10.2175903
	l0.2235718-1.8927612C73.8005981,29.3389282,73.8848267,28.1893921,73.5789795,27.1132812z M3.8458862,35.9083862
	c0.0256348-0.0944824,0.0438232-0.190918,0.0545044-0.288269l0.0967407-0.8851929
	c0.1383667,0.0841675,0.2776489,0.1477661,0.4163818,0.2258911c0.1902466,0.1070557,0.3795776,0.213501,0.5702515,0.3095093
	c0.232666,0.1172485,0.4642944,0.222168,0.6966553,0.3238525c0.1890869,0.0827026,0.3774414,0.1668091,0.565918,0.2399292
	c0.2335815,0.0903931,0.4647217,0.1679688,0.6965942,0.2445068c0.1850586,0.0609131,0.3695068,0.1248779,0.5529785,0.1773071
	c0.2331543,0.0666504,0.4619751,0.1204834,0.6917114,0.1744995c0.1767578,0.0413818,0.3538818,0.0874023,0.5281982,0.1217651
	c0.2336426,0.0462036,0.4604492,0.079834,0.6887207,0.1141968c0.1630859,0.0247192,0.328064,0.0546875,0.4880981,0.0737915
	c0.2376709,0.0285034,0.4656372,0.0450439,0.6952515,0.062439c0.1409302,0.0106812,0.2855835,0.0268555,0.4230957,0.0338745
	c0.2518311,0.0128174,0.4907837,0.0145874,0.7302246,0.0162354c0.1046753,0.0006714,0.21521,0.0065918,0.3172607,0.0053711
	c0.269043-0.0031128,0.5223389-0.0151978,0.7714233-0.0294189l-1.6300659,4.7918091
	c-0.1138306-0.038208-0.2419434-0.0852051-0.3675537-0.1303101c-0.1607666-0.0578613-0.3191528-0.1141968-0.4984741-0.1842041
	c-0.1702881-0.0663452-0.3638916-0.1503906-0.5500488-0.2284546c-0.2861328-0.1203003-0.5878906-0.2556152-0.9094238-0.406189
	c-0.2507935-0.1173096-0.5010376-0.2342529-0.7721558-0.3717041c-0.2088623-0.1062012-0.4351196-0.2324219-0.6551514-0.3511963
	c-0.8427734-0.4545288-1.7483521-0.9822998-2.7384644-1.6479492c-0.4161987-0.2193604-0.7353516-0.5863037-0.8949585-1.0287476
	C3.6539917,36.8291016,3.6655273,36.3428955,3.8458862,35.9083862z M6.0558472,58.1981201
	c-0.4208984-0.1046143-0.7867432-0.3644409-1.0241699-0.7272949c-0.2374878-0.362915-0.3289795-0.8022461-0.2562256-1.2297363
	c0.0032349-0.0979004-0.0014038-0.1958008-0.013916-0.2929077l-0.088623-0.7069702
	c0.1405029,0.0493774,0.2703247,0.0880737,0.4080811,0.1347046c0.2106323,0.071167,0.4185791,0.140564,0.6227417,0.2055054
	c0.2486572,0.0789795,0.4897461,0.1519775,0.7286377,0.222168c0.1931763,0.0567017,0.3850098,0.1132202,0.5717163,0.1644287
	c0.2337036,0.064209,0.4581299,0.1217651,0.6812134,0.1777954c0.1748657,0.0437622,0.3500366,0.0886841,0.5183105,0.1278687
	c0.2196045,0.0512085,0.4278564,0.0953369,0.6359253,0.1390381c0.1550903,0.0324707,0.3123779,0.0668945,0.4609375,0.0953979
	c0.2053223,0.0396729,0.3970337,0.0720825,0.5895996,0.1046753c0.1333008,0.022583,0.270752,0.0477905,0.3978271,0.0673218
	c0.1934814,0.0297852,0.3706055,0.0526733,0.5493164,0.0758667c0.1083984,0.0140381,0.2232056,0.0311279,0.3261108,0.0430908
	c0.1871948,0.0217285,0.3552856,0.0371094,0.5237427,0.0524292c0.0765381,0.007019,0.1613159,0.0169067,0.2339478,0.022583
	l0.0568848,0.0043335l0.3406982,2.911377C10.1748047,59.5115967,8.0722046,58.9771729,6.0558472,58.1981201z M15.4467773,54.5443726
	h0.0001221c-0.0241089-0.206604-0.090271-0.4060669-0.194397-0.5861816
	c-0.104187-0.1799927-0.2440796-0.3369141-0.4111938-0.4608154c-0.1918335-0.1396484-0.4105225-0.2382812-0.6422119-0.2897949
	c-0.2316895-0.0513916-0.4713745-0.0545044-0.7044067-0.0090942c-0.4254761,0.0158081-0.8515015,0.00354-1.2753906-0.036499
	c-2.3811035-0.2335815-4.7186279-0.7938843-6.9468384-1.6651611c-0.1888428-0.069519-0.3695068-0.1593018-0.5389404-0.2677002
	c-0.0444336-0.0287476-0.0760498-0.0577393-0.1141968-0.0866089c-0.0883789-0.0643921-0.1700439-0.1376343-0.2435913-0.2185059
	c-0.0248413-0.0285034-0.0493774-0.0567017-0.0698242-0.0845337c-0.0687866-0.0903931-0.1260376-0.1889648-0.1704102-0.2935791
	c-0.0755615-0.1932983-0.1218262-0.3967896-0.1372681-0.6038208c-0.0186157-0.2147827-0.0778809-0.4320068-0.0814209-0.6472778
	c0.0155029-0.2416992,0.0762329-0.4783936,0.1789551-0.6978149c0.0780029-0.2097168,0.1117554-0.4271851,0.1863403-0.6350098
	c0.1802979-0.5020752,0.3383179-1.0030518,0.5584717-1.4911499c0.4545898-0.9894409,1.012207-1.9282227,1.6635742-2.8007202
	c0.2757568,0.1483765,0.5588379,0.2827759,0.8480835,0.402771c0.2271118,0.0870361,0.4261475,0.2218018,0.6557007,0.3084106
	c0.3265991,0.12323,0.644043,0.2659912,0.9662476,0.3915405c0.0558472,0.0217896,0.1096191,0.0426636,0.1640625,0.0635986
	c0.3266602,0.1246948,0.6312256,0.2349854,0.9091797,0.3277588l0.0420532,0.0145874
	c0.3005371,0.0999146,0.5811157,0.1883545,0.8191528,0.2557983c0.0454712,0.0130005,0.1519775,0.3452148,0.1772461,0.3981323
	c0.0743408,0.1547852,0.1530151,0.307312,0.2364502,0.4575806c0.199585,0.3588867,0.4176025,0.7073364,0.6530762,1.0438232
	c0.5357056,0.8013916,1.1455078,1.5507812,1.821228,2.2382202c0.1936646,0.1889648,0.4276733,0.3500977,0.6108398,0.546875
	c0.1515503,0.1627197,0.2895508,0.3308716,0.4542236,0.4863892c0.1685791,0.1591797,0.3820801,0.3569946,0.616333,0.5723877
	c0.0484619,0.0446167,0.0945435,0.0873413,0.145752,0.1342163c0.2322388,0.2128296,0.4898071,0.4473877,0.7730103,0.7039185
	c0.076416,0.0692749,0.1580811,0.1430664,0.2380371,0.2150879c0.28125,0.2540894,0.5778809,0.5216064,0.8989868,0.8096924
	l0.0963745,0.086731c0.3389893,0.3040771,0.7042236,0.6303711,1.0808105,0.9664917
	c0.1137085,0.1015015,0.2258301,0.2015991,0.3425903,0.3056641c0.3735352,0.3330078,0.7612915,0.6782227,1.1633911,1.0354004
	c0.114502,0.1016235,0.2314453,0.2053223,0.3478394,0.3087158c0.2683105,0.2382202,0.5366821,0.4763184,0.8051758,0.7142944
	c0.2243042,0.1989136,0.4645996,0.3449097,0.6785889,0.5562134c0.02771,0.0250854,0.052124,0.0537109,0.0726318,0.085022
	c0.0163574,0.0274658,0.0266724,0.0581665,0.0410156,0.086853c0.0567627,0.0941162,0.1352539,0.1732178,0.2288818,0.230896
	c0.3855591,0.281311,0.7357788,0.5957031,1.0939941,0.9122314l0.1257935,0.1112061
	c1.4752197,1.3028564,3.0175781,2.661499,4.548584,4.0075073c-0.1305542-0.0696411-0.2612915-0.1393433-0.3905029-0.208252
	c-0.3078003-0.1641846-0.6143799-0.3277588-0.9140625-0.487854c-0.3294067-0.1760864-0.6489258-0.3471069-0.9667358-0.517334
	c-0.1936646-0.1037598-0.3934937-0.2105103-0.5822754-0.3117676c-0.4954834-0.265625-0.9716797-0.5214844-1.4287109-0.7676392
	c-0.1876221-0.1009521-0.3590088-0.1937866-0.5391846-0.2911987c-0.2745972-0.1480713-0.5465088-0.2949829-0.8024902-0.4335938
	C22.3493042,59.3295898,22.1757202,59.2351685,22,59.1395874c-0.2396851-0.130188-0.4705811-0.2561035-0.6890259-0.3753662
	c-0.1465454-0.0802002-0.289978-0.1587524-0.4264526-0.2337036c-0.2629395-0.1255493-0.519043-0.2650146-0.7672119-0.4178467
	c-0.2703857-0.192688-0.5532837-0.3673706-0.8468018-0.522644c-0.2349243-0.0975342-0.4644775-0.2072144-0.6878052-0.3287354
	c-0.1644287-0.1098633-0.3140259-0.244873-0.4824219-0.3557129c-0.3797607-0.250061-0.7515869-0.5128784-1.1092529-0.7938843
	c-0.4537354-0.3444824-0.8713379-0.7340088-1.2463989-1.1627197C15.6708984,54.8618774,15.4594116,54.6660767,15.4467773,54.5443726
	z M14.3347778,43.973999l0.4597168-1.3516846c0.2747803,0.34729,0.5734863,0.6748047,0.8939819,0.9801636
	c3.0133057,2.8464355,17.0861206,15.1763916,22.9961548,20.3450928c0.2941895,0.2518311,0.6161499,0.4692993,0.9596558,0.6480103
	c0.0780029,0.0418091,0.1555176,0.0800171,0.2349243,0.1174316l-0.3510132,2.75
	c-5.3270264-4.6606445-19.2080688-16.8244019-22.1085815-19.5650024
	C16.1265869,46.8217163,15.0753784,45.4844971,14.3347778,43.973999z M20.0288086,64.3161011
	c-2.760498-1.5914917-3.5919189-2.7316284-3.7872314-3.0532227l-0.1422729-1.2157593
	c0.3950195,0.2592773,0.8131714,0.5227661,1.2843018,0.7943726c3.4273682,1.9760132,19.2684937,10.3328857,25.9199829,13.8345947
	c0.2807007,0.147583,0.574707,0.2683105,0.8781128,0.3604126c0.0974121,0.0296021,0.1967773,0.0374756,0.2947998,0.060791
	c0.0238037,0.0056763,0.0477905,0.0093994,0.0715942,0.0147095l0.2615356,2.4353027
	C38.7133789,74.3366699,23.3051758,66.2050781,20.0288086,64.3161011z M47.4324951,69.645813
	c-0.3018188,0.4760742-0.5916748,0.9309692-0.8449097,1.3236694c-0.1590576,0.2507935-0.4069824,0.432312-0.6940918,0.5084229
	c-0.2871094,0.0759888-0.5922852,0.0408936-0.8546753-0.0983276c-0.2050171-0.1077881-0.4196167-0.220459-0.6416016-0.3378906
	c0.0921021-0.0761108,0.1821899-0.1568604,0.2699585-0.2409058c0.1665039-0.1594849,0.3641968-0.3515015,0.546814-0.5275879
	c0.1498413-0.1447144,0.2877197-0.2769165,0.4484863-0.4331055c0.2084961-0.2022705,0.4390259-0.4287109,0.6638184-0.6488037
	c0.163208-0.159668,0.3173218-0.3098145,0.4890137-0.4790039c0.2687988-0.2645874,0.5546875-0.5492554,0.8422852-0.8352051
	c0.1508789-0.1499634,0.2958374-0.2937012,0.4515991-0.4494629c0.3088379-0.3088379,0.6296997-0.6328125,0.9562378-0.9628906
	c0.1541748-0.1560059,0.3053589-0.3086548,0.463501-0.4692383c0.1466675-0.149292,0.282959-0.2852783,0.4326782-0.4384155
	c-0.4000244,0.6624146-0.7819824,1.2867432-1.1478271,1.8795166c-0.1072998,0.1738281-0.2089844,0.3373413-0.3129883,0.5046997
	c-0.2644043,0.4258423-0.5186157,0.8327026-0.7595215,1.2150269C47.6375732,69.3208008,47.5314941,69.4898071,47.4324951,69.645813z
	 M48.3969727,76.0653076l-0.1722412-1.6033936c0.0786743-0.0505981,0.1630859-0.0895996,0.2390747-0.1448364
	c0.133667-0.1051636,0.2619019-0.2172852,0.3840942-0.3355713c0.0979004-0.0881348,0.2039795-0.1638184,0.2955933-0.2606812
	c0.2141113-0.2260132,0.4066162-0.4715576,0.5751343-0.7333374c0.2758789-0.4276733,0.5852661-0.9124146,0.9174805-1.4373169
	c0.1268921-0.2003784,0.2678833-0.4272461,0.4022217-0.6409912c0.2196655-0.3498535,0.4384766-0.6984863,0.6765747-1.0823975
	c0.1699829-0.2741089,0.3482056-0.5656128,0.5266724-0.8562012c0.2296143-0.3737793,0.4595947-0.7495728,0.7018433-1.149292
	c0.1930542-0.3184814,0.3895874-0.6448975,0.5893555-0.9793091c0.2478027-0.4133911,0.4978027-0.8338623,0.7553101-1.2694702
	c0.2078247-0.3515015,0.4147949-0.7040405,0.6279907-1.0692139c0.270752-0.4638062,0.5450439-0.9384155,0.8226318-1.4237061
	c0.2102051-0.366272,0.4176636-0.727478,0.6312866-1.1046143c0.3032837-0.5355835,0.6096802-1.0870972,0.9180908-1.6427612
	c0.1943359-0.3502197,0.3859253-0.6914062,0.5817261-1.0490112c0.401062-0.7329102,0.803894-1.4844971,1.2075195-2.2446899
	c0.104187-0.196228,0.2075806-0.3842163,0.3117676-0.5820923c0.0175781-0.0333252,0.0352173-0.0648193,0.0526733-0.0983276
	C56.1168213,63.1207886,52.4299316,69.6994019,48.3969727,76.0653076z M61.8314209,46.4727173
	c-0.1224976,0.1574707-0.2451172,0.3148804-0.3679199,0.4719849c-0.4810181,0.6140137-0.9744263,1.2333984-1.4802246,1.8585205
	c-0.0771484,0.0952759-0.1535034,0.1917725-0.2307739,0.2868042c-0.593811,0.7298584-1.2034302,1.4663696-1.8289185,2.2092896
	c-0.4140015,0.4912109-0.828186,0.9779053-1.2426758,1.460083c-0.1162109,0.1350098-0.2318115,0.2664185-0.3479004,0.4003906
	c-0.3375854,0.3898926-0.6746216,0.7764282-1.0111084,1.1596069c-0.1456909,0.1655884-0.2905884,0.3286743-0.4359741,0.4926758
	c-0.3146362,0.3553467-0.6280518,0.7068481-0.9404297,1.0548096c-0.1334229,0.1486206-0.2669067,0.2972412-0.3997192,0.4443359
	c-0.3692017,0.4085693-0.7357788,0.8114624-1.0999756,1.2085571c-0.0620728,0.0678101-0.1251221,0.137207-0.1870117,0.2046509
	c-0.9141846,0.9942017-1.8081665,1.9481812-2.6698608,2.8534546l-0.0622559,0.0652466
	c-0.4204712,0.4412842-0.8327637,0.8709717-1.2369995,1.2889404l-0.0360718,0.0375366
	c-1.6804199,1.7371216-3.2011719,3.2565918-4.4630127,4.492981l-0.0181885,0.0178833
	c-0.1459961,0.1429443-0.276123,0.2689209-0.414917,0.4041138l0.2506104-1.9638062
	c0.2302856-0.0787964,0.4545288-0.1741943,0.6708374-0.2857056c0.102356-0.052063,0.2041626-0.0997925,0.3035889-0.1593018
	c0.331665-0.1935425,0.6405029-0.4238892,0.9205933-0.6865845c0.3161621-0.3031006,0.6669922-0.6420898,1.0324707-0.9971924
	c0.0735474-0.0714722,0.144043-0.1397705,0.2194214-0.2133179c0.3754883-0.3656616,0.7705078-0.7526855,1.18927-1.166687
	c0.0593262-0.0585938,0.1208496-0.119873,0.1809082-0.1792603c0.3929443-0.3890991,0.802124-0.7974243,1.2278442-1.2248535
	c0.0688477-0.069397,0.1341553-0.1343994,0.2039795-0.2045898c0.4602051-0.4632568,0.9387817-0.9498901,1.4307251-1.4534912
	c0.0963745-0.0988159,0.1932983-0.1983032,0.2906494-0.298584c0.5131226-0.5272827,1.0363159-1.0679321,1.5765991-1.6337891
	l0.0222168-0.0234375c0.5233765-0.5480957,1.0610352-1.1184692,1.6047974-1.699585
	c0.1135864-0.1213989,0.2261353-0.2412109,0.3403931-0.3638916c0.5440063-0.5839233,1.0953369-1.1818237,1.6538086-1.7937012
	c0.0963135-0.1055908,0.1931763-0.2131348,0.289917-0.3195801c0.522583-0.5757446,1.0493164-1.1623535,1.5800781-1.7597046
	c0.0792236-0.0891113,0.1572266-0.1758423,0.2365112-0.2654419c0.572998-0.6477051,1.1480713-1.3070679,1.7254028-1.9782715
	c0.1195679-0.138916,0.2390747-0.2781982,0.3583984-0.4177856c0.5330811-0.6226196,1.0654907-1.2526245,1.59729-1.8898315
	C62.1182861,46.0958252,61.9796143,46.2819824,61.8314209,46.4727173z M69.9154053,28.9337158v-0.0001221
	c-0.4609985,0.7875977-0.984375,1.5424805-1.4351196,2.3348999c-0.3933105,0.7283325-0.8394775,1.4268188-1.3347778,2.0900269
	c-0.5510254,0.710083-1.1550903,1.4018555-1.6629028,2.1431885c-0.3201294,0.4663696-0.4859009,1.02948-0.7926025,1.4960938
	c-0.4049683,0.6160889-0.9390869,1.1583252-1.3649902,1.763916c-0.2665405,0.3789673-0.517334,0.7696533-0.8024292,1.1350708
	c-0.5348511,0.6359253-1.1054077,1.2410889-1.7088013,1.8125c-0.5944824,0.6057129-0.9766846,1.2897339-1.5141602,1.9346313
	c-0.6275024,0.7528687-1.2612305,1.5005493-1.9012451,2.242981c-0.6189575,0.7183228-1.2570801,1.4205933-1.8869629,2.1293945
	c-0.4002075,0.4503174-0.800415,0.9005737-1.2008057,1.3508301c-0.4879761,0.5489502-0.8909302,1.1725464-1.3848267,1.7303467
	c-1.2019653,1.357605-2.5673828,2.5490112-3.8219604,3.84552c-1.2297974,1.2711182-2.4735107,2.5286255-3.7310181,3.7727051
	c-0.8098145,0.8009033-1.6256714,1.5957031-2.4475708,2.3842773c-0.237915,0.2307129-0.5540161,0.3632202-0.8853149,0.3713379
	c-0.3312988,0.0080566-0.6534424-0.1088257-0.9023438-0.3276367c-3.071167-2.6853027-16.7225952-14.6729736-16.7648926-14.6920776
	c-0.5866699-0.4161987-1.1226807-0.8997192-1.5968018-1.4406128c-0.9418945-0.8515625-1.9168701-1.6748657-2.8270874-2.5548096
	c-0.3369141-0.3255615-0.6737671-0.6518555-1.0274658-0.9593506c-0.3648071-0.25354-0.704895-0.5407104-1.0158081-0.8579102
	c-0.4855347-0.5784912-0.8771973-1.2296143-1.1610107-1.9295044c-0.4207153-1.2770996,0.1976929-2.4000854,0.6005859-3.5847168
	c0.0098267-0.0288086,0.0029907-0.0579224,0.0112915-0.086792c0.0576172-0.1921997,0.0834351-0.392395,0.0765991-0.5928955
	c-0.0009766-0.0214844,0.0057983-0.0429077,0.0042114-0.0640869c-0.0197144-0.2140503-0.0764771-0.4229126-0.1677856-0.6174316
	c-0.0792236-0.1358643-0.1583252-0.2717896-0.2374878-0.4075928c-0.0453491-0.0466919-0.0930176-0.0908813-0.1429443-0.1325684
	c-0.1828003-0.1893311-0.4043579-0.336853-0.6495972-0.4324341c-0.2451782-0.0955811-0.5081787-0.1370239-0.770874-0.1213989
	c-0.0283813,0.001709-0.0540771,0.0112915-0.0822754,0.0142212c-0.0582275,0.0070801-0.1159058,0.0170898-0.1731567,0.0299683
	c-0.0428467,0.008728-0.0861816,0.0042114-0.1288452,0.0159912c-0.0174561,0.0049438-0.0349121,0.0097046-0.0529175,0.0154419
	c-0.4022827,0.1167603-0.8132935,0.2011719-1.2290039,0.2522583c-0.7385864,0.1434937-1.4935303,0.1834106-2.242981,0.1185303
	C9.4375,32.9830933,7.3753052,32.3604736,5.5345459,31.296814c-0.1842651-0.1223145-0.3540039-0.2651367-0.5060425-0.4257202
	c-0.0338745-0.0357666-0.0562744-0.0692749-0.0852051-0.104187c-0.0855103-0.1000977-0.159668-0.2094116-0.2211914-0.3258057
	c-0.0132446-0.0264893-0.02771-0.0534058-0.0386353-0.0789795c-0.0524902-0.1188965-0.0894775-0.2441406-0.1100464-0.3724365
	c-0.0344849-0.2645874-0.0246582-0.532959,0.0291138-0.7943726c0.3184814-1.1898193,0.8964233-2.2943115,1.6923218-3.234314
	c1.9539795-2.5299072,4.7561646-4.3513184,7.2363281-6.317627c2.588623-2.0523682,5.2147217-4.0731812,7.6663818-6.2995605
	c0.6183472-0.5614014,1.2280273-1.1329956,1.8696289-1.6676025c1.3134766-1.0946045,2.7496948-2.0268555,4.1564941-2.9941406
	C27.9326172,8.1945801,28.6359253,7.697876,29.3125,7.1661987c0.3369141-0.2647705,0.6671753-0.5380249,0.9876709-0.8224487
	c0.359436-0.3637085,0.7435303-0.7021484,1.1496582-1.0128784c0.2914429-0.2553711,0.6015625-0.4887695,0.9277954-0.6981812
	c0.9516602-0.4647827,1.9956665-0.7096558,3.0547485-0.7164307c1.2661133-0.0084229,2.5014038,0.390564,3.5232544,1.1380615
	c0.2893677,0.2030029,0.5355835,0.4616089,0.723999,0.7606201c0.1452026,0.2807007,0.2330933,0.5874023,0.258667,0.9024048
	c0.0255127,0.3149414-0.0117798,0.6317749-0.1098633,0.9321899c-0.2073364,0.506897-0.3613281,1.0340576-0.4596558,1.5728149
	c-0.015564,0.2860107,0.0265503,0.5722046,0.1237183,0.8416748c0.097229,0.2693481,0.2474976,0.5164795,0.4421387,0.7265625
	c0.1945801,0.210083,0.4294434,0.3790283,0.6906738,0.496521c0.2611084,0.1176147,0.5432739,0.1813965,0.8295898,0.1878052
	c0.6851196-0.0302124,1.3341064-0.2946167,2.0292969-0.3187256c0.7711182-0.02771,1.5401001,0.0961914,2.2634888,0.364624
	c0.5482178,0.2131958,1.0710449,0.4865723,1.5587158,0.8153687c0.3964844,0.2774048,0.7644043,0.593689,1.0982056,0.9442139
	c0.4088745,0.3466187,0.847229,0.6569824,1.3101196,0.9274902c0.5910645,0.3575439,1.1503906,0.7653198,1.6716919,1.218689
	c0.4219971,0.3430176,0.8771973,0.6431274,1.3588867,0.895813c0.4981079,0.3101196,0.9992065,0.6154175,1.5003052,0.9207153
	c0.5241089,0.319397,1.0480957,0.6386719,1.5720215,0.9580078c1.3083496,0.7536011,2.5588989,1.6035156,3.7411499,2.5426025
	c0.3400269,0.2841797,0.6678467,0.583313,1.0184326,0.8543701c1.7249146,1.3334351,3.7921753,2.2233887,5.4750977,3.604126
	c0.3833008,0.2808838,0.7819824,0.539978,1.194397,0.7758789c0.8010864,0.5155029,1.5579224,1.0637207,2.3444824,1.592041
	c0.2171021,0.1435547,0.371521,0.3644409,0.4317017,0.6176758C70.0831299,28.440979,70.0446777,28.7077026,69.9154053,28.9337158z
	 M32.3596802,29.6599731c0.2960205-0.6847534,0.4244995-1.4303589,0.3746948-2.1747437v-5.187439
	c-0.0178833-0.6072998-0.1369629-1.2073975-0.352356-1.7753906c-0.3718872-0.8889771-0.8964233-1.7061157-1.5498047-2.4144287
	l-1.1171265-1.3036499l-3.3917847,2.8067017c-0.2122192-0.3638306-0.3267212-0.776123-0.3325806-1.1971436
	c0-0.2481079,0.2260742-0.5805664,0.6784058-0.9976807l0.6251831-0.5585938l-1.5430298-1.7028198
	c-0.6029663,0.4865112-1.1397095,1.0501099-1.5961914,1.6762085c-0.1503906,0.2200317-0.2647705,0.4625244-0.3389893,0.7183838
	c-0.0722046,0.2869263-0.1057739,0.5820923-0.0996704,0.8778076c0.0998535,0.7054443,0.3061523,1.3915405,0.6117554,2.0350342
	c0.1873169,0.425293,0.2997437,0.8798828,0.3322144,1.3435059v7.7547607
	c-0.1671143-0.0271606-0.3361206-0.0405884-0.5053711-0.039978c-1.6408081,0-2.6339111,1.2149048-2.9793091,3.6444702h2.2608643
	c0.1773071-0.9130859,0.4168091-1.369751,0.7185059-1.3700562l-0.000061-0.0001221
	c0.1697998,0.0012207,0.3390503,0.0189819,0.5053711,0.0532837V37.84729h2.2747192v-4.9614868l1.3435059,0.6784058
	l2.7533569-2.1414185C31.6083984,30.9490967,32.0635986,30.3447876,32.3596802,29.6599731z M30.460083,27.4852295
	c0.0367432,0.4046631-0.0209961,0.8125-0.1687622,1.190979c-0.1478271,0.3786011-0.3815918,0.7177124-0.6829224,0.9904785
	l-1.5690918,1.2503052c-0.1066284-0.0620117-0.2174072-0.1218872-0.3325806-0.1795654
	c-0.1157227-0.0574341-0.3729248-0.192627-0.7717285-0.4056396v-8.2600708l2.5274048-2.1015015
	c0.5805054,0.6442871,0.9312744,1.4627686,0.9976807,2.3275757V27.4852295z M40.4746094,48.1193848
	c-0.4417114-0.5629883-0.7628174-1.2108154-0.9432373-1.9032593c-0.0910645-0.4509277-0.1355591-0.9099121-0.1327515-1.369812
	v-8.3933105c-0.6169434,0.1010742-1.1879883,0.3887939-1.6362305,0.824585l-0.3192139,0.2659302l-1.1704712-1.8088989
	l0.7451172-0.5319214c0.7367554-0.6011963,1.644165-0.9550171,2.5935059-1.0109863l1.1836548-4.0964966l2.1815186,0.5852051
	l-1.0109863,3.5112915h2.3811646v2.2612915h-2.6999512v4.9348145c0,1.0111084,0.0020752,1.9620972,0.0063477,2.8530884
	c-0.0358887,0.7036743,0.1035156,1.4052734,0.4056396,2.0418091c0.3377686,0.5449829,0.7921143,1.0083618,1.3302612,1.3568726
	l-1.2902832,1.848938C41.4691162,49.1484985,40.9161987,48.682373,40.4746094,48.1193848z M58.3035889,36.0380859
	l-3.5913086,2.793396c-2.5185547-0.7271729-3.777771-2.2348022-3.7776489-4.5227661v-5.8392944
	c-0.0481567-0.7752075,0.0744629-1.5516357,0.3592529-2.274231c0.3887329-0.8547974,0.9995117-1.5897827,1.7689209-2.1281738
	l2.8466187-1.9954224l2.6734009,5.0812988l-1.848938,1.1038208l-1.5828857-2.8998413l-0.7846069,0.559021
	c-0.3917847,0.2949219-0.7041016,0.6828003-0.9083862,1.1286011c-0.2044067,0.4458008-0.2944336,0.9356079-0.2620239,1.4249268
	v5.8392944c-0.0300903,0.3970947,0.0557251,0.7944946,0.2469482,1.1439819
	c0.1911621,0.3494263,0.4795532,0.6359253,0.8302612,0.8248291l2.7005005-2.1016235L58.3035889,36.0380859z M35.2122803,8.6740723
	c0.3015137-0.0870361,0.6241455-0.0632935,0.9096069,0.0670166c0.2855225,0.130249,0.5148315,0.3583984,0.6466064,0.6431885
	c0.0861206,0.2062378,0.0985107,0.4730225,0.2406006,0.618042c0.1604004,0.1636963,0.2974854,0.2041626-0.0131836,0.3280029
	c-0.3251953,0.1276855-0.6213379,0.3197632-0.8704834,0.5646973c-0.2492065,0.244873-0.4464111,0.5375977-0.5797119,0.8604736
	c-0.050293,0.1135254-0.21521,0.1762085-0.3272095,0.2623291c-0.0836792-0.1591187-0.2786865-0.3746338-0.2318115-0.4675293
	c0.1968994-0.3911743,0.4373169-0.7590942,0.7164917-1.0966187c0.2479248-0.2970581,0.5767212-0.5256348,0.8424072-0.8101807
	c0.0330811-0.0355225-0.102417-0.2284546-0.2310181-0.3886108C35.953186,9.2549438,35.6624146,9.3265991,35.37323,9.321167
	c-0.0751343-0.0106812-0.1465454-0.039917-0.2075195-0.085022c-0.0610962-0.045105-0.1099243-0.1047363-0.1422119-0.1734619
	c-0.0039673-0.0754395,0.0112305-0.1506958,0.0441895-0.218689C35.1008301,8.776062,35.1505127,8.7175293,35.2122803,8.6740723z
	 M64.7131958,32.4761963c-0.1671143,0.2000732-0.3179932,0.413208-0.4509888,0.6373901
	c-0.0587158,0.1596069-0.1604004,0.2996826-0.2941284,0.4047241c-0.133606,0.1049805-0.2937622,0.1708984-0.4626465,0.1901855
	c-0.5108032,0.0499268-1.0984497-0.0643921-1.3444214,0.6005249c-0.1594238-0.0430298-0.3157959-0.0963135-0.4682007-0.1595459
	c-0.3222046-0.1424561-0.5169067-0.1560059-0.4824829,0.2116089c0.0134888,0.1434937,0.0163574,0.2879028,0.0239868,0.4320068
	c-0.0906982-0.0905762-0.1729126-0.18927-0.2456055-0.2949219c-0.0932007-0.1622925-0.2698975-0.4275513-0.21698-0.4938965
	c0.1535034-0.1985474,0.366394-0.3429565,0.6077881-0.4120483c0.4703979-0.0375977,0.9382935-0.1015015,1.4016113-0.1915283
	c0.3251953-0.1126709,0.5710449-0.4537964,0.8528442-0.6925049c0.1105347-0.0935669,0.2145386-0.2495728,0.3355103-0.2645874
	C64.2177734,32.4318237,64.4667969,32.442688,64.7131958,32.4761963z M17.4238281,30.8594971
	c0.1384888-0.4207764-0.1818237-0.4807739-0.385437-0.5446167c-0.3004761-0.0940552-0.3872681,0.0957031-0.3023682,0.3873901
	c0.0102539,0.0353394-0.1550293,0.1663208-0.2435303,0.1713257c-0.0708008,0.0040283-0.1724854-0.102417-0.2191162-0.1835938
	c-0.1782837-0.3109741-0.3429565-0.630127-0.5050049-0.9498901c-0.0322876-0.0638428-0.0687866-0.1744995-0.0387573-0.2122192
	c0.1328125-0.1668701,0.2890625-0.3151855,0.4368896-0.4700928c0.043396,0.1491699,0.1544189,0.3184204,0.1176147,0.4442139
	c-0.1174316,0.4021606,0.0003052,0.4359131,0.3804932,0.3902588c0.989563-0.1185913,1.2015991,0.1269531,1.2266846,1.1343994
	c0.0101318,0.4037476,0.1589966,0.8041382,0.2044067,1.2770996C17.6365967,31.9550781,17.2081909,31.5145874,17.4238281,30.8594971z
	 M41.1723022,57.6715088c0.1199951-0.0145874,0.2606201,0.1378784,0.3917236,0.2142944
	c-0.1307983,0.1195068-0.2523193,0.3265991-0.3944092,0.3417969c-0.3901367,0.0465698-0.78479,0.0393677-1.1729126-0.0214233
	c-0.1177979-0.0211792-0.2301025-0.0656738-0.3303833-0.1308594c-0.1004028-0.0652466-0.1867065-0.1497192-0.2539062-0.2485962
	c-0.1090088-0.2042236-0.2966919-0.4524536,0.1283569-0.7376099c0.3708496-0.2489014,0.5111084-0.8348389,0.7704468-1.2615356
	c0.0491943-0.0809937,0.1784058-0.1134033,0.2706909-0.1681519c0.0010986,0.111084,0.0443726,0.246582-0.003479,0.3294678
	c-0.3161011,0.5471191-0.1203003,0.8032227,0.4749756,0.9199829c-0.2807007,0.1376953-0.5838013,0.2015991-0.8703003,0.3094482
	c-0.1469116,0.0778809-0.2827759,0.1748657-0.4041748,0.2884521c0.1676636,0.132019,0.3343506,0.3708496,0.5031738,0.3722534
	c0.3007202-0.0511475,0.5980225-0.1204224,0.8901978-0.2076416V57.6715088z M46.0098877,19.1591187
	c0.0580444,0.2158813,0.1650391,0.4154663,0.3127441,0.583252c0.147644,0.1678467,0.3320923,0.2993164,0.5388794,0.3842163
	c0.0637817,0.0332031,0.0899048,0.1390381,0.1333618,0.2113037c-0.1021729,0.0198364-0.2369995,0.0910034-0.3008423,0.0505371
	c-0.2451172-0.1588135-0.4782104-0.3355103-0.6972046-0.5288086c-0.1878052-0.1628418-0.3409424-0.3661499-0.5311279-0.5256348
	c-0.3502808-0.2937012-0.545166-0.0773926-0.6690063,0.2470093c-0.0759888,0.1989136-0.0941162,0.4205933-0.1768188,0.6159058
	c-0.0263672,0.0460815-0.0635986,0.085083-0.1083984,0.1137085c-0.0447998,0.0285645-0.0957642,0.0460205-0.1487427,0.0505981
	c-0.0727539-0.003418-0.1700439-0.1231079-0.2036133-0.2114868c-0.1735229-0.4562988-0.3693237-0.9293213,0.3623657-1.097229
	c0.050293-0.0115967,0.0770264-0.1259766,0.2263184-0.2235718C45.3549194,18.5726929,45.8587036,18.6068726,46.0098877,19.1591187z
	 M38.5806885,55.7426147c-0.3189087,0.2058105-0.5961914,0.4760742-0.9475708,0.7334595
	c0.1173096-0.3361816,0.2561035-0.6644897,0.4155884-0.9827881c0.1531982-0.3233643,0.2907715-0.5692749,0.7520752-0.3360596
	c0.1343384,0.0679932,0.5039062-0.2191162,0.6987305-0.4112549c0.1911621-0.2278442,0.3579102-0.4751587,0.4973145-0.737854
	c0.0410767,0.4367676,0.3649902,0.6156616,0.7237549,0.8327026c-0.2666626,0.3401489-0.770752-0.1603394-0.991272,0.3401489
	c-0.2265015,0.5144043-0.791626,0.3311157-1.1486206,0.5615234V55.7426147z M33.079895,38.1528931
	c-0.675293,0.4035034-1.3626709,0.7866211-2.0866699,1.2471313c-0.4070435,0.2218628-0.6512451,0.2315674-0.7562256-0.2752075
	c-0.0797119-0.3859253,0.0823975-0.4221191,0.3615723-0.5258179c0.7990112-0.296814,1.7340088-0.2302856,2.4044189-0.8853149
	c0.0241699-0.0234985,0.1679077,0.0754395,0.2559814,0.1171875C33.2008057,37.9407959,33.1712036,38.0985107,33.079895,38.1528931z
	 M33.0029297,37.7136841h0.000061l0,0H33.0029297z M48.7902832,32.8568726
	c0.0031128,0.0535278-0.1503906,0.1772461-0.1850586,0.1619263v0.0001221
	c-0.1954346-0.119812-0.3989258-0.225647-0.6092529-0.3168335c-0.1816406-0.0148926-0.364563,0.0029907-0.5401001,0.0527344
	c0.0910034,0.1149902,0.1586304,0.2844849,0.2771606,0.3355713c0.6039429,0.2601318,0.0839844,0.7406006,0.2640991,1.1947021
	c0.0066528,0.1494751-0.0084229,0.2993164-0.0449219,0.444519c-0.1002197-0.0567017-0.2623901-0.092041-0.2905273-0.173645
	c-0.2019653-0.5849609-0.3827515-1.1775513-0.5493774-1.7736816c-0.0150146-0.0531616,0.104126-0.1743164,0.1854248-0.2185059
	c0.3494873-0.189209,0.7039795-0.3703613,1.0645752-0.5377808c0.5830688-0.2706909,0.2996216,0.1737671,0.3212891,0.3861084
	C48.6989136,32.5626221,48.7816162,32.7070923,48.7902832,32.8568726z M32.7926025,14.3817749
	c-0.5700073-0.3212891-1.1563721-0.6134033-1.7319946-0.9251709c-0.0751953-0.0557251-0.1422119-0.121582-0.1992188-0.1956787
	c0.0602417-0.038147,0.1204834-0.1088257,0.1807861-0.1089478c0.2841187-0.0264893,0.5704346-0.0125732,0.850647,0.0411987
	c0.6207886,0.1853027,1.2240601,0.4294434,1.9459839,0.6188354c0.1749878,0.0545654,0.3120728,0.1806641,0.2908936,0.2188721
	c-0.1707764,0.1733398-0.3850708,0.2973022-0.6204224,0.3591309C33.2739868,14.4517212,33.0264282,14.4489136,32.7926025,14.3817749
	z M36.0875854,12.8554077c0.1682129,0.0393677,0.3323364,0.0947876,0.4899902,0.1654053
	c-0.0490723,0.1141968-0.0669556,0.2689819-0.1530762,0.3345947c-0.2230835,0.1741943-0.4661255,0.321106-0.723999,0.4378052
	c-0.0671997,0.0227661-0.1386719,0.0299072-0.2089844,0.020813c-0.0704346-0.0092163-0.1376953-0.0344238-0.1967163-0.0736084
	c-0.5303955-0.463501-1.0390015-0.9519043-1.5703735-1.4877319c0.3447876,0.0057373,0.6875,0.0546875,1.0200806,0.145813
	c0.2078247,0.0397949,0.3952026,0.151123,0.5297852,0.3145142C35.5056152,13.1414795,35.6489868,13.6571045,36.0875854,12.8554077z
	 M61.5620728,26.685791c-0.1647949-0.0543823-0.3210449-0.1343994-0.4812012-0.203064
	c0.1623535-0.1390381,0.3030396-0.3421021,0.4908447-0.4058228c0.2207642-0.0350952,0.4464722-0.0241089,0.6629028,0.0322876
	c0.2163696,0.0563965,0.4188843,0.1569214,0.5944824,0.2952271c0.1757202,0.1383667,0.3209229,0.3114624,0.4265137,0.508667
	c0.1054688,0.1971436,0.1691895,0.4139404,0.1868896,0.6369019c-0.0183105,0.1790161-0.2504883,0.3359985-0.3840942,0.5032349
	c-0.105835-0.1730347-0.3433838-0.4327393-0.2958984-0.5050049c0.3181152-0.4846191-0.0668945-0.5870361-0.4649048-0.7245483
	c-0.2501221-0.0141602-0.4973145-0.0605469-0.7355347-0.1380005V26.685791z M27.8959961,44.2097778l-0.0001221,0.0001221
	c-0.1803589,0.0881958-0.3731689,0.1488037-0.5716553,0.1796875c-0.6443481,0.0098877-1.0829468,0.5496826-1.760437,0.3356934
	c-0.1809692-0.0571899-0.4829712,0.3164062-0.697876,0.7254028c-0.039978-0.0581665-0.0797119-0.1167603-0.1253052-0.1709595
	c-0.086792-0.098938-0.1967163-0.1746216-0.3200073-0.2203979c0.5809937-0.6870117,1.3685303-1.1679077,2.2449951-1.3711548
	c0.3181152-0.0339966,0.6398315,0.0093994,0.9375,0.1266479C27.7293091,43.8538208,27.7999878,44.0726929,27.8959961,44.2097778z
	 M52.760498,45.2277832c0,0.000061,0,0.000061,0,0.0001221c-0.000061,0-0.000061,0-0.0001221,0L52.760498,45.2277832z
	 M52.760498,45.2279053c0.2954712,0.0377808,0.6923828,0.0422363,0.6984863,0.5010986
	c-0.0031128,0.0291748-0.0076904,0.0581665-0.013855,0.086792c-0.0435181-0.0073853-0.0857544-0.0170898-0.1298218-0.0233765
	l-0.0510254,0.4993286v0.000061v0.0001831c-0.149353,0.1613159-0.3432617,0.2747192-0.5571899,0.3256836
	c-0.5286865,0.1459351-1.0750122,0.4734497-1.5914917-0.0247803c-0.0825195-0.1060791-0.1497192-0.2233887-0.1995239-0.3483276
	c0.1254272-0.036377,0.2706299-0.1327515,0.3731079-0.0990601c0.2459106,0.0831909,0.5076904,0.1085815,0.7651367,0.0740967
	c0.2573853-0.0344238,0.5032959-0.1278076,0.718689-0.2728271C53.4821777,45.5647583,52.6261597,45.479126,52.760498,45.2279053z
	 M44.7208862,15.5180054c0.2211304-0.149292,0.4331055-0.3117065,0.6348267-0.4863892
	c0.0357056-0.0549927,0.0678101-0.1122437,0.0958862-0.1715088c0.0917969-0.2803955,0.1809082-0.5615845,0.270874-0.8427124
	c0.1733398,0.0726318,0.3158569,0.2033081,0.4032593,0.3696899c0.0872803,0.1663208,0.1139526,0.3577881,0.0754395,0.541687
	c-0.4139404,0.4373169,0.5294189,1.0698242-0.2473755,1.3685303c-0.1643066,0.0631104-0.3339844,0.1121216-0.5010986,0.1674805
	c0.0797119-0.1286621,0.1688843-0.2528076,0.2368164-0.3873901c0.0753174-0.1495972,0.1312866-0.309021,0.1956787-0.4641113
	c-0.1646729-0.0726929-0.3374634-0.1253662-0.5147095-0.1568604C45.1525879,15.458374,44.9353027,15.4790039,44.7208862,15.5180054z
	 M47.6375122,42.2144165v-0.0001221c-0.1716309-0.0454712-0.4412842-0.0380249-0.4990234-0.1447754
	c-0.3485718-0.6470337-0.7033691-1.0715332-1.3638916-0.3092041c-0.0286255,0.032959-0.1843872-0.0441895-0.2808838-0.0701294
	c0.0593872-0.2321167,0.161499-0.4511108,0.3012085-0.6456909c0.6776733-0.0234985,1.2446899-0.0263672,1.8095093,0.007019
	c0.0569458,0.0033569,0.1461792,0.2285767,0.1416626,0.3479004C47.7241821,41.6727905,47.6879883,41.9448242,47.6375122,42.2144165z
	 M30.2070312,8.5303955v-0.000061c0.086853-0.4458008,0.1762695-0.7601318,0.6814575-0.8475952
	c0.1473389-0.0254517,0.2655029-0.2188721,0.508606-0.3662109c0.2796021-0.1574707,0.4396362-0.3005981,0.6246948-0.3931885
	c0.1044312,0.0823364,0.1896973,0.1864624,0.2501221,0.3049927c-0.1945801,0.2958374-0.4464111,0.5496826-0.7407227,0.7466431
	c-0.3800049,0.1832275-0.8017578,0.2354126-0.7069092,0.8126831c-0.1306763,0.0730591-0.2781982,0.1107178-0.4279785,0.1091919
	C30.2371216,8.8712769,30.1546021,8.7988281,30.2070312,8.5303955z M27.8093872,11.6552734
	c-0.0827637-0.1954956-0.1131592-0.4091797-0.0881958-0.6200562c0.2678833-0.100647,0.5523071-0.1498413,0.8384399-0.1451416
	c0.215271,0.0096436,0.4255981,0.0686035,0.6144409,0.1724243c0.0967407,0.050293,0.1311035,0.2202759,0.1937256,0.3361816
	c-0.1237793,0.0422363-0.2512207,0.0728149-0.3806152,0.0914307c-0.0639648,0.0042114-0.1289673-0.0884399-0.2001953-0.1019287
	c-0.166687-0.0314941-0.3375854-0.0418701-0.5067139-0.0606689c0.0539551,0.1499634,0.1177979,0.2960815,0.1913452,0.4375
	c0.1588745,0.189209,0.2930908,0.3978882,0.3991699,0.6210938c0.0175171,0.2290649-0.0065918,0.4594727-0.071106,0.6799927
	c-0.085083-0.1500854-0.1647949-0.3035889-0.2578735-0.4484863c-0.0651245-0.074585-0.142395-0.1376343-0.2286377-0.1863403
	c-0.2012939-0.2353516-0.3706665-0.4961548-0.5037842-0.7758789V11.6552734z M37.5327759,11.5814819v-0.000061
	c-0.2843018,0.4497681,0.1797485,0.4556885,0.3583984,0.6466064c0.0802002,0.1347656,0.1335449,0.2839966,0.1567993,0.4390869
	c-0.2056885-0.0405273-0.414856-0.0603027-0.6245728-0.059021c-0.1472168,0.0018311-0.2904053-0.0482178-0.40448-0.1412964
	c-0.1893921-0.2064209-0.4940186-0.4262085-0.5038452-0.6513672c-0.0157471-0.3656006,0.3275146-0.5453491,0.6919556-0.5862427
	c0.1773682-0.0199585,0.3563843-0.0261841,0.5345459-0.0386963C37.6726074,11.321228,37.6115723,11.4569702,37.5327759,11.5814819z
	 M47.027832,27.1453247v-0.0001221c-0.3910522,0.1768799-0.7991333,0.3134155-1.2179565,0.4071045
	c-0.2041626-0.0120239-0.4089966-0.0020142-0.6109619,0.0299683c0.0325928-0.1311035,0.0844727-0.2565918,0.1539917-0.3724976
	c0.406311-0.4320068,0.9666138-0.6864014,1.5593262-0.7078857c0.1294556-0.0159912,0.2878418,0.2009888,0.4329834,0.3106079
	C47.2407227,26.9262695,47.1572266,27.0858154,47.027832,27.1453247z M66.440979,27.7747192
	c0.3101196,0.3619995-0.0236816,0.5523682-0.1116943,0.5646973c-0.2200928,0.0407104-0.4259033,0.1375122-0.5975952,0.2810669
	c-0.1716919,0.1434937-0.3034058,0.3290405-0.3823853,0.5383911c-0.0662231,0.1216431-0.2681885,0.1693115-0.40802,0.2509155
	c-0.0614014-0.1687012-0.2041626-0.3591919-0.1663818-0.5015869c0.1011963-0.2778931,0.2675781-0.5275269,0.4852905-0.7276001
	c0.2189941-0.1138916,0.4241943-0.2525024,0.6116943-0.4130249c0.2005005-0.1815796,0.2798462-0.3306885,0.5690918,0.0072021
	V27.7747192z M35.4821777,28.968689c0.2358398-0.3413086,0.6793213-0.673584,0.3935547-1.1931152
	c-0.8450317-0.2010498-0.843811-0.2005615-1.0865479,0.5043335c-0.0245972,0.0712891-0.0935059,0.1300659-0.1074829,0.201416
	c-0.0328979,0.1670532-0.0449829,0.3382568-0.0656128,0.5078735C34.9160156,28.9901123,35.3858032,29.1082764,35.4821777,28.968689z
	 M35.352478,28.6165771l-0.1584473-0.052063C35.3005981,28.4869995,35.3264771,28.5518188,35.352478,28.6165771z
	 M58.6530762,30.9689941c0.0487061-0.2069702,0.1488037-0.3983765,0.2909546-0.5565186
	c0.2354736-0.2472534,0.4859619-0.4794922,0.5507812,0.1218262c0.0695801,0.4724731,0.3112793,0.9025269,0.6785889,1.2075806
	c0.0505981,0.0477295,0.0504761,0.1491089,0.0737915,0.225708c-0.0733032,0.0203857-0.1859131,0.081604-0.2138672,0.0546875
	c-0.4017944-0.3242798-0.883606-0.5341797-1.3946533-0.6077881C58.6265869,31.411377,58.6676025,31.1965942,58.6530762,30.9689941z
	 M10.9282837,28.3483887c0.0762939,0.1179199,0.2302246,0.2485352,0.213623,0.3513184
	c-0.0375366,0.2529907-0.1243896,0.4962158-0.2556152,0.7158203c-0.3145752,0.4956665-0.6705933,0.9638672-1.0640259,1.3995972
	c-0.1045532-0.2789307-0.1152954-0.5842285-0.0305176-0.869751c0.0847778-0.2854614,0.260437-0.5355835,0.5002441-0.7121582
	c0.1470337-0.1865234,0.2703247-0.3905029,0.3671265-0.6074219C10.7396851,28.5250244,10.829895,28.4321289,10.9282837,28.3483887z
	 M43.2528076,12.7839966c0.2005005-0.3460693,0.3037109-0.8045044,0.8886108-0.8364868
	c0.2478027,0.0410767,0.484314,0.1334839,0.694397,0.2711792c0.1309814,0.1652222,0.2310791,0.3527222,0.2954712,0.5534058
	c-0.1519775-0.0092163-0.3013916-0.0430908-0.4423828-0.1005249c-0.5252075-0.3268433-0.6989136,0.2504272-1.0252075,0.4054565
	c-0.1350098,0.0640869-0.1513062,0.2583618-0.3986206,0.1297607C42.9384766,13.0371704,43.1843872,12.9022217,43.2528076,12.7839966
	z M27.4556274,46.8134766v-0.000061V46.8134766L27.4556274,46.8134766z M27.4556274,46.8134766
	c0.0072632,0.1500854-0.0067139,0.3002319-0.041748,0.4463501c-0.1572876-0.1893311-0.2792969-0.4438477-0.4801636-0.5530396
	c-0.3181152-0.1732178-0.5571289-0.859314-1.0635986-0.2467651c-0.1115112-0.1705322-0.300293-0.3376465-0.3082275-0.5126953
	c-0.0053711-0.1244507,0.3355103-0.3830566,0.3483887-0.3723145C26.3959961,45.9771729,27.2498779,45.8945923,27.4556274,46.8134766
	z M33.317627,5.5844116c-0.1114502-0.1975098-0.2109375-0.4016113-0.2978516-0.6110229
	c-0.0166626-0.0621338,0.2032471-0.2670898,0.2369995-0.2503052c0.230835,0.1153564,0.6460571,0.3515625,0.6258545,0.4036865
	c-0.2084351,0.5396118,0.3322754,0.8260498,0.3724976,1.260498c-0.0028076,0.1325684-0.0211182,0.2643433-0.0544434,0.3927612
	c-0.126709-0.0821533-0.2922974-0.137207-0.3722534-0.2519531C33.633606,6.227417,33.4628296,5.9119263,33.317627,5.5844727
	V5.5844116z M19.1646729,23.6860962h-0.000061c-0.0692139-0.0369873-0.1923828-0.0670166-0.1984253-0.1124878
	c-0.0315552-0.2388916-0.1322632-0.5422974-0.0278931-0.7124023c0.0518188-0.1240845,0.1395264-0.2299194,0.251709-0.3040161
	c0.1123047-0.0740967,0.2440186-0.1130981,0.378479-0.1120605c0.1345215,0.0010986,0.265625,0.0420532,0.376709,0.117981
	c0.111084,0.0758057,0.1970825,0.1829834,0.2470093,0.3078613c0.0991211,0.2267456,0.1685791,0.46521,0.2067871,0.7097168
	C19.9984131,23.6660767,19.5523071,22.9403687,19.1646729,23.6860962z M9.3133545,46.4586182
	c-0.0265503-0.3126221-0.0944214-0.6420288-0.005188-0.6921997c0.3358154-0.1890259,0.3237915,0.1531982,0.3874512,0.3463745
	c0.0684204,0.177124,0.1156616,0.3616333,0.1407471,0.5498047c0.0020752,0.0264893-0.041626,0.0701904-0.0871582,0.1082153
	c0.2436523-0.1146851,0.4873047-0.2293091,0.7310791-0.3439941c0.0103149,0.0249634,0.0331421,0.0527954,0.0281982,0.0741577
	c-0.0255737,0.0599365-0.0568848,0.1171265-0.0935669,0.1708374c0.1098022,0.3158569,0.2553101,0.6182861,0.4334717,0.9011841
	c0.1437988,0.1987915,0.2756958,0.4060059,0.3948364,0.6204834c0.0418701,0.0932007-0.0463257,0.2449341-0.0754395,0.3699951
	c-0.111084-0.0535889-0.269104-0.0777588-0.3250122-0.1663818c-0.18927-0.2998047-0.3361816-0.6260986-0.5125732-0.9345703
	c-0.0654297-0.1246338-0.1557007-0.2344971-0.2651978-0.322937c-0.163147-0.1044922-0.333374-0.1972656-0.5095825-0.27771
	l0.052002-0.0244751c-0.1276855-0.1000977-0.2286987-0.2302246-0.2940063-0.3787231L9.3133545,46.4586182z M49.3745728,38.4273071
	c0.5875244-0.7363892,0.9924316-0.0484009,1.4230347,0.1787109c0.3117065,0.2286987,0.5731201,0.5188599,0.7681885,0.8526611
	c0.0336304,0.0443115-0.0847168,0.2221069-0.1607056,0.3151245c-0.0140991,0.0172119-0.2272949-0.0615845-0.2406616-0.1206055
	C50.9465942,38.6907959,50.0325928,38.8421021,49.3745728,38.4273071z M42.5780029,57.2136841
	c0.1190796-0.1159058,0.2528076-0.2158813,0.3977051-0.2973022c0.6129761-0.1296997,1.0449829-0.2699585,1.0214844-0.9345703
	c-0.0045166-0.1271973,0.2875977-0.2650146,0.4428101-0.3980103c-0.0233765,0.1541138-0.0285034,0.3104248-0.0153198,0.4656982
	c0.0526123,0.1331177,0.114624,0.2625122,0.1853027,0.3870239c0.0281982,0.0791626,0.0358887,0.2410889,0.0038452,0.2553711
	c-0.5703125,0.2529907-1.1444092,0.4984741-1.7290039,0.7156982c-0.0687256,0.0255127-0.2029419-0.125-0.3067017-0.1939087
	H42.5780029z M36.9942627,6.7262573c0.2489014-0.0338135,0.499939-0.0476685,0.7510376-0.0415039
	c0.2332153,0.0111694,0.46521,0.046936,0.6976318,0.0718384c-0.0377197,0.118103-0.0945435,0.229248-0.1682129,0.3289185
	c-0.2528076,0.2420044-0.4747314,0.5993652-0.9200439,0.3178101c-0.256958-0.1626587-0.5354614-0.2918701-0.7897949-0.458313
	c-0.0879517-0.0575562-0.1317749-0.182251-0.1958618-0.2763062C36.5750122,6.7086182,36.7844238,6.7278442,36.9942627,6.7262573z
	 M8.6945801,26.8041992c-0.1434326,0.0172119-0.2877808,0.0258789-0.4321899,0.0261841
	c0.116272-0.1166992,0.2125854-0.276062,0.3528442-0.34198c0.362793-0.1875,0.7445679-0.3358765,1.1387939-0.4425049
	c0.5119019-0.1168823,0.5424805-0.1035156,0.7715454-0.5045166c0.0780029-0.1034546,0.1691284-0.1964722,0.270813-0.2767944
	c0.003418,0.1459961,0.0574951,0.3173218-0.000061,0.4332275c-0.1365356,0.2752686-0.3260498,0.5241699-0.4788208,0.8395996
	c-0.5705566-0.1807251-1.0797119,0.171814-1.6228638,0.2669067L8.6945801,26.8041992z M20.4860229,37.9014282l-0.0001221-0.0001221
	c-0.1459961,0.1000977-0.6130981-0.1594238-0.8566284-0.3515015c-0.1434937-0.1132202-0.1360474-0.4172974-0.227356-0.7471924
	c-0.1791382-0.421814,0.0123901-0.5407104,0.2619629-0.5383301c0.0748291,0.0098267,0.1463013,0.0366211,0.2090454,0.0784302
	c0.0628052,0.041687,0.1150513,0.09729,0.1529541,0.1624756c0.1136475,0.2391968,0.1858521,0.4959106,0.2138062,0.7592163
	C20.2651978,37.5252686,20.9544067,37.5803833,20.4860229,37.9014282z M45.8137817,45.5529785l-0.000061-0.000061
	c-0.1758423,0.3034058-0.3364258,0.6154785-0.480896,0.9350586c-0.2009277,0.335144-0.3945312,0.3353271-0.5284424-0.1919556
	c-0.0296021-0.6504517,0.1512451-1.0657959,0.7421265-1.1603394c0.2001953-0.0321045,0.5391235-0.0813599,0.5922852,0.008728
	C46.3370972,45.4794922,45.9182739,45.4138184,45.8137817,45.5529785z M11.0806885,50.6083984
	c0.1077271,0.0394287,0.2081299,0.0963135,0.2973022,0.1682739c0.0040283,0.0025024-0.0316162,0.0895996-0.0411987,0.0881958
	c-0.8291626-0.1281738-0.1705933,0.9764404-0.8999634,1.0500488c-0.5064087,0.0509644-0.4577637-0.2216187-0.5072021-0.5535889
	c0.2454834-0.5681152,0.5655518-0.8856201,1.1511841-0.7529297H11.0806885z M40.7241211,15.2529907
	c0.270874-0.6046143,0.5354614-1.213562,0.8509521-1.7944946c0.0380249-0.0701904,0.3677368,0.0181885,0.5623169,0.03302
	c-0.09198,0.1358643-0.1837769,0.2717896-0.3161011,0.4788818c-0.2984619,0.5269775-0.5490723,0.9874268-0.8226929,1.4338989
	c-0.0408936,0.0667114-0.1882935,0.0681152-0.286499,0.0997925C40.7011719,15.4202881,40.7053223,15.3353271,40.7241211,15.2529907z
	 M19.1873779,24.395813c-0.3961792,0.475769-0.3708496,1.3012085-1.2893677,1.4671631
	c-0.2935181,0.0532227-0.4754028,0.0755005-0.6574097,0.0977173c0.0787964-0.1536865,0.1350098-0.421814,0.2401123-0.4428101
	c0.3258057-0.0852051,0.6265869-0.24646,0.8778687-0.4705811c0.2513428-0.2241821,0.4458008-0.5046997,0.5675049-0.8187256
	c0.0437012-0.0807495,0.1796265-0.1118774,0.2727051-0.1660767C19.1975098,24.1757202,19.2435913,24.3283691,19.1873779,24.395813z
	 M65.2255859,34.0081177c0.0281982,0.071106,0.0394287,0.1477051,0.0325317,0.2237549
	c-0.006897,0.0761108-0.0316162,0.1495361-0.0720215,0.2143555c-0.1469116,0.2602539-0.2689209,0.5336914-0.364502,0.8167725
	c0.0822144,0.2969971,0.1403809,0.4812012,0.1813965,0.6690063c0.0039062,0.071106-0.003479,0.142395-0.0217896,0.2111816
	c-0.0571899-0.0187988-0.1289673-0.0214844-0.1691895-0.0585938c-0.1401367-0.0930176-0.2562256-0.2177734-0.3388062-0.3643188
	c-0.0825806-0.1464844-0.1292114-0.3104858-0.1362305-0.4784546c-0.0070801-0.1680298,0.0258179-0.3353271,0.0959473-0.4880981
	c0.0700684-0.1529541,0.175354-0.2869263,0.307251-0.3912354c0.3236084-0.2955933,0.1644287-0.260376-0.031189-0.3922119
	c-0.0871582-0.0795898-0.1621704-0.1716919-0.2224731-0.2731934c0.1367188-0.0167847,0.2752686-0.0101929,0.409668,0.0195312
	c0.0739136,0.0194092,0.142334,0.0559082,0.1995239,0.1065063C65.1528931,33.8737793,65.1973877,33.9370728,65.2255859,34.0081177z
	 M48.5540771,24.5469971c0-0.000061-0.000061-0.000061-0.000061-0.0001221h0.000061V24.5469971z M48.5540161,24.546875
	c-0.1951904,0.0731201-0.5065918,0.2609253-0.5664062,0.2003174c-0.3446045-0.3493042-0.8554077,0.4234009-1.0477905-0.163208
	c-0.0311279-0.0949097,0.5113525-0.3800049,0.7913818-0.5731812c0.1132812-0.0670166,0.2199097-0.1448975,0.3181763-0.232605
	C48.5716553,23.8060913,48.3996582,24.2666626,48.5540161,24.546875z M30.890625,47.9387817
	c0.2234497,0.182312,0.2967529,0.5487061,0.4378662,0.8320923c-0.0744629-0.0588989-0.1589966-0.1036987-0.2495117-0.1322021
	c-0.1435547-0.0159912-0.3360596-0.0403442-0.4248657,0.0357056c-0.0714111,0.0613403-0.0371094,0.2682495-0.0181885,0.4061279
	c0.0281982,0.1276855,0.067688,0.2525024,0.1181641,0.3731079c-0.1248779-0.0463257-0.2490845-0.0947876-0.3748169-0.1386108
	c-0.5301514-0.1843872-0.4564819-0.5-0.1480713-0.9301147C30.4412842,48.1157837,30.4833984,47.6066895,30.890625,47.9387817z
	 M37.1676025,25.9376831c-0.4650879-0.3139648-0.9024048-0.6765137-1.4666748-0.289856
	c-0.0760498,0.052002-0.2883301-0.0334473-0.3431396-0.1327515c-0.0751953-0.157959-0.0943604-0.336792-0.0545044-0.5072021
	c0.0197144-0.0709839,0.2416992-0.0939941,0.3676147-0.0796509c0.5264893,0.0407715,1.0491333,0.12146,1.5632935,0.2415771
	c0.1381226,0.0374146,0.2186279,0.3895264,0.3410034,0.6652222c-0.1275024,0.0836792-0.303772,0.1729736-0.4075928,0.1027832
	V25.9376831z M56.1707764,41.5996094c-0.3847656,0.1945801-0.7713013,0.3867798-1.1662598,0.5588989h0.000061
	c-0.0491943,0.0186157-0.1021729,0.0250854-0.1543579,0.019104c-0.0523071-0.0061035-0.1022949-0.0245361-0.1459961-0.053894
	c-0.0229492-0.0455322-0.0361938-0.0952148-0.0392456-0.1461182c-0.0028687-0.0507812,0.0046387-0.1018066,0.0220947-0.1495972
	c0.4257202-0.1431885,0.2930298-0.4304199,0.187439-0.7659912c0.4473877,0.0507812,0.8909912,0.1303711,1.328064,0.2384033
	c0.071106,0.0271606,0.1381226,0.0639648,0.1990967,0.1094971C56.3320923,41.4815063,56.2545776,41.5452271,56.1707764,41.5996094z
	 M63.4030151,30.3261108c0.0423584-0.4581299,0.449585-0.3980103,0.8497925-0.366333
	c-0.0535889,0.4594116-0.1557007,0.9118042-0.3043823,1.3497314c-0.026123,0.0800781-0.1573486,0.142395-0.2529297,0.1759644
	c-0.0457153,0.0161133-0.1702881-0.0471802-0.1763916-0.0869751c-0.0811157-0.3516235-0.1201172-0.7116089-0.1162109-1.0723267
	L63.4030151,30.3261108z M37.8374023,48.8253784c-0.0717163,0.3880005-0.2081299,0.2076416-0.3170776,0.1141968
	c-0.3546143-0.3035889-0.6924438-0.6275635-1.0223389-0.9581909c-0.0275879-0.0275879,0.0635986-0.2390747,0.0809937-0.2366943
	c0.2723999,0.0422974,0.5413208,0.1044922,0.8046265,0.1860962C37.8867798,48.1229858,37.918396,48.387207,37.8374023,48.8253784z
	 M36.9022827,50.7542725c-0.5769653,0.2471924-1.1557617,0.4907227-1.7402954,0.7191162
	c-0.0730591,0.0285034-0.182373-0.0358887-0.2749023-0.0571899c0.0845947-0.1646118,0.199707-0.3115845,0.3392944-0.4332275
	c0.1859131-0.2086792,0.4205322-0.367981,0.6830444-0.4639893c0.2623901-0.0958862,0.5444946-0.1253662,0.821167-0.0858765
	c0.1005859-0.0001221,0.2011108,0.1057739,0.3016968,0.1625977C36.989502,50.6500244,36.9580078,50.7304077,36.9022827,50.7542725z
	 M36.9024048,50.7542114c-0.000061,0-0.000061,0.000061-0.0001221,0.000061l0,0L36.9024048,50.7542114z M48.4064941,53.3181763
	c-0.0101929,0.093811-0.0354004,0.1853027-0.0744629,0.2712402c-0.3304443,0.562561-0.437439,1.2286987-0.3000488,1.8664551
	c-0.1478882,0.072937-0.3256836,0.1157227-0.3522949,0.0701294c-0.1414795-0.3781738-0.1679688-0.789917-0.0762939-1.1832275
	c0.0917969-0.3931885,0.2977905-0.7505493,0.5921021-1.0270996C48.2453003,53.2841187,48.3352051,53.315979,48.4064941,53.3181763z
	 M9.8864136,28.5244751c-0.0076294,0.0688477-0.1619263,0.1213379-0.2481689,0.1813354
	c-0.0466309-0.0570068-0.0828247-0.1218872-0.1069946-0.1915283c-0.0307007-0.206604-0.0421753-0.4158936-0.0611572-0.6242065
	c-0.2529907,0.020752-0.5039673,0.0608521-0.7507324,0.1202393c-0.1775513,0.0794067-0.3444824,0.180603-0.4970703,0.3012085
	c0.0388794-0.2286987,0.0776367-0.4573364,0.1568604-0.7571411c1.1243286-0.0932007,1.5894165,0.2311401,1.5072021,0.9700928
	H9.8864136z M42.5974121,25.0979004c0.3499146,0.5402832,0.1032715,1.2584229,0.5142822,1.7907104
	c0.008606,0.0109863-0.081604,0.1405029-0.1347656,0.1477661c-0.0986328,0.0132446-0.2791138,0.0027466-0.2945557-0.0426636
	c-0.123291-0.3605347-0.2156982-0.7315063-0.3887939-1.1397095c-0.4853516-0.3259888-0.1386719-0.550293,0.0068359-0.7716064
	c0.0470581-0.0214233,0.0986938-0.0311279,0.1503906-0.0283813c0.0515747,0.0026855,0.1018677,0.0177002,0.1464844,0.0438843
	H42.5974121z M33.1657104,42.8303833c-0.1461792-0.0365601-0.2626343-0.1920776-0.392395-0.2943115
	c0.1596069,0.0100098,0.3198853,0.0010986,0.477417-0.0262451c0.1533813-0.0498047,0.2948608-0.1306152,0.4157715-0.2373047
	c0.0808716-0.0682983,0.0949097-0.2477417,0.1759033-0.2781372c0.1975708-0.0570068,0.4000244-0.0958862,0.6046753-0.116272
	c-0.005188,0.1715088-0.0376587,0.3410645-0.0961914,0.5023804c-0.079895,0.1445923-0.2473755,0.2407227-0.416687,0.4290771
	C33.6829224,42.8743896,33.4202271,42.8814697,33.1657104,42.8303833z M50.4730835,44.3383179h0.0001221
	c-0.0570068,0.4658813-0.1627808,0.9244995-0.3154907,1.3682861c-0.0256348,0.0772705-0.1702271,0.1151123-0.2598877,0.1712646
	c-0.0081177-0.1048584-0.0126953-0.210144-0.0251465-0.3144531c-0.010376-0.1089478-0.0275879-0.2171021-0.0512695-0.3239136
	C49.6427002,44.5131836,49.6414795,44.5134888,50.4730835,44.3383179z M32.3432007,10.5927734
	c0.1218262,0.1398315,0.1884766,0.3191528,0.1878052,0.5045166c0.0023804,0.1296387-0.2092285,0.2728271-0.1921997,0.3908081
	c0.0386963,0.2683105,0.0130005,0.4755859-0.2935791,0.40802c-0.2042236-0.0452271-0.5287476-0.1434326-0.2529297-0.5136108
	c0.0551147-0.0742188-0.0665894-0.2800903-0.0664673-0.496521C31.8889771,10.5543213,32.0487061,10.3187256,32.3432007,10.5927734z
	 M34.2996826,47.2579956c-0.5430908,0.1195068-1.0420532,0.3883057-1.4406738,0.7761841
	c-0.1621094,0.1376343-0.3522339,0.2383423-0.5571289,0.295105c-0.0235596,0.0101318-0.1153564-0.0852051-0.1400757-0.1460571
	c-0.0249023-0.0610352-0.0322876-0.1861572-0.0009766-0.2044067c0.6153564-0.3613281,1.2349854-0.7155151,1.8656006-1.0488281
	C34.0560913,46.9143677,34.1958008,47.1068115,34.2996826,47.2579956z M9.3052368,49.1193848
	c-0.0887451,0.0391846-0.1859741,0.0549927-0.2825317,0.0462036c-0.0965576-0.0089111-0.18927-0.0421753-0.2694092-0.0968018
	c-0.0960083-0.0896606-0.0245972-0.3582764,0.0130615-0.6188965c0.104248-0.0883179,0.2327881-0.1430054,0.3687134-0.1569824
	c0.3150635,0.0054932,0.6298218,0.03479,0.9447021,0.0548096C9.8445435,48.6270142,9.5853882,48.8853149,9.3052368,49.1193848z
	 M49.7678833,18.5839844c0.6867065-0.7179565,0.6896973-0.7207642,1.1798096-0.1744995
	c0.1036377,0.1304932,0.1987305,0.2675171,0.2844849,0.4102173c-0.1436768-0.067627-0.2981567-0.1094971-0.4564819-0.1237183
	c-0.1846924,0.0244141-0.3613892,0.0906982-0.5164795,0.1939087C49.9899292,19.0599976,49.850708,19.0012207,49.7678833,18.5839844z
	 M23.1848755,43.1826782c-0.3659668,0.2593994-0.7615967,0.4742432-1.1783447,0.6396484
	c-0.0981445-0.1222534-0.1800537-0.2566528-0.2436523-0.3998413c0.6060181,0.0618286,0.6154175-0.6456909,1.0306396-0.7969971
	c0.1663818-0.0606079,0.4002075,0.0640259,0.6032715,0.1044312C23.3287964,42.8845215,23.3029175,43.097168,23.1848755,43.1826782z
	 M46.6558838,55.5267944c-0.2227783,0.2069092-0.4752808,0.3793335-0.7490845,0.5114746
	c0.0455322-0.2679443,0.107605-0.532959,0.1859741-0.793396c0.1070557-0.234375,0.2319336-0.4602051,0.3734131-0.6754761
	C47.1019897,54.7598267,46.9342041,55.1785278,46.6558838,55.5267944z M28.8970947,9.9039307
	c0.1013184-0.177063,0.2681274-0.3071899,0.4644775-0.3624878c0.1964111-0.0552368,0.4066162-0.0311279,0.5853271,0.0671387
	c0.0452271,0.0248413,0.0634766,0.1967163,0.0253906,0.2563477c-0.1574707,0.2420654-0.3499146,0.4593506-0.571106,0.6448975
	C29.0905151,10.3707886,28.6289062,10.3662109,28.8970947,9.9039307z M13.387207,20.3687744
	c-0.0842896,0.1640015-0.1990356,0.3103027-0.3381958,0.4313354c-0.3164062,0.1715088-0.5165405,0.3197021-0.7276001,0.4500732
	c-0.1605835,0.0992432-0.335022,0.1759033-0.5032959,0.2626953c0.0474854-0.2053833,0.0267944-0.5046997,0.1555786-0.5980835
	c0.3613892-0.2373657,0.7445068-0.4401245,1.144104-0.6054077C13.1838989,20.2785034,13.2963257,20.3464966,13.387207,20.3687744z
	 M63.7279053,34.8007202c0.1276855,0.4591064-0.3049927,0.2989502-0.4859009,0.4162598
	c-0.1052856,0.0430908-0.2150879,0.074707-0.3272095,0.0942383c-0.2127686,0.0479736-0.4290161,0.0796509-0.6466675,0.0949097
	c-0.0302124,0.0009766-0.0988159-0.1238403-0.0878296-0.1780396c0.0120239-0.0592041,0.1289062-0.156311,0.1434326-0.1472168
	c0.4385986,0.2762451,0.4592896-0.1665649,0.6495972-0.3483887c0.1620483-0.1333618,0.3516846-0.229187,0.5551758-0.2805786
	C63.5571899,34.4428101,63.6912842,34.6696167,63.7279053,34.8007202z M59.8128052,39.7108765h0.0001221
	c-0.0045166,0.1739502-0.0570068,0.3432007-0.1518555,0.4891357c-0.1477661,0.1013794-0.3110962,0.1781006-0.4835815,0.2268677
	c0.0155029-0.1409912,0.0202026-0.2843018,0.0491943-0.4226074c0.0430298-0.2059937,0.1195068-0.4058838,0.1514893-0.6130981
	c0.0355225-0.2290649,0.0368042-0.4632568,0.0529175-0.6952515c0.244812,0.131897,0.4801025,0.2807617,0.7041016,0.4455566
	C59.9130249,39.2573853,59.6282959,39.281189,59.8128052,39.7108765z M26.361145,13.7212524
	c-0.0716553-0.0951538-0.2243652-0.2224731-0.2015381-0.2799683c0.1771851-0.4442749,0.4611206-0.6862793,1.0604858-0.4069824
	c0.184021,0.0153198,0.3591919,0.0858765,0.5023193,0.2025757c0.0314941,0.0411987,0.0521851,0.0897217,0.0603638,0.1409302
	c0.0081177,0.0512085,0.0032959,0.1036987-0.0139771,0.1525879c-0.0314941,0.0411987-0.072876,0.0737305-0.1204834,0.0944214
	c-0.0476074,0.0205688-0.0996094,0.0288086-0.1511841,0.0236816C27.0980225,13.4598999,26.7034912,13.0753174,26.361145,13.7212524z
	 M26.361084,13.7213135c0-0.000061,0.000061,0,0.000061-0.000061l0.000061,0.000061H26.361084z M52.180603,44.15802
	c0.0346069,0.196106,0.0009766,0.3980713-0.0950928,0.5724487c-0.0375977,0.093811-0.026001,0.2072144-0.0773926,0.3828125
	c-0.197937,0.2811279-0.3931274,0.4138184-0.5040894,0.0709229c-0.0334473-0.2086182-0.0096436-0.4224243,0.0687866-0.6185303
	c0.0877686-0.3099976,0.2130127-0.6092529,0.3223877-0.9130859C52.0452881,43.7835083,52.1459961,43.9619141,52.180603,44.15802z
	 M34.5203247,17.2498779c-0.1876221-0.1717529-0.3847046-0.2941895-0.4008179-0.4368896
	c-0.0148315-0.2130127,0.0449829-0.4244995,0.1690674-0.5982056c0.0489502-0.0661621,0.3873291-0.0296631,0.46875,0.0664062
	c0.0979004,0.1583862,0.1304932,0.3485107,0.0908813,0.5303345C34.7969971,16.9932861,34.6801758,17.1494751,34.5203247,17.2498779z
	 M7.6607056,47.4140015c-0.0753784,0.1329956-0.1181641,0.3187866-0.2322388,0.3895264
	c-0.3588257,0.2079468-0.7283936,0.3966675-1.1072388,0.5653687C6.0571289,47.59729,6.8567505,47.7362061,7.1678467,47.430481
	C7.2542114,47.3457031,7.4923096,47.4152832,7.6607056,47.4140015z M33.1602783,8.5990601
	c-0.2200928-0.0317383-0.4423828-0.0477905-0.6636963-0.0706177c0.168335-0.2073364,0.3661499-0.388916,0.5870361-0.5389404
	c0.3051758,0.1727295,0.5456543,0.2952881,0.7700806,0.4424438C33.944397,8.510437,34.024231,8.600769,34.0908203,8.7005615
	c-0.135437,0.0092773-0.2713013,0.0096436-0.4067993,0.0010376c-0.1761475-0.0215454-0.3478394-0.0770264-0.5237427-0.102478
	V8.5990601z M22.0200806,42.1383057c-0.0780029,0.1973877-0.2006836,0.3740845-0.3583984,0.5161133
	c-0.1557007,0.1502075-0.2719116,0.5977783-0.5444946,0.2248535c-0.1176758-0.1610718-0.0169678-0.5869751,0.1275024-0.791748
	C21.3209839,41.9793091,21.7042236,42.0875244,22.0200806,42.1383057z M42.512207,15.0100098
	c-0.2921143-0.2120361-0.2941284-0.5004883-0.1119995-0.9000244c0.2614136,0.1005249,0.2797852,0.0971069,0.315979,0.2888184
	c0.0778198,0.4141846,0.1950073,0.7681885,0.7181396,0.7752686c0.0792847,0.0010376,0.1568604,0.1168213,0.2353516,0.1796265
	c-0.0928955,0.0540161-0.2175903,0.1765137-0.2730713,0.1505737C43.086792,15.367981,42.7905884,15.2025146,42.512207,15.0100098z
	 M53.2487793,20.5311279c0.2391968-0.2848511-0.3416748-0.7929077,0.3776245-1.0080566
	c0.1854248,0.0919189,0.3463135,0.2424316,0.3175049,0.3323364h0.0001221
	c-0.1110229,0.2910767-0.2425537,0.5739746-0.3936157,0.8463745L53.2487793,20.5311279z M44.9987183,39.5136719
	c0.2515869,0.1139526,0.4320068,0.187439,0.6124878,0.2611084c-0.1143799,0.1080933-0.2305908,0.2142334-0.3425293,0.3248291
	c-0.1889038,0.1865845-0.375061,0.3760986-0.5625,0.56427c-0.0356445-0.3074951-0.0528564-0.6170044-0.0515747-0.9265747
	C44.6589966,39.6450806,44.8317871,39.5612183,44.9987183,39.5136719z M12.2556763,26.3040161
	c0.2235107,0.0559692,0.4405518,0.1378784,0.6603394,0.2088013c-0.1646118,0.2357788-0.359314,0.4490967-0.5792847,0.6343994
	c-0.0600586,0.0405884-0.3352051-0.2363281-0.5425415-0.4788208c-0.0233154-0.1431885-0.0357056-0.2879028-0.0368652-0.4329834
	C11.9246216,26.2487183,12.0910034,26.2716064,12.2556763,26.3040161z M15.4194946,30.2247925
	c0.0812988,0.2935181,0.1376343,0.4741211,0.1790771,0.6582031c0.0057373,0.0697021,0.0018311,0.1398926-0.0117798,0.2084961
	c-0.0679932-0.0443115-0.1583862-0.0734863-0.2000122-0.135498c-0.1825562-0.2136841-0.3259888-0.4578247-0.4238892-0.7213135
	c-0.0186768-0.2781982,0.0062256-0.5575562,0.0740356-0.828064C15.1541138,29.6422729,15.2714844,29.8778076,15.4194946,30.2247925z
	 M58.8256836,41.1834717c0.0654907,0.0281982,0.0792236,0.1761475,0.1169434,0.2686157
	c-0.5823364,0.0300293-0.6170044,0.5787354-0.8713379,0.9196167c-0.0932617-0.0881348-0.15979-0.2008057-0.1917725-0.3251343
	C58.1179199,41.1201782,58.2991943,40.9564209,58.8256836,41.1834717z M20.8300171,18.3447266
	c-0.2593384-0.1239014-0.5075073-0.2696533-0.7420044-0.43573c-0.1054077-0.0889893-0.119812-0.2858276-0.175293-0.4338989
	c0.203064-0.0084229,0.5310669-0.0964966,0.5864868-0.0100708C20.6762085,17.7415161,21.140686,17.9251709,20.8300171,18.3447266z
	 M63.2424316,35.9765015c0.0058594,0.0012207-0.0033569,0.1973877-0.0234375,0.2009888
	c-0.2730713,0.0493164-0.5507202,0.0690308-0.828064,0.059021c-0.2728271-0.0461426-0.6051025,0.0187988-0.652832-0.0697021
	c-0.184021-0.3414917,0.1704102-0.3812256,0.354187-0.3735352c0.3873291,0.0328369,0.7717285,0.0941162,1.1501465,0.1833496
	V35.9765015z M14.1903076,22.104126c0.2086792,0.1031494,0.3460083,0.1660767,0.4835205,0.2290649
	c-0.0897217,0.0303345-0.1811523,0.055603-0.2736206,0.0756836c-0.1066284,0.0149536-0.2139893,0.0234985-0.3217163,0.0256958
	c-0.25,0.0116577-0.5003052,0.0206299-0.7504883,0.0305176c0.359314-0.1389771,0.177002-0.5435791,0.2694702-0.6661987
	C13.8383789,21.4790039,14.0200195,21.7976074,14.1903076,22.104126z M48.6146851,20.2407837
	c-0.0904541-0.1224976-0.1342773-0.2731934-0.1237793-0.4251709c0.0057983-0.2770996,0.0563965-0.5532837,0.0883789-0.829895
	c0.1168213,0.2362671,0.2336426,0.4724731,0.3814087,0.8202515c0.0551147,0.289856,0.0795898,0.4681396,0.1038818,0.6465454
	C48.9030762,20.4094849,48.7507324,20.3377686,48.6146851,20.2407837z M18.1243286,18.3165894
	c0.0235596-0.1275024,0.0048828-0.2974854,0.0805664-0.3724976c0.1210938-0.1199951,0.3046265-0.1768188,0.5020142-0.3314819
	c0.3225708,0.0925903,0.7774658,0.2542114,0.3572998,0.6312866C18.878479,18.4104004,18.4451904,18.3007812,18.1243286,18.3165894z
	 M50.4382935,17.1340942c-0.170105-0.1826782-0.34198-0.3637085-0.5130615-0.5454712
	c0.3812866-0.1536255,0.7137451-0.1542969,0.9230957,0.2772827c0.0285034,0.0585938,0.1026001,0.0949707,0.2266846,0.1820068
	c-0.0831909,0.1563721-0.0305176,0.6473999-0.4282227,0.3187866c-0.0744629-0.072998-0.144104-0.1505737-0.2084961-0.2324829
	V17.1340942z M37.9414062,24.8803711c0.2077026-0.3929443,0.4418945-0.7714844,0.7008667-1.1326904
	c0.0400391-0.0559692,0.1985474-0.0274658,0.3023071-0.0379639c-0.0379639,0.0845947-0.0598755,0.1755981-0.0646973,0.2681885
	C38.9904785,24.6828003,38.4605103,24.7387085,37.9414062,24.8803711z M54.5897217,44.2285767
	c0.0372925,0.1676025,0.0622559,0.3376465,0.074585,0.5089111c-0.0593872,0.1887207-0.1085205,0.3804932-0.1470337,0.574585
	c-0.1574707-0.1427612-0.4373779-0.2788696-0.4454956-0.4296875c0.0137329-0.2832031,0.0925293-0.5593872,0.2304077-0.8070679
	c0.0443115-0.0971069,0.2214966-0.1333008,0.3381958-0.1972046c-0.0316772,0.1141968-0.0487061,0.2319946-0.0507812,0.3504639
	H54.5897217z M34.2487793,7.2131958c0.0771484-0.0473633,0.1595459-0.0855713,0.2455444-0.1137695
	c0.2752686-0.0594482,0.5559082-0.0905151,0.8374634-0.0926514c0.2471313,0.7773438-0.7556152,0.2976685-0.7614746,0.8469849
	C34.4630737,7.6401978,34.355896,7.4266357,34.2487793,7.2131958z M38.930481,14.298584
	c-0.0076904,0.0036011-0.1502075-0.1799927-0.1365967-0.2603149c0.0198975-0.0478516,0.0515137-0.0898438,0.0921021-0.1220703
	c0.0405273-0.0322876,0.088501-0.053772,0.1395874-0.0623779c0.3994141-0.0158081,0.7988281,0.0325928,1.1829224,0.1432495
	C39.8704834,14.598999,39.3491211,14.1018066,38.930481,14.298584z M35.9926758,4.8434448
	c-0.0690918-0.1363525-0.1548462-0.2635498-0.2554932-0.3786621c0.3491211-0.0690308,0.6965332-0.1520996,1.0487061-0.1967773
	c0.088623-0.0112305,0.1929321,0.1009521,0.289917,0.1564331c-0.0466309,0.0525513-0.0831299,0.1281128-0.1416016,0.1539307
	C36.6400757,4.7259521,36.3206177,4.815918,35.9926758,4.8434448z M18.4890137,36.1065063
	c-0.1223145,0.2664185-0.2446899,0.5327759-0.3671265,0.7990723c-0.2838135-0.1693726-0.2539673,0.5389404-0.532959,0.2123413
	c-0.1237183-0.1448975-0.2989502-0.489502,0.1677856-0.5934448c0.1491699-0.0330811,0.2644043-0.2193604,0.4354858-0.4067993
	C18.2866821,36.0789185,18.3917847,36.0750122,18.4890137,36.1065063z M47.8251953,49.5714111
	c-0.0670776,0.1389771-0.1677856,0.2592163-0.2929077,0.3496094c-0.2215576-0.1066284-0.3718872-0.1730347-0.5222778-0.2394409
	c0.246521-0.1905518,0.1245117-0.8222656,0.734375-0.5875854C48.0888062,49.2265015,47.9370728,49.3875732,47.8251953,49.5714111z
	 M24.0499878,44.2579956c0.2380981,0.1619873,0.1151123,0.3812866-0.2952881,0.4602051
	c-0.1762085,0.0028076-0.3510132-0.0319214-0.5126953-0.1018066c-0.1055298-0.0637207-0.2047119-0.1372681-0.2963257-0.2196655
	c0.0975342-0.0852051,0.1932373-0.2397461,0.2927246-0.2421265C23.5133057,44.1123047,23.7944946,44.1480713,24.0499878,44.2579956z
	 M44.6353149,52.2969971c-0.105835,0.1083984-0.2341309,0.1921997-0.3759155,0.2457275v-0.0001221
	c-0.218811,0.0883789-0.4423218,0.164917-0.6638184,0.246521c0-0.125,0.0076904-0.2498169,0.0231934-0.3738403
	C43.9606323,52.3984985,44.1555176,51.4644165,44.6353149,52.2969971z M30.399231,6.2571411
	c0.0873413-0.059021,0.1745605-0.1677246,0.262085-0.1677856c0.27948-0.0004272,0.559082,0.0394287,0.8386841,0.0637207
	c-0.1331787,0.1752319-0.2664185,0.3504028-0.4400024,0.5968018C30.5401001,6.9332275,30.8117065,6.21875,30.399231,6.2571411z
	 M37.7755737,9.3302002c0.2775269,0.0945435,0.4838257,0.1486206,0.6901245,0.2028198
	c-0.1209106,0.1066895-0.2600708,0.1906738-0.4107666,0.2479248c-0.2314453,0.020752-0.4643555,0.0196533-0.6954346-0.0033569
	C37.4677124,9.6027222,37.6091309,9.4507446,37.7755737,9.3302002z M41.8309937,22.1152954
	c0.1677246,0.0606079,0.3253784,0.145813,0.4680786,0.2528076c0.0008545,0.1577759-0.0383911,0.3131714-0.1140747,0.4517212
	c-0.204895-0.0845337-0.4030151-0.1844482-0.5927734-0.2989502c-0.1026001-0.0712891-0.1508179-0.2210693-0.2236328-0.3352661
	C41.5181274,22.1381836,41.6741943,22.114502,41.8309937,22.1152954z M36.8991089,5.7325439
	c0.1148682-0.2028809,0.1616821-0.3729858,0.2730713-0.4537964c0.0837402-0.06073,0.2504272-0.0067139,0.3803101-0.0037842
	c-0.1871948,0.3239746-0.3742676,0.6480713-0.5614014,0.972168C36.9346924,6.0812378,36.9036865,5.9077148,36.8991089,5.7325439z
	 M24.6784058,43.5062256c-0.5021973,0.0008545-0.7211304-0.1435547-0.2412109-0.6573486
	c0.2109985,0.039917,0.4038086,0.1461182,0.550415,0.3030396c0.0767212,0.1030884,0.0498047,0.2832642,0.0690918,0.428894
	C24.9334106,43.5432739,24.8067017,43.5181885,24.6784058,43.5062256z M52.9625854,47.9091797
	c0.1567993,0.2772217,0.2990112,0.4338379,0.3984375,0.6141968c0.0293579,0.0533447-0.0447998,0.1881104-0.1046143,0.257019
	c-0.0335083,0.0385742-0.1834106,0.0462036-0.197937,0.0206299c-0.1820679-0.319519-0.3487549-0.647644-0.5194702-0.9737549
	C52.6854248,47.8024902,52.8358765,47.831604,52.9625854,47.9091797z M44.3944092,14.3427734
	c-0.2293091-0.3476562-0.6539307-0.6241455-0.3746338-1.1013794c0.4667358,0.2485352,0.7091064,0.5405884,0.5740356,1.015686
	C44.5806885,14.3034058,44.4025269,14.3552246,44.3944092,14.3427734z M9.2722168,30.9744873
	c0.0355225,0.0444946,0.0686646,0.0908203,0.0993042,0.1387329c-0.0587158,0.0385742-0.1469116,0.1239014-0.1714478,0.1083984
	c-0.2946167-0.1862183-0.5797119-0.3873291-0.8673096-0.5845337c0.1149292-0.0626831,0.2278442-0.1295776,0.3463745-0.1842651
	c0.0201416-0.0093384,0.0640869,0.0333862,0.1682129,0.0922852C8.9977417,30.6793213,9.1396484,30.8226929,9.2722168,30.9744873z
	 M20.5247803,20.3892822c0.1176147,0.0657959,0.2265015,0.1461182,0.3242188,0.2390137
	c-0.130188,0.0621948-0.2575684,0.1315918-0.3914795,0.1843262c-0.1278076,0.0484009-0.2650146,0.0666504-0.401001,0.0535889
	c-0.145813-0.1369019-0.28302-0.2825928-0.4108887-0.4362183c0.1873779-0.0139771,0.3746948-0.0299683,0.5622559-0.0411987
	C20.3123779,20.3668213,20.4204102,20.3670044,20.5247803,20.3892822z M56.2124023,45.8035278
	c0.0560913,0.3569946-0.1661987,0.3359985-0.4376831,0.1265869c-0.052124-0.3741455-0.0733032-0.6367188-0.0946045-0.8994141
	C56.0839844,45.1314697,56.1608276,45.4746094,56.2124023,45.8035278z M6.5922241,46.1029053
	c-0.0941772,0.074585-0.2666016,0.0507202-0.4036255,0.0714111c0.0741577-0.1311035,0.1484375-0.2623291,0.2630005-0.4645996
	c0.1115723-0.1217041,0.2368774-0.2300415,0.3734741-0.3228149c0.0900269-0.0518799,0.1831665-0.0982056,0.2788696-0.1386108
	c-0.0018921,0.1049805,0.0372314,0.2396851-0.0133057,0.3093872c-0.1407471,0.2034302-0.3084106,0.3868408-0.4983521,0.5452271
	H6.5922241z M43.3087158,58.9844971l0.0911865,0.3292847c-0.0745239,0.0201416-0.2061768,0.0715332-0.2147827,0.0557861
	c-0.1362305-0.2496948-0.243103-0.5160522-0.3862915-0.7612915c-0.0908203-0.1217651-0.1956177-0.2324829-0.3122559-0.3297729
	c0.1033325-0.0372925,0.2248535-0.1281128,0.305603-0.1002808c0.1428223,0.050293,0.2670288,0.1427002,0.3561401,0.2651978
	C43.2252808,58.6159058,43.2792969,58.7977905,43.3087158,58.9844971z M44.491394,57.4611206
	c0.2504883-0.0461426,0.5050049-0.0703125,0.7579956-0.1033325c-0.2218018,0.1488037-0.4345093,0.3109131-0.6366577,0.4852905
	c-0.1682129,0.1335449-0.3478394,0.2520142-0.5366211,0.354126c0.0244751-0.2041016,0.0670776-0.4057007,0.1275024-0.6022339
	C44.2316284,57.5228271,44.387207,57.4802856,44.491394,57.4611206z M53.3369751,47.0916138
	c0.2593384-0.038208,0.5228271-0.0471191,0.784729-0.067688c-0.2471313,0.1952515-0.5059204,0.3752441-0.7750244,0.5388794
	c-0.0686035-0.0275879-0.1292725-0.0717163-0.1767578-0.128418c-0.0475464-0.0565796-0.0803223-0.1240845-0.09552-0.1964722
	c-0.0056152-0.036438,0.164978-0.1318359,0.2626953-0.1463013H53.3369751z M10.2589722,49.7224731
	c-0.2010498,0.1277466-0.4094238,0.2435303-0.6239624,0.3470459c-0.1416016,0.0238037-0.284729,0.0369873-0.4282227,0.0393677
	c0.2883301-0.2125854,0.5759888-0.4262695,0.8723145-0.6271973C10.0828857,49.479187,10.1965942,49.6386719,10.2589722,49.7224731z
	 M7.7709961,25.1425171c-0.270874,0.0955811-0.2327271,0.767395-0.6717529,0.4602661
	c-0.0615234-0.0429077-0.140564-0.1568604-0.1223755-0.2015991C7.1171265,25.0585938,7.3474121,24.8684692,7.7709961,25.1425171z
	 M59.0003052,37.6879883c-0.1282959,0.222229-0.137085,0.6477051-0.6195068,0.3193359
	c-0.2172241-0.5375977,0.1414795-0.5264282,0.3693237-0.5656128C58.8215942,37.4293213,59.0170898,37.6591187,59.0003052,37.6879883
	z M10.8493042,27.590271c-0.4932251-0.076355-0.2944336-0.5846558-0.5007935-0.9414673
	C10.90979,26.6887817,11.1414185,26.9683228,10.8493042,27.590271z M41.1398926,13.0200806
	c-0.2025757,0.1036987-0.4035645,0.2102051-0.6051025,0.315918c-0.020813-0.1331787-0.0203857-0.2687988,0.0010986-0.4017944
	c0.1420288-0.423584,0.4088135-0.3527222,0.6950073-0.1447144c0.0228882,0.0115356,0.0411987,0.0303955,0.0518799,0.0535889
	c0.0107422,0.0233154,0.0131226,0.0494995,0.006897,0.0743408C41.2493896,12.9639282,41.1978149,12.9993286,41.1398926,13.0200806z
	 M27.0842896,48.1066895c0.0404053,0.1387329,0.0579224,0.28302,0.0519409,0.4273071
	c0.0006714,0.008728-0.0496216,0.0338135-0.0709229,0.0289307c-0.0599976-0.0255127-0.1174316-0.0568237-0.1712036-0.0936279
	c-0.2003174-0.1442871-0.3295288-0.2479858-0.4588013-0.3518066c0.1190186-0.1333008,0.237915-0.2667236,0.3568115-0.4000854
	C26.90448,47.8352051,27.0026245,47.9658203,27.0842896,48.1066895z M5.9919434,29.0969849
	c0.0895386,0.2738037,0.022522,0.392334-0.2583008,0.4562988c-0.4023438,0.0917969-0.4611206-0.0614014-0.2903442-0.4655762
	C5.7020874,28.7332153,5.8637085,28.7047729,5.9919434,29.0969849z M21.2059937,28.227417
	c-0.0252686-0.0571289-0.0368042-0.1194458-0.0336914-0.1817017c0.0031128-0.062439,0.020813-0.12323,0.0515137-0.1776123
	c0.0307617-0.0543823,0.0739136-0.1008301,0.1257935-0.135498c0.0518799-0.03479,0.1112061-0.0568848,0.1730957-0.0646973
	c0.0620117-0.0076904,0.125-0.0009155,0.1838989,0.0200195c0.0587769,0.020874,0.1119995,0.0552979,0.1552124,0.1003418
	l-0.3782349,0.6679077c-0.0608521-0.0137939-0.1176758-0.041748-0.1658936-0.0814819
	C21.2695312,28.335022,21.2312012,28.2846069,21.2059937,28.227417z M31.1343994,9.8896484
	c-0.0018921,0.2036743-0.0427856,0.4051514-0.1204224,0.5934448c-0.1528931,0.0023193-0.3032837-0.0380859-0.4345703-0.1165161
	c0.0819702-0.2533569,0.178894-0.501709,0.2902832-0.7435913V9.6228638
	C30.9628906,9.7111816,31.1217041,9.7908936,31.1343994,9.8896484z M33.2625122,9.7114868
	c0.0982056-0.053772,0.3787842,0.225647,0.5756836,0.3521118c-0.1207886,0.1123047-0.2553101,0.2091064-0.4002075,0.2880859
	C33.1376953,10.1680908,32.883606,9.9190674,33.2625122,9.7114868z M30.0629272,35.7653809
	c-0.4549561-0.0012817-0.0255127-0.2172852-0.0181274-0.4008789c0.1674805-0.133728,0.3463135-0.2525024,0.5344238-0.3552246
	c-0.0182495,0.1680908,0.0155029,0.3723145-0.0691528,0.4945068c-0.0521851,0.0723267-0.1189575,0.1329956-0.1959839,0.1780396
	C30.2371216,35.7268066,30.1516113,35.7553101,30.0629272,35.7653809z M41.6981812,55.7700806
	c-0.2099609-0.1121826-0.4071655-0.2468872-0.5881958-0.4016113c-0.1358032-0.1237793-0.2561646-0.2635498-0.3584595-0.4162598
	C41.4404907,54.7189941,41.4927979,55.2963867,41.6981812,55.7700806z M31.899231,16.3671875
	c-0.1332397-0.1690063-0.2512207-0.3493042-0.3528442-0.5388794c0.1773071-0.0372314,0.3544922-0.0744019,0.5316162-0.1116943
	C32.0571289,15.9423218,31.996582,16.1625977,31.899231,16.3671875z M42.7249756,56.1973877
	c-0.194458,0.0023804-0.388855-0.0119629-0.5809937-0.0430908c-0.1578979-0.0570068-0.3001099-0.1503906-0.414978-0.2727051
	c0.1679688-0.1065674,0.3950195-0.2485962,0.5247803-0.1867676C42.4468994,55.7866821,42.5712891,56.0227051,42.7249756,56.1973877z
	 M34.6022949,5.8051758c0.2149048-0.010437,0.4302979-0.0020142,0.6436768,0.0251465
	c0.18396,0.3314209,0.0790405,0.5160522-0.2203979,0.4180908C34.8544922,6.192627,34.7415161,5.9588623,34.6022949,5.8051758z
	 M11.2359009,22.270874c0.09021-0.0290527,0.2042847,0.0150146,0.3383789,0.1379395
	c-0.0198975,0.1809692-0.0704956,0.3572998-0.1495972,0.5213623l-0.5490112-0.4494629
	C10.9874878,22.3973999,11.1082764,22.3270264,11.2359009,22.270874z M33.5869751,54.2271729
	c-0.0202026,0.0218506-0.1466675-0.0549927-0.223877-0.0859985c0.4111328-0.1099854-0.4927979-0.5564575,0.2664795-0.6366577
	C34.1702881,53.8190918,33.786499,54.0119019,33.5869751,54.2271729z M28.9165039,42.6126099
	c-0.0518188,0.2025757-0.1627808,0.3850708-0.3190308,0.5241699c-0.5414429-0.3167725-0.1571655-0.5089722,0.0487061-0.7196655
	C28.6599731,42.4030762,28.9257202,42.5626221,28.9165039,42.6126099z M62.8103027,37.2390747
	c0.1069946,0.0523071,0.1627197,0.2098999,0.2415161,0.3200073c-0.142395,0.0162354-0.286438,0.0109863-0.4273071-0.0155029
	c-0.1630859-0.0805664-0.2993164-0.2067871-0.3922119-0.3631592C62.4254761,37.1259766,62.632019,37.1469727,62.8103027,37.2390747z
	 M30.6807251,46.1555176c-0.0014038-0.2654419,0.0150757-0.5306396,0.0493774-0.7938232
	c0.0042114-0.0971069-0.0003052-0.194519-0.0133057-0.2908936c0.0040894-0.0418091,0.0822754-0.0765991,0.1270752-0.114502
	c0.0690308,0.1676025,0.2213135,0.354126,0.1885376,0.4987183C30.9456177,45.7025757,30.8273926,45.9379883,30.6807251,46.1555176z
	 M60.9564819,37.7739258c0.0497437,0.0304565,0.086792,0.0777588,0.1046143,0.1333008
	c0.0178833,0.055481,0.0153809,0.1156006-0.007019,0.1693726c-0.1096802,0.1461182-0.2474976,0.2687988-0.4050903,0.3610229
	c-0.0369873,0.0223999-0.1669922-0.1088257-0.2542114-0.1694336C60.5645752,38.0847168,60.7529297,37.9190063,60.9564819,37.7739258
	z M35.756897,44.7982788c-0.0357666-0.1987915-0.1494141-0.5407104-0.093811-0.5708618
	c0.2116089-0.1147461,0.5375366-0.3786011,0.6080933,0.2041626C36.1102295,44.5678101,35.9382324,44.6904907,35.756897,44.7982788z
	 M8.3752441,47.0859985c0.1057129-0.0291748,0.2145996-0.0457153,0.3242798-0.0491943
	c-0.0302734,0.1209106-0.0228882,0.3054199-0.0982666,0.3499756c-0.1873779,0.0895386-0.3848267,0.1561279-0.5880127,0.1986084
	c-0.0175781-0.0197144-0.0281372-0.0446777-0.0300293-0.0709839c0.0254517-0.0603027,0.0569458-0.1179199,0.0939941-0.171936
	C8.1574097,47.2369995,8.2589722,47.1494751,8.3752441,47.0859985z M47.3673096,15.7944946
	c-0.1395874,0.0327759-0.2852173,0.0292969-0.4230347-0.010376h0.0001221
	c0.1134033-0.2089233,0.2221069-0.4208374,0.3479004-0.6220093c0.0120239-0.019104,0.1920776,0.0343018,0.1912231,0.0446777
	C47.4639893,15.4060059,47.4249878,15.6029053,47.3673096,15.7944946z M47.5529785,14.302002v-0.0001221
	c0.1404419-0.1088867,0.2886963-0.2072754,0.4436035-0.2941895c0.104248-0.0291748,0.2131958-0.036499,0.3203125-0.0216675
	c0.0111084-0.0001221,0.0357056,0.0494995,0.0308838,0.0709839c-0.0254517,0.0603027-0.0570068,0.1179199-0.0939941,0.171875
	C47.9945068,14.6854858,47.7733765,14.3963013,47.5529785,14.302002z M38.2977295,54.1884766
	c0.0330811-0.0396729,0.0769653-0.0687866,0.1264648-0.0838013c0.2081299-0.0297852,0.4177246-0.0469971,0.6278076-0.0516968
	c-0.041626,0.0645142-0.0789795,0.1315308-0.1119995,0.2007446c-0.1511841,0.3721924-0.3823242,0.286499-0.7015991,0.0744019
	C38.2440186,54.2766724,38.2647095,54.2282104,38.2977295,54.1884766z M23.3673096,58.8406982
	c-0.0899048,0.1105957-0.1925049,0.2102051-0.3057251,0.2965698c0.0060425-0.1151733,0.0267944-0.229187,0.0618896-0.3391724
	c0.0701294-0.184021,0.1913452-0.3442993,0.3493042-0.461792C23.4815063,58.5106812,23.4451904,58.6843872,23.3673096,58.8406982z
	 M36.4122925,19.4755859h0.0001221c-0.1885376,0.1583862-0.3887329,0.3024292-0.5988159,0.4307861
	c-0.0164185,0.0110474-0.0917969-0.0237427-0.0935669-0.041687c0.0013428-0.0849609,0.0217896-0.1687012,0.0595703-0.244873
	c0.1116943-0.1235352,0.2379761-0.2330933,0.3759155-0.3265381c0.0895996-0.0490723,0.1828003-0.0912476,0.2788086-0.1261597
	C36.4296265,19.2728882,36.4675903,19.425293,36.4122925,19.4755859z M56.2905273,43.8825684
	c0.0886841,0.1883545,0.1619873,0.383606,0.2189941,0.5838013c-0.1763916-0.1315918-0.3597412-0.255249-0.5251465-0.3996582
	c-0.0481567-0.0419922-0.045166-0.1428833-0.0253906-0.2880249c0.0595093-0.0134888,0.1216431-0.0111084,0.1798096,0.0072021
	c0.0582275,0.0183105,0.1105957,0.0516968,0.1516113,0.0968018L56.2905273,43.8825684z M16.9362183,19.147583h0.000061
	c0.0415039-0.0958862,0.059021-0.2462769,0.1293335-0.2774658c0.1983032-0.0900879,0.4135742-0.1370239,0.6314087-0.1376343
	c-0.1278076,0.1585083-0.277832,0.2977905-0.4453125,0.4135132C17.1729736,19.1918945,17.0430298,19.1500244,16.9362183,19.147583z
	 M35.9678955,21.1871948c0.2476807,0.1141968,0.6235352,0.1340942,0.3848877,0.6481323
	C35.7485962,21.8817749,36.0413208,21.4467163,35.9678955,21.1871948z M19.4741211,38.2531738
	c0.0189819,0.0491943,0.0684814,0.1244507,0.0521851,0.1433105c-0.1582031,0.1852417-0.3275146,0.3610229-0.4934082,0.5394897
	l-0.090271-0.3258057c0.1435547-0.1626587,0.3265991-0.2855835,0.5313721-0.3569946H19.4741211z M36.6030884,55.3302002
	c0.2073975-0.0358276,0.4174194-0.0535278,0.6279297-0.0526733c-0.019043,0.0333862-0.0405884,0.0970459-0.0563965,0.0955811
	c-0.2615356-0.0238037-0.3210449,0.5726929-0.6931152,0.2263794c-0.0292969-0.0274048-0.1420288,0.034729-0.2871094,0.0148315
	c0.0997925-0.1385498,0.2440186-0.2387085,0.4086304-0.2839966L36.6030884,55.3302002z M33.6688232,11.5161743l0.000061-0.000061
	c0.0031128,0.1896973,0.0062256,0.3795166,0.0248413,0.625061c-0.2156372,0.02771-0.5150146,0.0361328-0.413208-0.3169556
	C33.317627,11.6950073,33.5339966,11.6173706,33.6688232,11.5161743z M34.6577148,4.7315674
	c-0.2084961-0.4574585,0.237915-0.2433472,0.3695068-0.3261108c0.2439575-0.1536865,0.4155884-0.0510254,0.4071045,0.2623901
	c-0.1506958-0.0266113-0.3041382-0.0344849-0.4567261-0.0233765c-0.1044922,0.036377-0.2114868,0.0654907-0.3200073,0.0871582
	L34.6577148,4.7315674z M41.1685181,18.9677124c-0.1657104,0.0484009-0.3376465,0.0723877-0.5103149,0.071167
	c0.0183105-0.2424927,0.2020874-0.427063,0.2810059-0.3713989l0.0001221-0.000061
	C41.0308228,18.755127,41.1080933,18.8563843,41.1685181,18.9677124z M15.492981,52.3604736c0.000061,0,0.0001831,0,0.0002441,0
	l-0.0001221,0.0001221C15.493042,52.3605347,15.493042,52.3605347,15.492981,52.3604736z M15.100708,51.9891968
	c0.1507568,0.100769,0.2834473,0.2263184,0.3922729,0.3712769c-0.1773682,0.0142212-0.3549194-0.0244141-0.510498-0.1109009
	L15.100708,51.9891968z M8.684082,24.0848999l0.000061-0.0001221c-0.0076294-0.0459595,0.0612793-0.1046753,0.0946655-0.1574707
	c0.1739502,0.2238159,0.3479004,0.4475098,0.5372925,0.7271118C8.9112549,24.7139282,8.7446289,24.4484253,8.684082,24.0848999z
	 M13.6467896,51.8009033c0.000061,0,0.0001221,0,0.0001831,0l-0.000061,0.0001221
	C13.6468506,51.8009644,13.6468506,51.8009644,13.6467896,51.8009033z M13.6467896,51.8009033
	c-0.4376221,0.0991821-0.8827515,0.161499-1.3306885,0.1862793c-0.3717041,0.0252075-0.3427734-0.1983643-0.222229-0.4240112
	C12.428772,50.9364014,12.9412842,50.992981,13.6467896,51.8009033z M6.9214478,50.5197144
	c0.2504883,0.0809937,0.4959106,0.1767578,0.7349854,0.2869873c-0.0761108,0.046814-0.1575317,0.0841675-0.2426147,0.1115112
	C7.2138062,50.956604,7.0093994,50.96698,6.8064575,50.9492188c-0.0022583-0.151123,0.0375366-0.2997437,0.1149292-0.4294434
	L6.9214478,50.5197144z M16.7028809,54.3864746c0.0820312-0.1596069,0.1943359-0.3015747,0.3307495-0.4180908
	c0.1513672-0.0093994,0.3033447,0.0010986,0.4519653,0.0314941c-0.1094971,0.1381226-0.1939697,0.3210449-0.3363647,0.4000244
	C17.0372314,54.4620972,16.854187,54.3956909,16.7028809,54.3864746z M4.8147583,49.3817749
	c0.1829834,0.156311,0.3567505,0.3236084,0.53302,0.4877319l-0.3220215,0.0891724
	c-0.1607666-0.1417847-0.2822266-0.3226929-0.3527832-0.5252075c0.0485229-0.0186768,0.1229248-0.067688,0.1417236-0.0515747
	L4.8147583,49.3817749z M7.3748169,49.3707886v-0.000061l0.000061,0.000061H7.3748169z M7.4660645,48.8776245
	c-0.0436401,0.1616821-0.0741577,0.3265991-0.0912476,0.493103c-0.0914917-0.098999-0.2562256-0.1965332-0.2579956-0.2970581
	c0.0235596-0.1783447,0.0753784-0.3518677,0.1533813-0.5140991C7.3648071,48.6444702,7.4328003,48.7550049,7.4660645,48.8776245z
	 M40.1115723,51.4733276l0.0001221-0.0001221c-0.019165-0.0064087-0.0205688-0.0661011,0.0100098-0.1721802l0.2012939-0.3556519
	l0.1989746,0.6446533C40.3847046,51.5524902,40.2463989,51.5183716,40.1115723,51.4733276z M59.468689,23.3040161
	c-0.0599976-0.1525879-0.06427-0.3214111-0.0119629-0.4768066c0.1854858,0.0534058,0.357605,0.1453857,0.5050659,0.2697754
	C59.7974854,23.1660767,59.6331177,23.2349854,59.468689,23.3040161z M12.8530273,22.97229
	c-0.0985107-0.1130981-0.1848145-0.2362061-0.2576294-0.3673096c-0.0695801-0.1762695-0.1201172-0.3594971-0.1508179-0.5465088
	c-0.0064087-0.0322876,0.076416-0.0821533,0.118042-0.1240845c0.0722656,0.1246338,0.1351929,0.2545166,0.1879883,0.3884888
	C12.8054199,22.6135864,12.8292236,22.7929688,12.8530273,22.97229z M17.918396,56.4052734
	c-0.0158081,0.0178223-0.1583862-0.0777588-0.2420654-0.1208496c0.0546875-0.0911255,0.081543-0.1963501,0.0772705-0.3026123
	c0.1522217-0.0585938,0.3203125-0.0615234,0.4744263-0.0079956C18.1342773,56.1242676,18.0308838,56.2683716,17.918396,56.4052734z
	 M53.2642822,46.2919922V46.291748c0.1105347-0.1347046,0.1740112-0.3018799,0.1809082-0.4760742
	c0.124939,0.0137329,0.2449951,0.055542,0.3515015,0.1223145c-0.1669922,0.1339111-0.3452148,0.2531128-0.5327148,0.3563232
	L53.2642822,46.2919922L53.2642822,46.2919922z M20.0004883,55.4863281c0.0510864,0.0058594,0.0994263,0.0266724,0.138916,0.0595703
	c0.0394897,0.03302,0.0684814,0.0767822,0.0834961,0.1259766c0.0137939,0.1349487,0.0108032,0.2709961-0.0090942,0.4051514
	c-0.0629883-0.0435181-0.130188-0.0806274-0.2006226-0.1110229C19.7011108,55.8646851,19.8803101,55.7058716,20.0004883,55.4863281z
	 M18.4202881,37.3746948c0.1539307-0.0079956,0.307312,0.0236206,0.4454956,0.0919189l-0.1375122,0.2427979
	C18.5985718,37.6260986,18.4926147,37.5108032,18.4202881,37.3746948z M47.8364258,16.6259766l-0.6125488,0.1212158
	c0.0487061-0.0977173,0.0974121-0.1954956,0.1862183-0.3643799C47.5703125,16.427124,47.7167969,16.5106812,47.8364258,16.6259766z
	 M46.5526733,17.4949951c-0.062561-0.1981201-0.1254883-0.3961182-0.1843872-0.5952148
	c0.0198364-0.017395,0.0447998-0.027771,0.0710449-0.0296021c0.0602417,0.0255127,0.1177979,0.0569458,0.1717529,0.0939941
	C46.6292114,17.1433105,46.609314,17.3240967,46.5526733,17.4949951z M23.96521,13.6326294
	c0.0446777-0.0622559,0.0831909-0.1287231,0.1148071-0.1984253c0.0861816,0.1047974,0.1588135,0.2199097,0.2163696,0.3427124
	c0.0125122,0.0498657,0.0101318,0.102356-0.0067749,0.151001c-0.0169067,0.048584-0.0477295,0.0911865-0.088501,0.1225586
	C23.9851074,13.9240723,23.7496948,13.8800049,23.96521,13.6326294z M38.7033081,18.4995728
	c-0.1262817-0.1043701-0.2061768-0.2544556-0.2224121-0.4176025c0.064209-0.0244751,0.1306152-0.0428467,0.1981812-0.0548706
	c0.0702515,0.1480713,0.0789185,0.3179932,0.024353,0.4724731H38.7033081z M37.6196899,28.9345093
	c0.1246338-0.0404053,0.2578125-0.0460815,0.385437-0.0167236c-0.0770264,0.1914062-0.1539307,0.3826904-0.230835,0.5740967
	C37.6950073,29.3148804,37.6428833,29.1270142,37.6196899,28.9345093z M12.7462158,30.2335815
	c0.0216064,0.0588989,0.0305786,0.1217041,0.0264893,0.1843262c-0.0598755,0.0112915-0.121521,0.0076904-0.1796265-0.010437
	c-0.0581665-0.0181885-0.1109009-0.050293-0.1536865-0.093689c-0.0681152-0.1124878-0.1203613-0.2337646-0.1555176-0.3605957
	c0.1265259,0.0231934,0.2489014,0.0643921,0.3636475,0.1224976C12.690979,30.1209106,12.7246704,30.1746216,12.7462158,30.2335815z
	 M31.8449707,34.871582c-0.0046997,0.0325317-0.0157471,0.0637207-0.0327759,0.0917358l-0.427124-0.2418213
	c0.0154419-0.0289917,0.036438-0.0546265,0.0619507-0.0753174c0.0253906-0.0206909,0.0548096-0.0360718,0.0861816-0.0452881
	c0.0314941-0.0092163,0.0645752-0.0119629,0.097168-0.0081787c0.0325317,0.0037842,0.0640259,0.0140991,0.0926514,0.0302124
	c0.0285034,0.0161743,0.0534668,0.0379028,0.0736084,0.0638428c0.0199585,0.026001,0.0345459,0.0558472,0.0428467,0.0875244
	S31.8497314,34.8391113,31.8449707,34.871582z M13.8815918,20.989502h-0.000061
	c0.03125-0.1635742,0.1027832-0.3168945,0.2078857-0.446106c0.0432129,0.0494995,0.1326904,0.1278076,0.1224976,0.1442261
	C14.1359863,20.8201904,14.0205078,20.9257812,13.8815918,20.989502z M18.8759155,39.6063843L18.8759155,39.6063843v-0.000061
	V39.6063843z M18.8759155,39.6063843c0.0643921,0.2186279,0.1010132,0.4446411,0.1087036,0.6724243
	c-0.0654907-0.0197144-0.0819092-0.0545044-0.0838013-0.0900269C18.8905029,39.9946899,18.8837891,39.8005371,18.8759155,39.6063843
	z M23.8955078,12.7496948c-0.0579224-0.1520996-0.0599365-0.3197021-0.0057983-0.4732056
	C23.9475708,12.4285889,23.949585,12.5963135,23.8955078,12.7496948z M38.7301025,20.1124878l-0.3496704-0.197998
	c0.1062622-0.0651855,0.2125854-0.1303101,0.3189697-0.1953735C38.7435913,19.8453979,38.7540894,19.9810181,38.7301025,20.1124878z
	 M38.6109009,57.1705933c0.0579224,0.1520996,0.0599976,0.3197021,0.0057983,0.4732056
	C38.5587769,57.4916992,38.5568237,57.3239746,38.6109009,57.1705933z M31.5507812,51.6981812
	c0,0.000061,0.000061,0.000061,0.000061,0.0001221h-0.000061V51.6981812z M31.5508423,51.6983032
	c0.1246948,0.0010986,0.2493286,0.0021973,0.3740845,0.0032959c-0.0526123,0.0928955-0.1052246,0.1856079-0.197998,0.3496704
	C31.6386719,51.9509888,31.5779419,51.8292847,31.5508423,51.6983032z M51.8237915,47.2645874
	c0.1409302-0.0238647,0.2835083-0.0374756,0.4263916-0.0404663c-0.0111084,0.0570679-0.0125732,0.15979-0.0349731,0.1644897
	c-0.1744995,0.0369873-0.3527832,0.0560913-0.5305786,0.0759888c-0.0169067-0.0195923-0.0258179-0.0447998-0.0250244-0.0706787
	c0.008606-0.0350952,0.0343018-0.0657959,0.1641846-0.1293945V47.2645874z M43.0349121,53.7736206
	c-0.0087891,0.0170898-0.1218262-0.0192261-0.1867065-0.0308228c0.0567017-0.1566772,0.1513672-0.296814,0.2756958-0.4077759
	c0.0167847,0.1517944-0.0142822,0.3051758-0.0889893,0.4384766V53.7736206z M51.1533203,51.1143188
	c0.0003052,0.0516968,0.0040894,0.1483765,0.0001831,0.1485596c-0.1162109,0.0231323-0.2368164,0.0023193-0.338623-0.0584106
	c0.1033936-0.0581665,0.2198486-0.0891724,0.3384399-0.090271V51.1143188z M49.0380859,51.4246216
	c0.0032959-0.0018311,0.0499268,0.0829468,0.0762939,0.1275024c-0.1022949,0.0603027-0.2180786,0.0935669-0.336792,0.0968018
	c0.0562134-0.1044312,0.1489258-0.1843262,0.260498-0.2244263V51.4246216z M43.178772,16.0546875
	c-0.0639648,0.0578003-0.1279907,0.1155396-0.2229004,0.0618286C43.0095825,16.0214844,43.0941162,16.0380859,43.178772,16.0546875z
	 M18.9215088,33.3353271c0.0949097,0.0536499,0.0783691,0.1382446,0.0617676,0.2229614
	C18.9254761,33.4942017,18.8677979,33.4301758,18.9215088,33.3353271z M38.2142944,16.7155151
	c-0.0582886-0.1033325-0.0894165-0.2197876-0.0903931-0.3384399l0.1488037-0.0001831
	C38.2957153,16.493103,38.2749023,16.6137085,38.2142944,16.7155151z M33.5020752,48.9157715
	c-0.1021729,0.0602417-0.2180786,0.0934448-0.3366699,0.0967407c0.0560913-0.1044312,0.1488037-0.1843872,0.260376-0.2244263
	C33.4291992,48.786377,33.475708,48.8712769,33.5020752,48.9157715z M39.1691895,12.8447876
	c0.0537109-0.0949707,0.1383057-0.0783691,0.2230225-0.0617676C39.328125,12.8406982,39.2640991,12.8984985,39.1691895,12.8447876z
	 M14.1395874,19.5377808c-0.0578003-0.0639648-0.1154785-0.1279907-0.0617065-0.2229004
	C14.1727295,19.3687134,14.156189,19.4533081,14.1395874,19.5377808z M34.7196045,47.2608032l0.0078125,0.1547852
	c-0.1340942,0.0114136-0.269043-0.0042114-0.3969116-0.0460815l0.0001221-0.0001221
	C34.4509888,47.3057861,34.5836182,47.2687988,34.7196045,47.2608032z M19.2427979,17.1641235
	c-0.0949097-0.0537109-0.0783081-0.1384277-0.0617676-0.2230225c0.0578003,0.0640869,0.1154785,0.1281738,0.0617676,0.2230835
	V17.1641235z M60.2327881,39.7136841l0.0076294,0.1547241c-0.1340332,0.0114136-0.2689209-0.0043335-0.3967285-0.0460815
	C59.9641724,39.758728,60.0969238,39.7216797,60.2327881,39.7136841z M60.5551758,39.1444092h-0.000061v-0.0001221
	L60.5551758,39.1444092z M60.5551147,39.1444092l0.0078125,0.1546021c-0.1341553,0.0114746-0.269043-0.0042114-0.3969116-0.0461426
	C60.286499,39.18927,60.4191284,39.1522827,60.5551147,39.1444092z M60.6420898,36.8353271
	c-0.0889893,0.0464478-0.1779785,0.0929565-0.3226929,0.1548462v-0.000061
	c0.065979-0.1063232,0.1459351-0.203186,0.2377319-0.2883301L60.6420898,36.8353271z M67.1884766,28.4265747v0.000061
	c0-0.000061-0.000061-0.000061-0.000061-0.0001221L67.1884766,28.4265747z M67.1884766,28.4266357
	c0.0582886,0.1033325,0.0892334,0.2197266,0.090332,0.3383789c-0.0518188,0.0003052-0.1483765,0.0039673-0.1488037,0.0003052
	C67.1071167,28.6489868,67.1279297,28.5284424,67.1884766,28.4266357z M20.0534058,56.9937134
	c0.1162109-0.0231323,0.2368774-0.0023193,0.338623,0.0584106c-0.1034546,0.0580444-0.2198486,0.0891724-0.338501,0.0901489
	C20.0532837,57.0905762,20.0496216,56.9940186,20.0534058,56.9937134z M38.5236206,25.6309814
	c0.1033936-0.0581665,0.2197876-0.0891724,0.3383789-0.090271c0.0003052,0.0518188,0.0040283,0.1483765,0.0003052,0.1486816
	C38.7459717,25.7125244,38.6254272,25.6917114,38.5236206,25.6309814z M32.593811,6.208313
	c-0.0603027-0.1021729-0.0936279-0.2180786-0.0968018-0.3366699c0.1043701,0.0560913,0.1842651,0.1488647,0.2243652,0.260376
	c0.001709,0.003479-0.0830688,0.0499268-0.1275635,0.076355V6.208313z M40.7946167,59.4406738
	c0.0578003,0.0640259,0.1154785,0.1281128,0.0617676,0.2230225c-0.0949097-0.0537109-0.0783081-0.1383057-0.0617065-0.2229004
	L40.7946167,59.4406738z M58.9205933,35.5596924c0.0748291-0.022522,0.1553345-0.0172119,0.2266235,0.0148926
	c-0.0748901,0.022522-0.1553345,0.017334-0.2266235-0.0147705V35.5596924z M60.2078857,37.0209961
	c0.022644,0.0748291,0.017334,0.1552734-0.0147705,0.2266235c-0.022522-0.0748291-0.017334-0.1553345,0.0147705-0.2265015
	V37.0209961z M22.4868774,39.7709961c-0.0224609-0.0747681-0.0172729-0.1552124,0.0149536-0.2263794l-0.0001221-0.0001221
	C22.524292,39.6193237,22.5189819,39.6997681,22.4868774,39.7709961z M22.6132202,39.5136108
	c-0.022644-0.0748291-0.017334-0.1553345,0.0147705-0.2265015v-0.0001221
	C22.6505737,39.3618774,22.6453247,39.4423828,22.6132202,39.5136108z M41.3109131,57.0349731
	c-0.0748901,0.022522-0.1553345,0.017334-0.2266235-0.0146484l-0.000061-0.0001221
	C41.1591187,56.9976807,41.239624,57.0029907,41.3109131,57.0349731z M17.7067871,38.5684814
	c-0.000061,0-0.000061,0.000061-0.0001221,0.000061c0-0.000061,0.000061-0.000061,0.000061-0.0001221L17.7067871,38.5684814z
	 M17.706665,38.5685425c-0.017395,0.0527954-0.034729,0.1054688-0.123291,0.117981
	C17.5770874,38.6204834,17.6418457,38.5944824,17.706665,38.5685425z M23.5784912,36.065979l-0.000061-0.0001831
	c-0.0064087-0.0662842,0.0584717-0.0922241,0.123291-0.118103C23.6843872,36.0004883,23.6669922,36.0534058,23.5784912,36.065979z
	 M59.9938965,25.6964722l-0.0001221-0.000061c-0.0747681,0.0224609-0.1552734,0.0172119-0.2265625-0.0148926
	C59.8421021,25.6589966,59.9226074,25.6643066,59.9938965,25.6964722z M17.7838135,35.5106201
	c-0.0661621,0.0062866-0.0921021-0.0585327-0.118042-0.1233521C17.7186279,35.4047241,17.7712402,35.4222412,17.7838135,35.5106201z
	 M17.7838745,35.5106812c0-0.000061-0.000061,0-0.000061-0.000061h0.000061V35.5106812z M37.3604736,56.791626v-0.0001221
	c0.022522,0.0748901,0.017334,0.1552734-0.0148926,0.2266235C37.3231201,56.9432983,37.3283081,56.862793,37.3604736,56.791626z
	 M37.5216064,56.506897c0.0391846,0.0690918,0.0227051,0.1536865-0.0496826,0.2537231
	c-0.0391235-0.0690918-0.022522-0.1536255,0.0496826-0.2536011V56.506897z M9.3469238,24.7659912v-0.0001221
	c0.0691528-0.0391846,0.1537476-0.022583,0.2538452,0.0497437C9.5315552,24.8547974,9.4469604,24.8383179,9.3469238,24.7659912z
	 M9.8581543,24.9418945c-0.0748291,0.022583-0.1552734,0.017395-0.2265015-0.0147095v-0.000061
	C9.7064209,24.90448,9.7869263,24.909729,9.8581543,24.9418945z M48.1116943,46.3947144l-0.0001221-0.0002441
	c0.0528564,0.0174561,0.1057129,0.0348511,0.118103,0.1233521C48.1635742,46.524292,48.1375732,46.4594727,48.1116943,46.3947144z
	 M32.3270264,52.4851685c0-0.000061,0.000061-0.0001221,0.000061-0.0001831v0.0001221
	C32.3270264,52.4851074,32.3270874,52.4851685,32.3270264,52.4851685z M32.3270264,52.4851685
	c0.0062866,0.0661011-0.0585938,0.0919189-0.12323,0.1179199C32.2211914,52.550415,32.2387085,52.4976807,32.3270264,52.4851685z
	 M50.1729736,15.2213745l-0.000061-0.000061c0.017395-0.0527344,0.03479-0.1055908,0.123291-0.1182251
	C50.3026123,15.1694946,50.237793,15.1953735,50.1729736,15.2213745z M43.9468994,54.7030029
	c-0.0527954-0.017334-0.1055908-0.0346069-0.118103-0.12323v-0.000061
	C43.8950195,54.5734253,43.9208984,54.6381836,43.9468994,54.7030029z M49.6195679,52.6516113
	c-0.0529175-0.017334-0.1056519-0.0346069-0.1181641-0.12323C49.567688,52.5222168,49.5935669,52.586853,49.6195679,52.6516113z
	 M49.6195679,52.6516113h0.000061v0.000061L49.6195679,52.6516113z M46.4918823,53.3619995
	c0.0064087,0.0662842-0.0584106,0.0922852-0.123291,0.1182861v-0.000061
	C46.3859863,53.4273071,46.4033813,53.3745117,46.4918823,53.3619995z M13.2455444,27.9225464
	c0.000061,0,0.0001221,0.000061,0.0001831,0.000061h-0.0001221L13.2455444,27.9225464z M13.2455444,27.9225464
	c-0.0527954-0.0175171-0.1054688-0.0348511-0.118042-0.12323C13.1937866,27.7929077,13.2197266,27.8577271,13.2455444,27.9225464z
	 M11.9631958,50.1066284c-0.0662231,0.0061646-0.0921021-0.0585327-0.118103-0.1234131
	C11.8978882,50.0004883,11.9506836,50.0180054,11.9631958,50.1066284z"/>
</svg>
